<?xml version="1.0" standalone="no"?>
<!DOCTYPE svg PUBLIC "-//W3C//DTD SVG 1.1//EN" "http://www.w3.org/Graphics/SVG/1.1/DTD/svg11.dtd" >
<svg xmlns="http://www.w3.org/2000/svg" xmlns:xlink="http://www.w3.org/1999/xlink" version="1.1">
<metadata>
Created by FontForge 20170731 at Thu Dec 13 18:23:05 2012
 By Aleksey,,,
2012 Xavier Dupre' published by FSI FontShop International GmbH
</metadata>
<defs>
<font id="AbsaraSansPro-Bold" horiz-adv-x="520" >
  <font-face 
    font-family="AbsaraSansPro-Bold"
    font-weight="700"
    font-stretch="normal"
    units-per-em="1000"
    panose-1="2 11 8 4 3 1 1 2 1 2"
    ascent="726"
    descent="-274"
    x-height="441"
    cap-height="682"
    bbox="-582 -320 1408 884"
    underline-thickness="99"
    underline-position="-326"
    unicode-range="U+000D-FEFF"
  />
<missing-glyph horiz-adv-x="548" 
d="M67 0v682h414v-682h-414zM166 99h216v484h-216v-484z" />
    <glyph glyph-name="f_i" unicode="fi" horiz-adv-x="604" 
d="M537 0h-142v326h-161v-326h-142v326h-72v115h72v52q0 101 56.5 164t137.5 63q37 0 69 -5l-9 -130q-21 3 -38 3q-36 0 -55 -15.5t-19 -56.5v-75h191l112 7v-448zM529 606q0 -26 -18.5 -45t-44.5 -19t-44 19t-18 45t18 44t44 18t44.5 -18t18.5 -44z" />
    <glyph glyph-name="f_l" unicode="fl" horiz-adv-x="616" 
d="M549 0h-142v579q-35 8 -78 8q-50 0 -72.5 -19t-22.5 -64v-63h93v-115h-93v-326h-142v326h-72v115h72v52q0 108 58.5 163t159.5 55q39 0 113 -8l126 11v-714z" />
    <glyph glyph-name=".notdef" horiz-adv-x="548" 
d="M67 0v682h414v-682h-414zM166 99h216v484h-216v-484z" />
    <glyph glyph-name=".null" horiz-adv-x="0" 
 />
    <glyph glyph-name=".null" horiz-adv-x="0" 
 />
    <glyph glyph-name="nonmarkingreturn" horiz-adv-x="333" 
 />
    <glyph glyph-name="CR" unicode="&#xd;" horiz-adv-x="240" 
 />
    <glyph glyph-name="space" unicode=" " horiz-adv-x="240" 
 />
    <glyph glyph-name="exclam" unicode="!" horiz-adv-x="250" 
d="M201 682l-26 -500h-98l-25 500h149zM200 62q0 -31 -21 -51.5t-53 -20.5t-53.5 20.5t-21.5 51.5q0 32 21.5 53.5t53.5 21.5q31 0 52.5 -21.5t21.5 -53.5z" />
    <glyph glyph-name="quotedbl" unicode="&#x22;" horiz-adv-x="353" 
d="M161 720l-16 -223h-96l-16 223h128zM320 720l-16 -223h-96l-16 223h128z" />
    <glyph glyph-name="numbersign" unicode="#" 
d="M492 413h-92l-29 -133h76v-106h-99l-37 -174h-80l38 174h-91l-37 -174h-80l38 174h-76v106h98l29 133h-82v106h105l35 163h79l-35 -163h91l35 163h79l-35 -163h70v-106zM320 413h-90l-29 -133h90z" />
    <glyph glyph-name="dollar" unicode="$" 
d="M469 234q0 -62 -36.5 -103t-98.5 -55v-86h-57v76q-10 -1 -30 -1h-18v-75h-57v82q-66 11 -104 33l23 115q66 -46 156 -46q85 0 85 47q0 23 -27 40t-66 30.5t-77.5 31.5t-65.5 53t-27 85q0 53 31.5 93t89.5 57v83h57v-70q24 2 38 2h10v68h57v-72q53 -6 92 -18l-15 -112
q-65 25 -141 25q-82 0 -82 -47q0 -20 27 -37.5t66 -32.5t77.5 -34t65.5 -53t27 -79z" />
    <glyph glyph-name="percent" unicode="%" horiz-adv-x="728" 
d="M335 526q0 -78 -42 -123.5t-112 -45.5q-71 0 -111 44t-40 125q0 78 42.5 123t113.5 45q70 0 109.5 -44.5t39.5 -123.5zM612 682l-429 -682h-76l430 682h75zM230 526q0 85 -48 85q-47 0 -47 -85q0 -86 47 -86q48 0 48 86zM695 159q0 -78 -42 -123.5t-112 -45.5
q-71 0 -111 44t-40 125q0 78 42.5 123t113.5 45q70 0 109.5 -44.5t39.5 -123.5zM590 159q0 85 -48 85q-47 0 -47 -85q0 -86 47 -86q48 0 48 86z" />
    <glyph glyph-name="ampersand" unicode="&#x26;" horiz-adv-x="759" 
d="M731 26l-156 -40l-69 70q-93 -66 -213 -66q-124 0 -191.5 55.5t-67.5 155.5q0 148 159 225q-10 30 -10 71q0 96 60.5 146.5t148.5 50.5q91 0 142 -24q-22 -102 -28 -125q-43 25 -96 25q-37 0 -60.5 -20t-23.5 -56q0 -58 88 -147l88 -90q42 89 42 184l140 -13
q-2 -159 -82 -273zM418 147l-77 79q-60 62 -87 94q-66 -33 -66 -109q0 -50 34 -76t86 -26q59 0 110 38z" />
    <glyph glyph-name="quotesingle" unicode="'" horiz-adv-x="194" 
d="M161 720l-16 -223h-96l-16 223h128z" />
    <glyph glyph-name="parenleft" unicode="(" horiz-adv-x="327" 
d="M353 -190l-48 -91q-126 43 -195 176t-69 325q0 203 72 330.5t192 170.5l48 -91q-169 -95 -169 -410q0 -164 45.5 -266t123.5 -144z" />
    <glyph glyph-name="parenright" unicode=")" horiz-adv-x="327" 
d="M-26 630l48 91q126 -43 195 -176t69 -325q0 -203 -72 -330.5t-192 -170.5l-48 91q169 95 169 410q0 164 -45.5 266t-123.5 144z" />
    <glyph glyph-name="asterisk" unicode="*" horiz-adv-x="382" 
d="M362 560l-91 -12l-10 -28l67 -64l-83 -60l-39 82h-30l-40 -82l-82 60l67 64l-10 28l-91 12l32 97l86 -46l20 16l-18 93h102l-18 -93l20 -16l86 46z" />
    <glyph glyph-name="plus" unicode="+" horiz-adv-x="500" 
d="M461 185h-152v-174h-117v174h-154v109h154v172h117v-172h152v-109z" />
    <glyph glyph-name="comma" unicode="," horiz-adv-x="250" 
d="M209 79q-19 -135 -131 -275l-104 22q40 63 63 116t29 81.5t9 61.5z" />
    <glyph glyph-name="hyphen" unicode="-" horiz-adv-x="342" 
d="M300 192h-258v99h258v-99z" />
    <glyph glyph-name="period" unicode="." horiz-adv-x="250" 
d="M199 62q0 -31 -21 -51.5t-53 -20.5t-53.5 20.5t-21.5 51.5q0 32 22 53.5t53 21.5t52.5 -21.5t21.5 -53.5z" />
    <glyph glyph-name="slash" unicode="/" horiz-adv-x="367" 
d="M393 707l-266 -707h-142l265 707h143z" />
    <glyph glyph-name="zero" unicode="0" 
d="M490 250q0 -121 -63 -190.5t-171 -69.5q-109 0 -167.5 67t-58.5 193q0 121 63 189.5t171 68.5q107 0 166.5 -68t59.5 -190zM344 251q0 81 -19 112t-65 31q-43 0 -63.5 -34.5t-20.5 -108.5q0 -78 18.5 -112.5t64.5 -34.5q85 0 85 147z" />
    <glyph glyph-name="one" unicode="1" 
d="M484 122l-11 -122h-385v122h141v258l-120 -25l-20 111l173 42h109v-386h113z" />
    <glyph glyph-name="two" unicode="2" 
d="M477 122l-12 -122h-437v103q158 70 212 113.5t54 89.5q0 76 -91 76q-64 0 -113 -29l-28 121q69 34 171 34q96 0 153 -45t57 -132q0 -119 -168 -209h202z" />
    <glyph glyph-name="three" unicode="3" 
d="M452 43q0 -104 -111 -171t-288 -67l-13 131q129 4 191.5 28.5t62.5 74.5q0 41 -34 55.5t-96 14.5h-56v122h55q126 0 126 80q0 34 -24 51.5t-64 17.5q-77 0 -115 -25l-28 118q70 35 169 35q88 0 145 -41.5t57 -121.5q0 -101 -101 -153v-4q60 -12 92 -50.5t32 -94.5z" />
    <glyph glyph-name="four" unicode="4" 
d="M496 0h-67v-188h-132v188h-262l-12 129l259 378l150 -10l-268 -379h133v121h132v-121h67v-118z" />
    <glyph glyph-name="five" unicode="5" 
d="M465 36q0 -104 -98.5 -167.5t-283.5 -63.5l-18 129q130 2 190 25.5t60 72.5q0 80 -159 80q-59 0 -89 -3l41 389h346l-13 -129h-220l-17 -143h9q110 0 181 -47t71 -143z" />
    <glyph glyph-name="six" unicode="6" 
d="M485 213q0 -101 -63 -162t-166 -61q-102 0 -161 71t-59 205q0 105 37 189t98 134.5t134 77t151 26.5l27 -129q-109 0 -191.5 -47.5t-107.5 -153.5h6q38 41 108 41q78 0 132.5 -48.5t54.5 -142.5zM344 204q0 47 -25 68.5t-62 21.5t-60.5 -23t-23.5 -67q0 -47 22 -72.5
t61 -25.5q88 0 88 98z" />
    <glyph glyph-name="seven" unicode="7" 
d="M473 372l-311 -559l-136 14l300 544h-278l-17 127h442v-126z" />
    <glyph glyph-name="eight" unicode="8" 
d="M485 186q0 -86 -67 -141t-166 -55q-104 0 -160 51t-56 130q0 58 28 99.5t90 76.5q-102 65 -102 170q0 77 57.5 126t153.5 49q100 0 152 -43.5t52 -114.5q0 -108 -105 -168q73 -44 98 -83.5t25 -96.5zM348 517q0 34 -22.5 53.5t-59.5 19.5t-60.5 -19t-23.5 -52
q0 -62 104 -108q26 14 44 44.5t18 61.5zM345 180q0 71 -119 122q-24 -15 -42 -46.5t-18 -64.5q0 -43 22.5 -66t64.5 -23t67 21t25 57z" />
    <glyph glyph-name="nine" unicode="9" 
d="M484 232q0 -105 -37 -189t-98 -134.5t-134 -77t-151 -26.5l-27 129q109 0 191.5 47.5t107.5 153.5h-6q-38 -41 -108 -41q-78 0 -132.5 48.5t-54.5 142.5q0 101 63 162t166 61q102 0 161 -71t59 -205zM347 294q0 47 -22 72.5t-61 25.5q-88 0 -88 -98q0 -47 25 -68.5
t62 -21.5t60.5 23t23.5 67z" />
    <glyph glyph-name="colon" unicode=":" horiz-adv-x="250" 
d="M200 62q0 -31 -21.5 -51.5t-53.5 -20.5t-53 20.5t-21 51.5q0 32 21.5 53.5t52.5 21.5t53 -21.5t22 -53.5zM200 366q0 -31 -21.5 -51.5t-53.5 -20.5t-53 20.5t-21 51.5q0 32 21.5 53.5t52.5 21.5t53 -21.5t22 -53.5z" />
    <glyph glyph-name="semicolon" unicode=";" horiz-adv-x="250" 
d="M200 366q0 -31 -21 -51.5t-53 -20.5t-53.5 20.5t-21.5 51.5q0 32 21.5 53.5t53.5 21.5q31 0 52.5 -21.5t21.5 -53.5zM210 79q-19 -135 -131 -275l-104 22q40 63 63 116t29 81.5t9 61.5z" />
    <glyph glyph-name="less" unicode="&#x3c;" horiz-adv-x="500" 
d="M460 15h-173l-261 221l262 216h172l-265 -211z" />
    <glyph glyph-name="equal" unicode="=" horiz-adv-x="500" 
d="M460 286h-418v106h418v-106zM460 96h-418v107h418v-107z" />
    <glyph glyph-name="greater" unicode="&#x3e;" horiz-adv-x="500" 
d="M38 452h173l261 -221l-262 -216h-172l265 211z" />
    <glyph glyph-name="question" unicode="?" horiz-adv-x="395" 
d="M370 510q0 -82 -51.5 -139t-139.5 -83l5 -106h-98l-46 178q104 16 151.5 47t47.5 84q0 40 -25.5 61.5t-66.5 21.5q-61 0 -96 -23l-21 119q58 24 141 24q86 0 142.5 -48t56.5 -136zM209 62q0 -31 -21.5 -51.5t-53.5 -20.5t-53 20.5t-21 51.5q0 32 21.5 53.5t52.5 21.5
q32 0 53.5 -21.5t21.5 -53.5z" />
    <glyph glyph-name="at" unicode="@" horiz-adv-x="853" 
d="M489 67q-77 -50 -132 -50q-49 0 -78.5 31t-29.5 78q0 73 56 109l163 12v23q0 29 -15.5 40t-47.5 11q-48 0 -98 -30l-35 93q82 46 170 46q150 0 150 -135q0 -4 -1.5 -73t-1.5 -74q0 -49 44 -49q34 0 58.5 44.5t24.5 112.5q0 127 -76 192.5t-205 65.5q-136 0 -217.5 -82.5
t-81.5 -218.5q0 -129 72.5 -200.5t190.5 -71.5q76 0 120 17l11 -90q-59 -17 -134 -17q-152 0 -252.5 96t-100.5 263q0 178 112.5 284.5t281.5 106.5q166 0 268.5 -91.5t102.5 -250.5q0 -113 -56.5 -178t-137.5 -65q-89 0 -125 51zM467 179l-84 -8q-4 -12 -4 -22
q0 -42 38 -42q20 0 49 12z" />
    <glyph glyph-name="A" unicode="A" horiz-adv-x="707" 
d="M687 5l-162 -10l-60 170h-239l-60 -165h-147l257 682h151zM419 285l-58 164q-11 32 -14 65h-8q-4 -43 -13 -65l-60 -164h153z" />
    <glyph glyph-name="B" unicode="B" horiz-adv-x="612" 
d="M566 187q0 -84 -62.5 -138t-171.5 -54q-42 0 -172 5h-78v682h72q123 5 154 5q101 0 158 -44.5t57 -129.5q0 -48 -26 -89.5t-74 -61.5v-7q67 -15 105 -59t38 -109zM376 492q0 85 -102 85q-29 0 -47 -2v-177h40q57 0 83 22.5t26 71.5zM409 197q0 93 -132 93h-50v-175
q16 -2 70 -2q112 0 112 84z" />
    <glyph glyph-name="C" unicode="C" horiz-adv-x="688" 
d="M642 38q-94 -48 -228 -48q-156 0 -262.5 90.5t-106.5 248.5q0 90 30.5 161t82.5 115t116 66.5t135 22.5q149 0 233 -48l-45 -141q-74 48 -180 48q-90 0 -145.5 -52t-55.5 -170q0 -104 58 -152t151 -48q102 0 185 52z" />
    <glyph glyph-name="D" unicode="D" horiz-adv-x="754" 
d="M709 354q0 -175 -100 -268t-259 -93q-34 0 -199 7h-69v682h60q158 7 194 7q167 0 270 -87.5t103 -247.5zM539 343q0 113 -60 165t-157 52q-19 0 -89 -5v-428q57 -5 99 -5q94 0 150.5 58.5t56.5 162.5z" />
    <glyph glyph-name="E" unicode="E" horiz-adv-x="581" 
d="M529 133l-10 -133h-437v682h422l-11 -133h-260v-141h241v-130h-241v-145h296z" />
    <glyph glyph-name="F" unicode="F" horiz-adv-x="563" 
d="M508 682l-12 -132h-263v-183h245v-131h-245v-236h-151v682h426z" />
    <glyph glyph-name="G" unicode="G" horiz-adv-x="742" 
d="M674 31q-42 -17 -115.5 -29t-142.5 -12q-165 0 -268 91t-103 252q0 90 30.5 161t82.5 113.5t116 64.5t135 22q147 0 253 -52l-39 -143q-91 54 -205 54q-202 0 -202 -218q0 -107 56.5 -155.5t152.5 -48.5q60 0 95 13v161h154v-274z" />
    <glyph glyph-name="H" unicode="H" horiz-adv-x="775" 
d="M693 0h-154v285h-303v-285h-154v682h154v-264h303v264h154v-682z" />
    <glyph glyph-name="I" unicode="I" horiz-adv-x="318" 
d="M236 0h-154v682h154v-682z" />
    <glyph glyph-name="J" unicode="J" horiz-adv-x="336" 
d="M254 44q0 -109 -73.5 -172t-189.5 -72l-27 138q72 7 104 36.5t32 85.5v622h154v-638z" />
    <glyph glyph-name="K" unicode="K" horiz-adv-x="690" 
d="M678 0l-174 -10l-194 302l-77 -86v-206h-151v682h151v-299l250 306l176 -7l-244 -273z" />
    <glyph glyph-name="L" unicode="L" horiz-adv-x="557" 
d="M529 134l-11 -134h-436v682h154v-548h293z" />
    <glyph glyph-name="M" unicode="M" horiz-adv-x="942" 
d="M887 4l-149 -8l-27 393q-1 11 -1 51h-7q-7 -46 -14 -63l-161 -377h-144l-146 377q-9 24 -14 63h-7q0 -40 -1 -51l-29 -389h-132l55 682h160l178 -454q11 -27 13 -54h9q5 31 14 54l190 454h160z" />
    <glyph glyph-name="N" unicode="N" horiz-adv-x="764" 
d="M682 2l-118 -14l-305 430q-23 33 -32 56h-7q2 -24 2 -52v-422h-140v682h163l260 -354q22 -30 32 -55h7q-2 24 -2 52v357h140v-680z" />
    <glyph glyph-name="O" unicode="O" horiz-adv-x="807" 
d="M762 354q0 -173 -106 -268.5t-264 -95.5q-141 0 -244 91t-103 246q0 172 103.5 269.5t263.5 97.5q148 0 249 -92t101 -248zM591 344q0 112 -52 166t-134 54t-135.5 -53.5t-53.5 -169.5q0 -112 50 -166.5t136 -54.5q87 0 138 59t51 165z" />
    <glyph glyph-name="P" unicode="P" horiz-adv-x="599" 
d="M559 479q0 -59 -21.5 -105.5t-57 -74t-77.5 -41.5t-87 -14q-26 0 -48 2l-12 116q10 -2 34 -2q51 0 84.5 26.5t33.5 81.5q0 49 -29 75.5t-82 26.5q-24 0 -64 -2v-568h-151v682h81q117 6 163 6q111 0 172 -55t61 -154z" />
    <glyph glyph-name="Q" unicode="Q" horiz-adv-x="807" 
d="M786 -111l-135 -80l-279 185h-1q-132 6 -229.5 94.5t-97.5 238.5q0 172 103.5 269.5t264.5 97.5q147 0 248 -92.5t101 -247.5q0 -119 -54 -201.5t-140 -122.5v-4zM590 344q0 112 -51.5 166t-133.5 54q-85 0 -137 -54.5t-52 -168.5q0 -112 49.5 -167t135.5 -55
q87 0 138 59.5t51 165.5z" />
    <glyph glyph-name="R" unicode="R" horiz-adv-x="648" 
d="M657 1l-170 -12l-176 270h-80v-259h-149v682h91q130 6 164 6q103 0 165.5 -51t62.5 -145q0 -62 -31.5 -109t-86.5 -70v-7zM410 473q0 97 -111 97q-20 0 -68 -2v-196h69q50 0 80 28t30 73z" />
    <glyph glyph-name="S" unicode="S" horiz-adv-x="540" 
d="M499 196q0 -94 -72 -150t-179 -56q-138 0 -212 49l33 129q76 -50 167 -50q103 0 103 69q0 29 -30 52.5t-72.5 43.5t-85.5 43.5t-73 65.5t-30 98q0 93 66.5 148.5t175.5 55.5q108 0 180 -20l-23 -133q-88 25 -146 25q-102 0 -102 -66q0 -24 31 -45.5t75 -41.5t88 -45.5
t75 -69.5t31 -102z" />
    <glyph glyph-name="T" unicode="T" horiz-adv-x="588" 
d="M573 682l-8 -133h-194v-549h-154v549h-195l-7 133h558z" />
    <glyph glyph-name="U" unicode="U" horiz-adv-x="729" 
d="M648 236q0 -108 -73 -177t-206 -69q-146 0 -217 61t-71 185v446h154v-412q0 -76 27 -109.5t108 -33.5q75 0 107 35t32 111v409h139v-446z" />
    <glyph glyph-name="V" unicode="V" horiz-adv-x="685" 
d="M672 682l-239 -682h-177l-242 678l168 10l152 -462q10 -28 13 -60h10q4 36 12 60l152 456h151z" />
    <glyph glyph-name="W" unicode="W" horiz-adv-x="1080" 
d="M1051 682l-188 -682h-161l-150 452q-9 26 -10 49h-10q-5 -34 -10 -49l-143 -452h-160l-189 678l158 10l116 -432q4 -17 8 -47h9q1 19 9 46l135 427h159l145 -426q7 -22 10 -47h10q2 25 6 46l104 427h152z" />
    <glyph glyph-name="X" unicode="X" horiz-adv-x="730" 
d="M707 14l-182 -21l-163 249l-167 -242h-176l261 351l-240 321l185 18l153 -227l145 219h177l-240 -325z" />
    <glyph glyph-name="Y" unicode="Y" horiz-adv-x="658" 
d="M647 682l-231 -425v-257h-154v257l-246 417l178 13l128 -246q14 -25 18 -48h10q5 25 18 48l125 241h154z" />
    <glyph glyph-name="Z" unicode="Z" horiz-adv-x="687" 
d="M619 0h-554l-12 126l377 423h-337l-5 133h523l15 -117l-385 -432h368z" />
    <glyph glyph-name="bracketleft" unicode="[" horiz-adv-x="363" 
d="M329 -257h-249v959h249v-115h-101v-729h101v-115z" />
    <glyph glyph-name="backslash" unicode="\" horiz-adv-x="367" 
d="M392 0h-142l-266 707h143z" />
    <glyph glyph-name="bracketright" unicode="]" horiz-adv-x="363" 
d="M283 -257h-249v115h101v729h-101v115h249v-959z" />
    <glyph glyph-name="asciicircum" unicode="^" horiz-adv-x="500" 
d="M433 271l-96 -6l-97 200l-94 -200l-94 6l135 298h107z" />
    <glyph glyph-name="underscore" unicode="_" horiz-adv-x="500" 
d="M500 -99h-500v99h500v-99z" />
    <glyph glyph-name="grave" unicode="`" horiz-adv-x="500" 
d="M309 497h-98l-118 197h150z" />
    <glyph glyph-name="a" unicode="a" horiz-adv-x="469" 
d="M426 18l-135 -28l-13 42q-69 -42 -125 -42t-88 34t-32 87q0 80 62 123l174 17v22q0 33 -16.5 46t-50.5 13q-50 0 -106 -35l-37 103q89 52 185 52q81 0 121 -34t40 -115q0 -5 -1.5 -86.5t-1.5 -87.5q0 -33 5 -49zM268 175l-88 -12q-4 -12 -4 -28q0 -44 41 -44q20 0 50 14z
" />
    <glyph glyph-name="b" unicode="b" horiz-adv-x="541" 
d="M508 240q0 -117 -71.5 -183.5t-178.5 -66.5q-51 0 -104.5 12.5t-86.5 33.5v666l142 12v-316q48 54 122 54q80 0 128.5 -55.5t48.5 -156.5zM354 231q0 53 -24.5 80t-62.5 27q-35 0 -58 -14v-204q22 -10 51 -10q40 0 67 29t27 92z" />
    <glyph glyph-name="c" unicode="c" horiz-adv-x="448" 
d="M432 41h1q-70 -51 -163 -51q-104 0 -170.5 61.5t-66.5 167.5q0 111 68.5 172t165.5 61q90 0 142 -21l-28 -120q-44 20 -85 20q-51 0 -79 -29.5t-28 -84.5q0 -101 100 -101q62 0 102 37z" />
    <glyph glyph-name="d" unicode="d" horiz-adv-x="541" 
d="M481 0l-131 -5l-3 49q-66 -54 -131 -54q-77 0 -130 54.5t-53 159.5q0 116 68.5 182t160.5 66q39 0 69 -10v260l142 12v-600q0 -55 8 -114zM331 120v208q-22 11 -47 11q-97 0 -97 -121q0 -113 83 -113q34 0 61 15z" />
    <glyph glyph-name="e" unicode="e" horiz-adv-x="484" 
d="M452 57q-70 -67 -189 -67q-94 0 -162 59.5t-68 166.5q0 111 66 173.5t156 62.5q92 0 140.5 -50.5t48.5 -132.5q0 -47 -4 -68h-254q-1 -5 -1 -8q0 -43 28.5 -65t77.5 -22q64 0 120 44zM310 280v19q0 28 -15 45t-43 17q-62 0 -64 -81h122z" />
    <glyph glyph-name="f" unicode="f" horiz-adv-x="360" 
d="M355 715l-9 -136q-19 3 -38 3q-36 0 -55 -15.5t-19 -56.5v-69h107v-115h-107v-326h-142v326h-72v115h72v52q0 101 56.5 164t137.5 63q35 0 69 -5z" />
    <glyph glyph-name="g" unicode="g" horiz-adv-x="509" 
d="M479 -63q0 -87 -65 -145.5t-177 -58.5q-108 0 -167 41t-59 115q0 76 75 101q-62 23 -62 92t85 112q-39 37 -39 98q0 77 50.5 118.5t131.5 41.5q47 0 78 -11h150v-94h-60v-4q15 -21 15 -55q0 -75 -47 -116.5t-136 -41.5q-43 0 -80 16q-37 -12 -37 -34q0 -13 13.5 -19.5
t48.5 -10.5l242 -27q17 -19 28.5 -53t11.5 -65zM308 292q0 73 -56 73q-55 0 -55 -73q0 -71 55 -71q56 0 56 71zM346 -83q0 7 -3 19l-196 21q-19 -14 -19 -42q0 -36 29.5 -51.5t93.5 -15.5q42 0 68.5 18t26.5 51z" />
    <glyph glyph-name="h" unicode="h" horiz-adv-x="551" 
d="M486 0h-142v258q0 80 -72 80q-32 0 -63 -18v-320h-142v702l142 12v-314q45 52 119 52q72 0 115 -40.5t43 -128.5v-283z" />
    <glyph glyph-name="i" unicode="i" horiz-adv-x="276" 
d="M201 606q0 -26 -18.5 -45t-44.5 -19t-44 19t-18 45t18 44t44 18t44.5 -18t18.5 -44zM209 0h-142v436l142 12v-448z" />
    <glyph glyph-name="j" unicode="j" horiz-adv-x="269" 
d="M202 -47q0 -87 -49.5 -148t-144.5 -73l-50 94q54 17 78 47t24 84v479l142 12v-495zM194 606q0 -26 -18.5 -45t-44.5 -19t-44 19t-18 45t18 44t44 18t44.5 -18t18.5 -44z" />
    <glyph glyph-name="k" unicode="k" horiz-adv-x="548" 
d="M532 18l-152 -28q-69 114 -133 189l-38 -34v-145h-142v702l142 12v-434l170 172l148 -22l-179 -161q98 -115 184 -251z" />
    <glyph glyph-name="l" unicode="l" horiz-adv-x="276" 
d="M209 0h-142v702l142 12v-714z" />
    <glyph glyph-name="m" unicode="m" horiz-adv-x="800" 
d="M735 0h-142v258q0 80 -60 80q-33 0 -61 -18v-320h-142v258q0 80 -60 80q-31 0 -61 -18v-320h-142v436l140 12v-47q55 51 115 51q93 0 128 -67q64 67 135 67q73 0 111.5 -39.5t38.5 -129.5v-283z" />
    <glyph glyph-name="n" unicode="n" horiz-adv-x="548" 
d="M483 0h-142v258q0 80 -69 80q-33 0 -63 -18v-320h-142v436l140 12v-47q55 51 117 51q159 0 159 -169v-283z" />
    <glyph glyph-name="o" unicode="o" horiz-adv-x="541" 
d="M508 230q0 -111 -70 -175.5t-177 -64.5q-98 0 -163 60t-65 160q0 110 68.5 176t176.5 66q102 0 166 -60t64 -162zM352 223q0 59 -22.5 87.5t-58.5 28.5q-82 0 -82 -116q0 -58 22 -87.5t58 -29.5q83 0 83 117z" />
    <glyph glyph-name="p" unicode="p" horiz-adv-x="541" 
d="M508 235q0 -113 -66.5 -179t-151.5 -66q-55 0 -81 10v-257h-142v693l140 12v-55q46 59 124 59q85 0 131 -57.5t46 -159.5zM354 227q0 116 -90 116q-30 0 -55 -20v-208q19 -13 52 -13q44 0 68.5 27t24.5 98z" />
    <glyph glyph-name="q" unicode="q" horiz-adv-x="540" 
d="M473 -257h-142v284q-59 -37 -119 -37q-78 0 -128.5 56.5t-50.5 155.5q0 117 68 183.5t181 66.5q101 0 191 -28v-681zM331 120v205q-19 14 -48 14q-96 0 -96 -121q0 -113 82 -113q38 0 62 15z" />
    <glyph glyph-name="r" unicode="r" horiz-adv-x="383" 
d="M367 447l-10 -148q-29 8 -52 8q-61 0 -97 -38v-269h-141v436l139 12v-68q52 72 124 72q22 0 37 -5z" />
    <glyph glyph-name="s" unicode="s" horiz-adv-x="410" 
d="M374 140q0 -65 -50.5 -107.5t-138.5 -42.5q-100 0 -145 25l27 108q56 -26 123 -26q42 0 42 30q0 15 -19.5 25t-47.5 19.5t-56 23t-47.5 43.5t-19.5 73q0 62 55 101.5t137 39.5q68 0 120 -12l-22 -115q-52 19 -104 19q-47 0 -47 -24q0 -14 20 -24.5t48.5 -20t56.5 -23
t48 -42.5t20 -70z" />
    <glyph glyph-name="t" unicode="t" horiz-adv-x="374" 
d="M352 13q-46 -23 -116 -23q-149 0 -149 153v183h-67v115h67v98l142 17v-115h109v-115h-109v-150q0 -36 12.5 -51t41.5 -15q23 0 51 10z" />
    <glyph glyph-name="u" unicode="u" horiz-adv-x="551" 
d="M493 1l-143 -10l-5 47q-71 -48 -131 -48q-149 0 -149 165v281l142 12v-274q0 -61 61 -61q38 0 72 29v294l142 12v-338q0 -47 11 -109z" />
    <glyph glyph-name="v" unicode="v" horiz-adv-x="466" 
d="M471 441l-166 -441h-147l-159 435l154 11l75 -234q6 -18 9 -49h9q2 19 11 49l72 229h142z" />
    <glyph glyph-name="w" unicode="w" horiz-adv-x="757" 
d="M743 441l-135 -441h-138l-74 242q-9 30 -10 46h-12q-2 -21 -10 -46l-81 -242h-138l-129 436l144 10l59 -232q7 -25 8 -43h11q2 14 12 43l73 227h128l78 -227q7 -20 12 -43h11q1 18 8 43l53 227h130z" />
    <glyph glyph-name="x" unicode="x" horiz-adv-x="490" 
d="M492 6l-171 -12l-90 146l-82 -140h-151l156 221l-142 215l169 11l75 -132l72 126h151l-148 -204z" />
    <glyph glyph-name="y" unicode="y" horiz-adv-x="485" 
d="M490 441l-150 -385q-57 -146 -127 -223t-157 -101l-71 123q137 22 186 145h-27l-130 436l154 10l62 -258q7 -28 8 -46h9q4 23 12 46l89 253h142z" />
    <glyph glyph-name="z" unicode="z" horiz-adv-x="471" 
d="M429 0h-391l-11 102l232 222h-203l-9 117h370l12 -104l-230 -220h220z" />
    <glyph glyph-name="braceleft" unicode="{" horiz-adv-x="342" 
d="M315 -261q-38 -4 -68 -4q-103 0 -152 37.5t-49 114.5q0 39 43 124.5t43 107.5q0 23 -25 31.5t-77 8.5v121q52 0 77 8.5t25 32.5q0 22 -43 105.5t-43 125.5q0 152 201 152q36 0 68 -4v-106q-20 1 -45 1q-73 0 -73 -59q0 -25 42 -98t42 -113q0 -44 -28.5 -68.5
t-109.5 -32.5v-9q82 -8 110 -32.5t28 -69.5q0 -37 -42 -111.5t-42 -98.5q0 -59 73 -59q24 0 45 1v-106z" />
    <glyph glyph-name="bar" unicode="|" horiz-adv-x="323" 
d="M231 -257h-138v964h138v-964z" />
    <glyph glyph-name="braceright" unicode="}" horiz-adv-x="342" 
d="M27 700q38 4 68 4q103 0 152 -37.5t49 -114.5q0 -39 -43 -124.5t-43 -107.5q0 -23 25 -31.5t77 -8.5v-121q-52 0 -77 -8.5t-25 -32.5q0 -22 43 -105.5t43 -125.5q0 -152 -201 -152q-36 0 -68 4v106q20 -1 45 -1q73 0 73 59q0 25 -42 98t-42 113q0 44 28.5 68.5
t109.5 32.5v9q-82 8 -110 32.5t-28 69.5q0 37 42 111.5t42 98.5q0 59 -73 59q-24 0 -45 -1v106z" />
    <glyph glyph-name="asciitilde" unicode="~" horiz-adv-x="500" 
d="M451 289q-8 -63 -37.5 -100t-70.5 -37q-33 0 -97 24.5t-83 24.5t-29.5 -11.5t-22.5 -45.5l-64 19q30 133 109 133q32 0 92.5 -25t82.5 -25q19 0 30 13.5t19 45.5z" />
    <glyph glyph-name="uni00A0" unicode="&#xa0;" horiz-adv-x="240" 
 />
    <glyph glyph-name="exclamdown" unicode="&#xa1;" horiz-adv-x="250" 
d="M57 -240l26 500h98l25 -500h-149zM58 380q0 31 21 51.5t53 20.5t53.5 -20.5t21.5 -51.5q0 -32 -21.5 -53.5t-53.5 -21.5q-31 0 -52.5 21.5t-21.5 53.5z" />
    <glyph glyph-name="cent" unicode="&#xa2;" 
d="M454 127q-44 -17 -106 -25v-112h-91v111q-90 11 -148 71.5t-58 166.5q0 116 58 178.5t148 76.5v100h91v-101q60 -6 105 -24l-16 -119q-58 23 -131 23q-117 0 -117 -130q0 -59 33 -88t88 -29q68 0 128 29z" />
    <glyph glyph-name="sterling" unicode="&#xa3;" 
d="M469 0h-415v109q112 0 112 87q0 30 -29 97h-78v99h33q-31 69 -31 116q0 83 56 134.5t153 51.5q112 0 173 -29l-26 -117q-64 28 -136 28q-82 0 -82 -74q0 -28 39 -110h203v-99h-160q14 -45 14 -73q0 -36 -12.5 -59.5t-39.5 -48.5h226v-112z" />
    <glyph glyph-name="currency" unicode="&#xa4;" 
d="M487 406l-52 -53q34 -52 34 -114q0 -66 -38 -122l53 -53l-70 -64l-50 56q-51 -28 -104 -28q-58 0 -106 28l-51 -56l-69 64l51 53q-34 51 -34 117q0 68 33 117l-48 51l70 63l46 -51q51 30 108 30q56 0 108 -29l49 55zM355 237q0 45 -27.5 74t-66.5 29q-38 0 -67 -29
t-29 -74q0 -46 26.5 -75.5t65.5 -29.5q40 0 69 29.5t29 75.5z" />
    <glyph glyph-name="yen" unicode="&#xa5;" 
d="M519 682l-165 -372h98v-115h-117v-195h-149v195h-117v115h98l-162 363l159 14l82 -226q11 -30 15 -50h11q5 24 15 50l88 221h144z" />
    <glyph glyph-name="brokenbar" unicode="&#xa6;" horiz-adv-x="323" 
d="M231 302h-138v405h138v-405zM231 -257h-138v405h138v-405z" />
    <glyph glyph-name="section" unicode="&#xa7;" 
d="M484 359q0 -96 -103 -151q22 -29 22 -62q0 -73 -59.5 -114.5t-151.5 -41.5q-53 0 -92 9l19 104q45 -11 104 -11q56 0 56 33q0 17 -38 34.5t-83 33t-83 50.5t-38 82q0 96 102 150q-21 27 -21 63q0 73 59.5 114.5t151.5 41.5q53 0 92 -9l-19 -104q-45 11 -104 11
q-56 0 -56 -33q0 -17 38 -34.5t83 -33t83 -50.5t38 -82zM352 331q0 12 -6.5 21.5t-21.5 18.5t-28 15t-36.5 15.5t-36.5 15.5q-54 -21 -54 -64q0 -12 6.5 -22t22 -19t27.5 -14.5t36.5 -16t36.5 -15.5q54 23 54 65z" />
    <glyph glyph-name="dieresis" unicode="&#xa8;" horiz-adv-x="500" 
d="M405 606q0 -26 -18 -45t-44 -19t-44 19t-18 45t18 44t44 18t44 -18t18 -44zM220 606q0 -26 -18 -45t-44 -19t-44 19t-18 45t18 44t44 18t44 -18t18 -44z" />
    <glyph glyph-name="copyright" unicode="&#xa9;" horiz-adv-x="759" 
d="M704 342q0 -136 -94 -230t-230 -94q-137 0 -231 94t-94 230t94 230t231 94q136 0 230 -94t94 -230zM649 342q0 115 -77.5 193.5t-191.5 78.5q-115 0 -192.5 -78.5t-77.5 -193.5t78 -194t192 -79t191.5 79t77.5 194zM523 182q-51 -24 -120 -24q-88 0 -144.5 47.5
t-56.5 133.5q0 95 57 145.5t140 50.5q75 0 121 -25l-21 -89q-44 25 -99 25q-95 0 -95 -104q0 -95 100 -95q53 0 101 27z" />
    <glyph glyph-name="ordfeminine" unicode="&#xaa;" horiz-adv-x="385" 
d="M319 437l-89 -16l-8 24q-38 -24 -81 -24q-37 0 -59 22.5t-22 57.5q0 46 39 70l117 8v9q0 30 -43 30q-40 0 -71 -20l-19 70q56 26 115 26q108 0 108 -92q0 -3 -1 -48t-1 -48q0 -20 3 -28zM216 533l-59 -5q-6 -10 -6 -22q0 -27 30 -27q17 0 34 9z" />
    <glyph glyph-name="guillemotleft" unicode="&#xab;" horiz-adv-x="480" 
d="M281 27l-101 -24l-160 206v36l160 184l101 -24l-137 -175zM468 27l-101 -24l-160 206v36l160 184l101 -24l-137 -175z" />
    <glyph glyph-name="logicalnot" unicode="&#xac;" horiz-adv-x="500" 
d="M469 110h-120v137h-322v118h442v-255z" />
    <glyph glyph-name="uni00AD" unicode="&#xad;" horiz-adv-x="342" 
d="M300 192h-258v99h258v-99z" />
    <glyph glyph-name="registered" unicode="&#xae;" horiz-adv-x="759" 
d="M704 342q0 -136 -94 -230t-230 -94q-137 0 -231 94t-94 230t94 230t231 94q136 0 230 -94t94 -230zM649 342q0 115 -77.5 193.5t-191.5 78.5q-115 0 -192.5 -78.5t-77.5 -193.5t78 -194t192 -79t191.5 79t77.5 194zM568 179l-94 -22l-92 135h-46v-129h-89v367h55
q74 3 97 3q59 0 94 -27t35 -78q0 -34 -18.5 -62t-48.5 -40v-4zM434 413q0 48 -64 48q-20 0 -34 -1v-97h36q30 0 46 13.5t16 36.5z" />
    <glyph glyph-name="macron" unicode="&#xaf;" horiz-adv-x="500" 
d="M380 552h-262v93h262v-93z" />
    <glyph glyph-name="degree" unicode="&#xb0;" horiz-adv-x="324" 
d="M301 577q0 -62 -41.5 -99t-103.5 -37q-55 0 -94 35t-39 91q0 61 41 99t103 38q58 0 96 -35.5t38 -91.5zM215 574q0 29 -14.5 44t-37.5 15q-25 0 -40.5 -14.5t-15.5 -43.5q0 -28 15.5 -43.5t38.5 -15.5q54 0 54 58z" />
    <glyph glyph-name="plusminus" unicode="&#xb1;" horiz-adv-x="500" 
d="M437 247h-131v-119h-113v119h-129v106h129v118h113v-118h131v-106zM437 0h-373v108h373v-108z" />
    <glyph glyph-name="twosuperior" unicode="&#xb2;" horiz-adv-x="430" 
d="M375 350l-9 -94h-318v86q114 75 156 117.5t42 85.5q0 26 -18 42t-50 16q-50 0 -100 -22l-16 88q53 26 136 26q72 0 116 -35t44 -98q0 -55 -33.5 -105t-125.5 -107h176z" />
    <glyph glyph-name="threesuperior" unicode="&#xb3;" horiz-adv-x="430" 
d="M370 391q0 -142 -292 -142l-9 93q94 0 137 11t43 39q0 24 -17 30.5t-63 6.5h-65v92h53q43 0 63 8.5t20 32.5q0 41 -55 41q-60 0 -100 -20l-17 91q49 20 132 20q69 0 108 -26t39 -76q0 -73 -77 -100v-5q100 -11 100 -96z" />
    <glyph glyph-name="acute" unicode="&#xb4;" horiz-adv-x="500" 
d="M407 694l-118 -197h-98l66 197h150z" />
    <glyph glyph-name="mu" unicode="&#xb5;" horiz-adv-x="540" 
d="M491 0l-142 -10l-5 48q-56 -44 -112 -44q-15 0 -31 2v-253h-141v693l142 12v-274q0 -61 61 -61q42 0 76 29v294l142 12v-353q0 -41 10 -95z" />
    <glyph glyph-name="paragraph" unicode="&#xb6;" 
d="M453 0h-75v572l-31 5v-577h-75v583h-9q-94 0 -94 -131q0 -101 67 -101q10 0 18 2l4 -102q-26 -11 -67 -11q-68 0 -117 51.5t-49 148.5q0 124 68.5 189t165.5 65q96 0 194 -30v-664z" />
    <glyph glyph-name="periodcentered" unicode="&#xb7;" horiz-adv-x="228" 
d="M186 242q0 -29 -21.5 -49.5t-50.5 -20.5t-50.5 20.5t-21.5 49.5t21.5 50.5t50.5 21.5t50.5 -21.5t21.5 -50.5z" />
    <glyph glyph-name="cedilla" unicode="&#xb8;" horiz-adv-x="500" 
d="M345 -127q0 -47 -36.5 -72t-80.5 -25q-46 0 -76 16l17 67q22 -11 47 -11q17 0 28 8t11 23q0 36 -51 40l11 53q54 0 92 -25t38 -74z" />
    <glyph glyph-name="onesuperior" unicode="&#xb9;" horiz-adv-x="430" 
d="M373 256h-301v94h104v243l-90 -18l-9 86l122 26h88v-337h86v-94z" />
    <glyph glyph-name="ordmasculine" unicode="&#xba;" horiz-adv-x="385" 
d="M344 561q0 -68 -43.5 -104t-114.5 -36q-65 0 -105.5 35t-40.5 96q0 68 44 105t114 37q64 0 105 -35.5t41 -97.5zM244 558q0 33 -15 48.5t-37 15.5q-52 0 -52 -65q0 -33 14.5 -48.5t37.5 -15.5q52 0 52 65z" />
    <glyph glyph-name="guillemotright" unicode="&#xbb;" horiz-adv-x="480" 
d="M460 187l-160 -184l-101 24l137 175l-137 203l101 24l160 -206v-36zM273 187l-160 -184l-101 24l137 175l-137 203l101 24l160 -206v-36z" />
    <glyph glyph-name="onequarter" unicode="&#xbc;" horiz-adv-x="1024" 
d="M373 256h-301v94h104v243l-90 -18l-9 86l122 26h88v-337h86v-94zM744 682l-344 -682h-114l345 682h113zM976 89h-51v-89h-104v89h-177l-9 102l186 246l108 -6l-200 -259h92v93h104v-93h51v-83z" />
    <glyph glyph-name="onehalf" unicode="&#xbd;" horiz-adv-x="1024" 
d="M373 256h-301v94h104v243l-90 -18l-9 86l122 26h88v-337h86v-94zM744 682l-344 -682h-114l345 682h113zM969 94l-9 -94h-318v86q114 75 156 117.5t42 85.5q0 26 -18 42t-50 16q-50 0 -100 -22l-16 88q53 26 136 26q72 0 116 -35t44 -98q0 -55 -33.5 -105t-125.5 -107h176
z" />
    <glyph glyph-name="threequarters" unicode="&#xbe;" horiz-adv-x="1024" 
d="M370 391q0 -142 -292 -142l-9 93q94 0 137 11t43 39q0 24 -17 30.5t-63 6.5h-65v92h53q43 0 63 8.5t20 32.5q0 41 -55 41q-60 0 -100 -20l-17 91q49 20 132 20q69 0 108 -26t39 -76q0 -73 -77 -100v-5q100 -11 100 -96zM744 682l-344 -682h-114l345 682h113zM976 89h-51
v-89h-104v89h-177l-9 102l186 246l108 -6l-200 -259h92v93h104v-93h51v-83z" />
    <glyph glyph-name="questiondown" unicode="&#xbf;" horiz-adv-x="377" 
d="M-3 -68q0 82 51.5 139t139.5 83l-5 106h98l46 -178q-104 -16 -151.5 -47t-47.5 -84q0 -40 25.5 -61.5t66.5 -21.5q61 0 96 23l21 -119q-58 -24 -141 -24q-86 0 -142.5 48t-56.5 136zM158 380q0 31 21.5 51.5t53.5 20.5t53 -20.5t21 -51.5q0 -32 -21.5 -53.5t-52.5 -21.5
t-53 21.5t-22 53.5z" />
    <glyph glyph-name="Agrave" unicode="&#xc0;" horiz-adv-x="707" 
d="M687 5l-162 -10l-60 170h-239l-60 -165h-147l257 682h151zM419 285l-58 164q-11 32 -14 65h-8q-4 -43 -13 -65l-60 -164h153zM404 720h-101l-110 115h145z" />
    <glyph glyph-name="Aacute" unicode="&#xc1;" horiz-adv-x="707" 
d="M687 5l-162 -10l-60 170h-239l-60 -165h-147l257 682h151zM419 285l-58 164q-11 32 -14 65h-8q-4 -43 -13 -65l-60 -164h153zM507 835l-110 -115h-101l66 115h145z" />
    <glyph glyph-name="Acircumflex" unicode="&#xc2;" horiz-adv-x="707" 
d="M687 5l-162 -10l-60 170h-239l-60 -165h-147l257 682h151zM419 285l-58 164q-11 32 -14 65h-8q-4 -43 -13 -65l-60 -164h153zM516 723l-93 -6l-68 64l-70 -64l-90 6l105 124h111z" />
    <glyph glyph-name="Atilde" unicode="&#xc3;" horiz-adv-x="707" 
d="M687 5l-162 -10l-60 170h-239l-60 -165h-147l257 682h151zM419 285l-58 164q-11 32 -14 65h-8q-4 -43 -13 -65l-60 -164h153zM525 833q-15 -67 -39.5 -93t-61.5 -26q-26 0 -71 23t-56 23q-19 0 -27.5 -8t-19.5 -38l-72 20q18 70 42 94.5t62 24.5q26 0 70 -23t55 -23
q19 0 27.5 8.5t19.5 37.5z" />
    <glyph glyph-name="Adieresis" unicode="&#xc4;" horiz-adv-x="707" 
d="M687 5l-162 -10l-60 170h-239l-60 -165h-147l257 682h151zM419 285l-58 164q-11 32 -14 65h-8q-4 -43 -13 -65l-60 -164h153zM505 779q0 -26 -18 -45t-44 -19t-44 19t-18 45t18 44t44 18t44 -18t18 -44zM320 779q0 -26 -18 -45t-44 -19t-44 19t-18 45t18 44t44 18t44 -18
t18 -44z" />
    <glyph glyph-name="Aring" unicode="&#xc5;" horiz-adv-x="707" 
d="M465 751q0 -48 -36 -76l258 -670l-162 -10l-60 170h-239l-60 -165h-147l253 673q-34 26 -34 70q0 46 33 74.5t84 28.5q48 0 79 -26.5t31 -68.5zM419 285l-58 164q-11 32 -14 65h-8q-4 -43 -13 -65l-60 -164h153zM384 749q0 36 -32 36q-34 0 -34 -37q0 -17 9 -26.5
t24 -9.5q33 0 33 37z" />
    <glyph glyph-name="AE" unicode="&#xc6;" horiz-adv-x="926" 
d="M429 378v203h-10l-90 -203h100zM874 133l-10 -133h-435v259h-142l-114 -264l-154 7l301 680h529l-11 -133h-260v-141h241v-130h-241v-145h296z" />
    <glyph glyph-name="Ccedilla" unicode="&#xc7;" horiz-adv-x="688" 
d="M642 38q-94 -48 -228 -48q-156 0 -262.5 90.5t-106.5 248.5q0 90 30.5 161t82.5 115t116 66.5t135 22.5q149 0 233 -48l-45 -141q-74 48 -180 48q-90 0 -145.5 -52t-55.5 -170q0 -104 58 -152t151 -48q102 0 185 52zM465 -127q0 -47 -36.5 -72t-80.5 -25q-46 0 -76 16
l17 67q22 -11 47 -11q17 0 28 8t11 23q0 36 -51 40l11 53q54 0 92 -25t38 -74z" />
    <glyph glyph-name="Egrave" unicode="&#xc8;" horiz-adv-x="581" 
d="M529 133l-10 -133h-437v682h422l-11 -133h-260v-141h241v-130h-241v-145h296zM340 720h-101l-110 115h145z" />
    <glyph glyph-name="Eacute" unicode="&#xc9;" horiz-adv-x="581" 
d="M529 133l-10 -133h-437v682h422l-11 -133h-260v-141h241v-130h-241v-145h296zM425 835l-110 -115h-101l66 115h145z" />
    <glyph glyph-name="Ecircumflex" unicode="&#xca;" horiz-adv-x="581" 
d="M529 133l-10 -133h-437v682h422l-11 -133h-260v-141h241v-130h-241v-145h296zM447 723l-93 -6l-68 64l-70 -64l-90 6l105 124h111z" />
    <glyph glyph-name="Edieresis" unicode="&#xcb;" horiz-adv-x="581" 
d="M529 133l-10 -133h-437v682h422l-11 -133h-260v-141h241v-130h-241v-145h296zM442 779q0 -26 -18 -45t-44 -19t-44 19t-18 45t18 44t44 18t44 -18t18 -44zM257 779q0 -26 -18 -45t-44 -19t-44 19t-18 45t18 44t44 18t44 -18t18 -44z" />
    <glyph glyph-name="Igrave" unicode="&#xcc;" horiz-adv-x="318" 
d="M234 720h-101l-110 115h145zM236 0h-154v682h154v-682z" />
    <glyph glyph-name="Iacute" unicode="&#xcd;" horiz-adv-x="318" 
d="M236 0h-154v682h154v-682zM297 835l-110 -115h-101l66 115h145z" />
    <glyph glyph-name="Icircumflex" unicode="&#xce;" horiz-adv-x="318" 
d="M321 723l-93 -6l-68 64l-70 -64l-90 6l105 124h111zM236 0h-154v682h154v-682z" />
    <glyph glyph-name="Idieresis" unicode="&#xcf;" horiz-adv-x="318" 
d="M236 0h-154v682h154v-682zM315 779q0 -26 -18 -45t-44 -19t-44 19t-18 45t18 44t44 18t44 -18t18 -44zM130 779q0 -26 -18 -45t-44 -19t-44 19t-18 45t18 44t44 18t44 -18t18 -44z" />
    <glyph glyph-name="Eth" unicode="&#xd0;" horiz-adv-x="754" 
d="M709 354q0 -175 -100 -268t-259 -93q-34 0 -199 7h-69v305h-53v90h53v287h60q158 7 194 7q167 0 270 -87.5t103 -247.5zM539 343q0 113 -60 165t-157 52q-19 0 -89 -5v-160h121v-90h-121v-178q57 -5 99 -5q94 0 150.5 58.5t56.5 162.5z" />
    <glyph glyph-name="Ntilde" unicode="&#xd1;" horiz-adv-x="764" 
d="M682 2l-118 -14l-305 430q-23 33 -32 56h-7q2 -24 2 -52v-422h-140v682h163l260 -354q22 -30 32 -55h7q-2 24 -2 52v357h140v-680zM564 833q-15 -67 -39.5 -93t-61.5 -26q-25 0 -71 23t-56 23q-19 0 -27.5 -8t-19.5 -38l-72 20q18 70 42 94.5t62 24.5q27 0 70 -23t55 -23
q19 0 27.5 8.5t19.5 37.5z" />
    <glyph glyph-name="Ograve" unicode="&#xd2;" horiz-adv-x="807" 
d="M762 354q0 -173 -106 -268.5t-264 -95.5q-141 0 -244 91t-103 246q0 172 103.5 269.5t263.5 97.5q148 0 249 -92t101 -248zM591 344q0 112 -52 166t-134 54t-135.5 -53.5t-53.5 -169.5q0 -112 50 -166.5t136 -54.5q87 0 138 59t51 165zM468 720h-101l-110 115h145z" />
    <glyph glyph-name="Oacute" unicode="&#xd3;" horiz-adv-x="807" 
d="M762 354q0 -173 -106 -268.5t-264 -95.5q-141 0 -244 91t-103 246q0 172 103.5 269.5t263.5 97.5q148 0 249 -92t101 -248zM591 344q0 112 -52 166t-134 54t-135.5 -53.5t-53.5 -169.5q0 -112 50 -166.5t136 -54.5q87 0 138 59t51 165zM555 835l-110 -115h-101l66 115
h145z" />
    <glyph glyph-name="Ocircumflex" unicode="&#xd4;" horiz-adv-x="807" 
d="M762 354q0 -173 -106 -268.5t-264 -95.5q-141 0 -244 91t-103 246q0 172 103.5 269.5t263.5 97.5q148 0 249 -92t101 -248zM591 344q0 112 -52 166t-134 54t-135.5 -53.5t-53.5 -169.5q0 -112 50 -166.5t136 -54.5q87 0 138 59t51 165zM566 723l-93 -6l-68 64l-70 -64
l-90 6l105 124h111z" />
    <glyph glyph-name="Otilde" unicode="&#xd5;" horiz-adv-x="807" 
d="M762 354q0 -173 -106 -268.5t-264 -95.5q-141 0 -244 91t-103 246q0 172 103.5 269.5t263.5 97.5q148 0 249 -92t101 -248zM591 344q0 112 -52 166t-134 54t-135.5 -53.5t-53.5 -169.5q0 -112 50 -166.5t136 -54.5q87 0 138 59t51 165zM576 833q-15 -67 -39.5 -93
t-61.5 -26q-25 0 -71 23t-56 23q-19 0 -27.5 -8t-19.5 -38l-72 20q18 70 42 94.5t62 24.5q27 0 70 -23t55 -23q19 0 27.5 8.5t19.5 37.5z" />
    <glyph glyph-name="Odieresis" unicode="&#xd6;" horiz-adv-x="807" 
d="M762 354q0 -173 -106 -268.5t-264 -95.5q-141 0 -244 91t-103 246q0 172 103.5 269.5t263.5 97.5q148 0 249 -92t101 -248zM591 344q0 112 -52 166t-134 54t-135.5 -53.5t-53.5 -169.5q0 -112 50 -166.5t136 -54.5q87 0 138 59t51 165zM558 779q0 -26 -18 -45t-44 -19
t-44 19t-18 45t18 44t44 18t44 -18t18 -44zM373 779q0 -26 -18 -45t-44 -19t-44 19t-18 45t18 44t44 18t44 -18t18 -44z" />
    <glyph glyph-name="multiply" unicode="&#xd7;" horiz-adv-x="500" 
d="M471 102l-81 -76l-139 137l-139 -137l-81 76l142 135l-141 135l80 77l139 -138l139 138l80 -77l-141 -135z" />
    <glyph glyph-name="Oslash" unicode="&#xd8;" horiz-adv-x="807" 
d="M762 354q0 -173 -106 -268.5t-264 -95.5q-112 0 -201 57l-68 -90h-52l87 115q-113 95 -113 255q0 172 103.5 269.5t263.5 97.5q100 0 182 -45l56 74h51l-72 -95q133 -96 133 -274zM591 344q0 107 -51 165l-262 -347q46 -42 124 -42q87 0 138 59t51 165zM216 341
q0 -90 35 -146l257 340q-44 29 -103 29q-82 0 -135.5 -53.5t-53.5 -169.5z" />
    <glyph glyph-name="Ugrave" unicode="&#xd9;" horiz-adv-x="729" 
d="M648 236q0 -108 -73 -177t-206 -69q-146 0 -217 61t-71 185v446h154v-412q0 -76 27 -109.5t108 -33.5q75 0 107 35t32 111v409h139v-446zM439 720h-101l-110 115h145z" />
    <glyph glyph-name="Uacute" unicode="&#xda;" horiz-adv-x="729" 
d="M648 236q0 -108 -73 -177t-206 -69q-146 0 -217 61t-71 185v446h154v-412q0 -76 27 -109.5t108 -33.5q75 0 107 35t32 111v409h139v-446zM513 835l-110 -115h-101l66 115h145z" />
    <glyph glyph-name="Ucircumflex" unicode="&#xdb;" horiz-adv-x="729" 
d="M648 236q0 -108 -73 -177t-206 -69q-146 0 -217 61t-71 185v446h154v-412q0 -76 27 -109.5t108 -33.5q75 0 107 35t32 111v409h139v-446zM534 723l-93 -6l-68 64l-70 -64l-90 6l105 124h111z" />
    <glyph glyph-name="Udieresis" unicode="&#xdc;" horiz-adv-x="729" 
d="M648 236q0 -108 -73 -177t-206 -69q-146 0 -217 61t-71 185v446h154v-412q0 -76 27 -109.5t108 -33.5q75 0 107 35t32 111v409h139v-446zM528 779q0 -26 -18 -45t-44 -19t-44 19t-18 45t18 44t44 18t44 -18t18 -44zM343 779q0 -26 -18 -45t-44 -19t-44 19t-18 45t18 44
t44 18t44 -18t18 -44z" />
    <glyph glyph-name="Yacute" unicode="&#xdd;" horiz-adv-x="658" 
d="M647 682l-231 -425v-257h-154v257l-246 417l178 13l128 -246q14 -25 18 -48h10q5 25 18 48l125 241h154zM501 835l-110 -115h-101l66 115h145z" />
    <glyph glyph-name="Thorn" unicode="&#xde;" horiz-adv-x="599" 
d="M559 356q0 -115 -72 -175.5t-171 -60.5q-26 0 -48 2l-12 115q11 -2 34 -2q51 0 84.5 27t33.5 81q0 51 -31 77t-80 26q-7 0 -64 -3v-443h-151v682h151v-122q51 3 93 3q112 0 172.5 -55.5t60.5 -151.5z" />
    <glyph glyph-name="germandbls" unicode="&#xdf;" horiz-adv-x="555" 
d="M530 140q0 -69 -51.5 -109.5t-129.5 -40.5q-73 0 -121 21l21 106q40 -20 99 -20q42 0 42 32q0 16 -21 39t-46.5 44.5t-46.5 57.5t-21 76q0 48 36.5 112.5t36.5 87.5q0 51 -53 51q-37 0 -55 -18.5t-18 -64.5v-514h-142v497q0 107 62 165t164 58q85 0 134.5 -40t49.5 -111
q0 -37 -39 -101.5t-39 -93.5q0 -22 14 -43.5t34.5 -41t41 -41t34.5 -49.5t14 -59z" />
    <glyph glyph-name="agrave" unicode="&#xe0;" horiz-adv-x="469" 
d="M426 18l-135 -28l-13 42q-69 -42 -125 -42t-88 34t-32 87q0 80 62 123l174 17v22q0 33 -16.5 46t-50.5 13q-50 0 -106 -35l-37 103q89 52 185 52q81 0 121 -34t40 -115q0 -5 -1.5 -86.5t-1.5 -87.5q0 -33 5 -49zM268 175l-88 -12q-4 -12 -4 -28q0 -44 41 -44q20 0 50 14z
M296 497h-98l-118 197h150z" />
    <glyph glyph-name="aacute" unicode="&#xe1;" horiz-adv-x="469" 
d="M426 18l-135 -28l-13 42q-69 -42 -125 -42t-88 34t-32 87q0 80 62 123l174 17v22q0 33 -16.5 46t-50.5 13q-50 0 -106 -35l-37 103q89 52 185 52q81 0 121 -34t40 -115q0 -5 -1.5 -86.5t-1.5 -87.5q0 -33 5 -49zM268 175l-88 -12q-4 -12 -4 -28q0 -44 41 -44q20 0 50 14z
M401 694l-118 -197h-98l66 197h150z" />
    <glyph glyph-name="acircumflex" unicode="&#xe2;" horiz-adv-x="469" 
d="M426 18l-135 -28l-13 42q-69 -42 -125 -42t-88 34t-32 87q0 80 62 123l174 17v22q0 33 -16.5 46t-50.5 13q-50 0 -106 -35l-37 103q89 52 185 52q81 0 121 -34t40 -115q0 -5 -1.5 -86.5t-1.5 -87.5q0 -33 5 -49zM268 175l-88 -12q-4 -12 -4 -28q0 -44 41 -44q20 0 50 14z
M410 502l-101 -6l-77 107l-76 -107l-99 6l112 192h127z" />
    <glyph glyph-name="atilde" unicode="&#xe3;" horiz-adv-x="469" 
d="M426 18l-135 -28l-13 42q-69 -42 -125 -42t-88 34t-32 87q0 80 62 123l174 17v22q0 33 -16.5 46t-50.5 13q-50 0 -106 -35l-37 103q89 52 185 52q81 0 121 -34t40 -115q0 -5 -1.5 -86.5t-1.5 -87.5q0 -33 5 -49zM268 175l-88 -12q-4 -12 -4 -28q0 -44 41 -44q20 0 50 14z
M409 641q-16 -70 -38 -97t-63 -27q-26 0 -71 23t-56 23q-19 0 -27.5 -8t-19.5 -38l-72 20q19 73 41 98.5t63 25.5q26 0 70 -23t55 -23q19 0 27.5 8.5t19.5 37.5z" />
    <glyph glyph-name="adieresis" unicode="&#xe4;" horiz-adv-x="469" 
d="M426 18l-135 -28l-13 42q-69 -42 -125 -42t-88 34t-32 87q0 80 62 123l174 17v22q0 33 -16.5 46t-50.5 13q-50 0 -106 -35l-37 103q89 52 185 52q81 0 121 -34t40 -115q0 -5 -1.5 -86.5t-1.5 -87.5q0 -33 5 -49zM268 175l-88 -12q-4 -12 -4 -28q0 -44 41 -44q20 0 50 14z
M390 606q0 -26 -18 -45t-44 -19t-44 19t-18 45t18 44t44 18t44 -18t18 -44zM205 606q0 -26 -18 -45t-44 -19t-44 19t-18 45t18 44t44 18t44 -18t18 -44z" />
    <glyph glyph-name="aring" unicode="&#xe5;" horiz-adv-x="469" 
d="M426 18l-135 -28l-13 42q-69 -42 -125 -42t-88 34t-32 87q0 80 62 123l174 17v22q0 33 -16.5 46t-50.5 13q-50 0 -106 -35l-37 103q89 52 185 52q81 0 121 -34t40 -115q0 -5 -1.5 -86.5t-1.5 -87.5q0 -33 5 -49zM268 175l-88 -12q-4 -12 -4 -28q0 -44 41 -44q20 0 50 14z
M354 598q0 -47 -33.5 -74.5t-84.5 -27.5q-46 0 -77.5 26t-31.5 68q0 46 33 74.5t84 28.5q48 0 79 -26.5t31 -68.5zM273 596q0 36 -32 36q-34 0 -34 -37q0 -17 9 -26.5t24 -9.5q33 0 33 37z" />
    <glyph glyph-name="ae" unicode="&#xe6;" horiz-adv-x="696" 
d="M664 57q-70 -67 -189 -67q-100 0 -156 65q-61 -41 -96 -53t-70 -12q-56 0 -88 34t-32 87q0 39 17 72t45 51l174 14v25q0 33 -16.5 46t-50.5 13q-50 0 -106 -35l-37 103q89 52 185 52q78 0 107 -48q45 48 127 48q83 0 130.5 -51t47.5 -131q0 -48 -4 -69h-254q-1 -5 -1 -8
q0 -44 28.5 -65.5t77.5 -21.5q64 0 120 44zM268 172l-88 -9q-4 -12 -4 -28q0 -44 41 -44q25 0 61 18q-10 27 -10 63zM522 280v19q0 28 -15 45t-43 17q-62 0 -64 -81h122z" />
    <glyph glyph-name="ccedilla" unicode="&#xe7;" horiz-adv-x="448" 
d="M432 41h1q-70 -51 -163 -51q-104 0 -170.5 61.5t-66.5 167.5q0 111 68.5 172t165.5 61q90 0 142 -21l-28 -120q-44 20 -85 20q-51 0 -79 -29.5t-28 -84.5q0 -101 100 -101q62 0 102 37zM348 -127q0 -47 -36.5 -72t-80.5 -25q-46 0 -76 16l17 67q22 -11 47 -11q17 0 28 8
t11 23q0 36 -51 40l11 53q54 0 92 -25t38 -74z" />
    <glyph glyph-name="egrave" unicode="&#xe8;" horiz-adv-x="484" 
d="M452 57q-70 -67 -189 -67q-94 0 -162 59.5t-68 166.5q0 111 66 173.5t156 62.5q92 0 140.5 -50.5t48.5 -132.5q0 -47 -4 -68h-254q-1 -5 -1 -8q0 -43 28.5 -65t77.5 -22q64 0 120 44zM310 280v19q0 28 -15 45t-43 17q-62 0 -64 -81h122zM305 497h-98l-118 197h150z" />
    <glyph glyph-name="eacute" unicode="&#xe9;" horiz-adv-x="484" 
d="M452 57q-70 -67 -189 -67q-94 0 -162 59.5t-68 166.5q0 111 66 173.5t156 62.5q92 0 140.5 -50.5t48.5 -132.5q0 -47 -4 -68h-254q-1 -5 -1 -8q0 -43 28.5 -65t77.5 -22q64 0 120 44zM310 280v19q0 28 -15 45t-43 17q-62 0 -64 -81h122zM410 694l-118 -197h-98l66 197
h150z" />
    <glyph glyph-name="ecircumflex" unicode="&#xea;" horiz-adv-x="484" 
d="M452 57q-70 -67 -189 -67q-94 0 -162 59.5t-68 166.5q0 111 66 173.5t156 62.5q92 0 140.5 -50.5t48.5 -132.5q0 -47 -4 -68h-254q-1 -5 -1 -8q0 -43 28.5 -65t77.5 -22q64 0 120 44zM310 280v19q0 28 -15 45t-43 17q-62 0 -64 -81h122zM429 502l-101 -6l-77 107
l-76 -107l-99 6l112 192h127z" />
    <glyph glyph-name="edieresis" unicode="&#xeb;" horiz-adv-x="484" 
d="M452 57q-70 -67 -189 -67q-94 0 -162 59.5t-68 166.5q0 111 66 173.5t156 62.5q92 0 140.5 -50.5t48.5 -132.5q0 -47 -4 -68h-254q-1 -5 -1 -8q0 -43 28.5 -65t77.5 -22q64 0 120 44zM310 280v19q0 28 -15 45t-43 17q-62 0 -64 -81h122zM408 606q0 -26 -18 -45t-44 -19
t-44 19t-18 45t18 44t44 18t44 -18t18 -44zM223 606q0 -26 -18 -45t-44 -19t-44 19t-18 45t18 44t44 18t44 -18t18 -44z" />
    <glyph glyph-name="igrave" unicode="&#xec;" horiz-adv-x="276" 
d="M209 0h-142v436l142 12v-448zM206 497h-98l-118 197h150z" />
    <glyph glyph-name="iacute" unicode="&#xed;" horiz-adv-x="276" 
d="M209 0h-142v436l142 12v-448zM285 694l-118 -197h-98l66 197h150z" />
    <glyph glyph-name="icircumflex" unicode="&#xee;" horiz-adv-x="276" 
d="M209 0h-142v436l142 12v-448zM315 502l-101 -6l-77 107l-76 -107l-99 6l112 192h127z" />
    <glyph glyph-name="idieresis" unicode="&#xef;" horiz-adv-x="276" 
d="M209 0h-142v436l142 12v-448zM292 606q0 -26 -18 -45t-44 -19t-44 19t-18 45t18 44t44 18t44 -18t18 -44zM107 606q0 -26 -18 -45t-44 -19t-44 19t-18 45t18 44t44 18t44 -18t18 -44z" />
    <glyph glyph-name="eth" unicode="&#xf0;" horiz-adv-x="530" 
d="M73 546l100 53q-33 30 -82 71l112 44q42 -27 79 -56l105 56l52 -67l-93 -50q70 -75 110.5 -162.5t40.5 -175.5q0 -128 -65 -198.5t-172 -70.5q-105 0 -166 65t-61 171q0 104 59 165t145 61q44 0 72 -14q-21 44 -74 100l-111 -59zM347 237q0 62 -10 96q-27 9 -57 9
q-91 0 -91 -118q0 -112 74 -112q39 0 61.5 34.5t22.5 90.5z" />
    <glyph glyph-name="ntilde" unicode="&#xf1;" horiz-adv-x="548" 
d="M483 0h-142v258q0 80 -69 80q-33 0 -63 -18v-320h-142v436l140 12v-47q55 51 117 51q159 0 159 -169v-283zM453 641q-16 -70 -38 -97t-63 -27q-26 0 -71.5 23t-55.5 23q-19 0 -27.5 -8t-19.5 -38l-72 20q19 73 41 98.5t63 25.5q26 0 69.5 -23t55.5 -23q19 0 27.5 8.5
t19.5 37.5z" />
    <glyph glyph-name="ograve" unicode="&#xf2;" horiz-adv-x="541" 
d="M508 230q0 -111 -70 -175.5t-177 -64.5q-98 0 -163 60t-65 160q0 110 68.5 176t176.5 66q102 0 166 -60t64 -162zM352 223q0 59 -22.5 87.5t-58.5 28.5q-82 0 -82 -116q0 -58 22 -87.5t58 -29.5q83 0 83 117zM334 497h-98l-118 197h150z" />
    <glyph glyph-name="oacute" unicode="&#xf3;" horiz-adv-x="541" 
d="M508 230q0 -111 -70 -175.5t-177 -64.5q-98 0 -163 60t-65 160q0 110 68.5 176t176.5 66q102 0 166 -60t64 -162zM352 223q0 59 -22.5 87.5t-58.5 28.5q-82 0 -82 -116q0 -58 22 -87.5t58 -29.5q83 0 83 117zM438 694l-118 -197h-98l66 197h150z" />
    <glyph glyph-name="ocircumflex" unicode="&#xf4;" horiz-adv-x="541" 
d="M508 230q0 -111 -70 -175.5t-177 -64.5q-98 0 -163 60t-65 160q0 110 68.5 176t176.5 66q102 0 166 -60t64 -162zM352 223q0 59 -22.5 87.5t-58.5 28.5q-82 0 -82 -116q0 -58 22 -87.5t58 -29.5q83 0 83 117zM446 502l-101 -6l-77 107l-76 -107l-99 6l112 192h127z" />
    <glyph glyph-name="otilde" unicode="&#xf5;" horiz-adv-x="541" 
d="M508 230q0 -111 -70 -175.5t-177 -64.5q-98 0 -163 60t-65 160q0 110 68.5 176t176.5 66q102 0 166 -60t64 -162zM352 223q0 59 -22.5 87.5t-58.5 28.5q-82 0 -82 -116q0 -58 22 -87.5t58 -29.5q83 0 83 117zM445 641q-16 -70 -38 -97t-63 -27q-26 0 -71 23t-56 23
q-19 0 -27.5 -8t-19.5 -38l-72 20q19 73 41 98.5t63 25.5q26 0 70 -23t55 -23q19 0 27.5 8.5t19.5 37.5z" />
    <glyph glyph-name="odieresis" unicode="&#xf6;" horiz-adv-x="541" 
d="M508 230q0 -111 -70 -175.5t-177 -64.5q-98 0 -163 60t-65 160q0 110 68.5 176t176.5 66q102 0 166 -60t64 -162zM352 223q0 59 -22.5 87.5t-58.5 28.5q-82 0 -82 -116q0 -58 22 -87.5t58 -29.5q83 0 83 117zM423 606q0 -26 -18 -45t-44 -19t-44 19t-18 45t18 44t44 18
t44 -18t18 -44zM238 606q0 -26 -18 -45t-44 -19t-44 19t-18 45t18 44t44 18t44 -18t18 -44z" />
    <glyph glyph-name="divide" unicode="&#xf7;" horiz-adv-x="500" 
d="M448 193h-397v82h397v-82zM324 393q0 -33 -22 -55t-54 -22t-54 22t-22 55q0 34 22 56.5t54 22.5t54 -22.5t22 -56.5zM324 78q0 -33 -22 -55t-54 -22t-54 22t-22 55q0 34 22 56.5t54 22.5t54 -22.5t22 -56.5z" />
    <glyph glyph-name="oslash" unicode="&#xf8;" horiz-adv-x="541" 
d="M508 230q0 -111 -70 -175.5t-177 -64.5q-59 0 -108 23l-60 -90h-43l72 107q-89 61 -89 180q0 110 68.5 176t176.5 66q63 0 111 -24l63 94h42l-74 -111q88 -60 88 -181zM189 223q0 -44 13 -73l116 172q-18 17 -47 17q-82 0 -82 -116zM352 223q0 40 -12 69l-115 -172
q17 -14 44 -14q83 0 83 117z" />
    <glyph glyph-name="ugrave" unicode="&#xf9;" horiz-adv-x="551" 
d="M493 1l-143 -10l-5 47q-71 -48 -131 -48q-149 0 -149 165v281l142 12v-274q0 -61 61 -61q38 0 72 29v294l142 12v-338q0 -47 11 -109zM325 497h-98l-118 197h150z" />
    <glyph glyph-name="uacute" unicode="&#xfa;" horiz-adv-x="551" 
d="M493 1l-143 -10l-5 47q-71 -48 -131 -48q-149 0 -149 165v281l142 12v-274q0 -61 61 -61q38 0 72 29v294l142 12v-338q0 -47 11 -109zM441 694l-118 -197h-98l66 197h150z" />
    <glyph glyph-name="ucircumflex" unicode="&#xfb;" horiz-adv-x="551" 
d="M493 1l-143 -10l-5 47q-71 -48 -131 -48q-149 0 -149 165v281l142 12v-274q0 -61 61 -61q38 0 72 29v294l142 12v-338q0 -47 11 -109zM451 502l-101 -6l-77 107l-76 -107l-99 6l112 192h127z" />
    <glyph glyph-name="udieresis" unicode="&#xfc;" horiz-adv-x="551" 
d="M493 1l-143 -10l-5 47q-71 -48 -131 -48q-149 0 -149 165v281l142 12v-274q0 -61 61 -61q38 0 72 29v294l142 12v-338q0 -47 11 -109zM429 606q0 -26 -18 -45t-44 -19t-44 19t-18 45t18 44t44 18t44 -18t18 -44zM244 606q0 -26 -18 -45t-44 -19t-44 19t-18 45t18 44
t44 18t44 -18t18 -44z" />
    <glyph glyph-name="yacute" unicode="&#xfd;" horiz-adv-x="485" 
d="M490 441l-150 -385q-57 -146 -127 -223t-157 -101l-71 123q137 22 186 145h-27l-130 436l154 10l62 -258q7 -28 8 -46h9q4 23 12 46l89 253h142zM421 694l-118 -197h-98l66 197h150z" />
    <glyph glyph-name="thorn" unicode="&#xfe;" horiz-adv-x="541" 
d="M508 235q0 -113 -66.5 -179t-151.5 -66q-55 0 -81 10v-257h-142v959l142 12v-321q46 59 122 59q85 0 131 -57.5t46 -159.5zM354 227q0 116 -90 116q-30 0 -55 -20v-208q19 -13 52 -13q44 0 68.5 27t24.5 98z" />
    <glyph glyph-name="ydieresis" unicode="&#xff;" horiz-adv-x="485" 
d="M490 441l-150 -385q-57 -146 -127 -223t-157 -101l-71 123q137 22 186 145h-27l-130 436l154 10l62 -258q7 -28 8 -46h9q4 23 12 46l89 253h142zM412 606q0 -26 -18 -45t-44 -19t-44 19t-18 45t18 44t44 18t44 -18t18 -44zM227 606q0 -26 -18 -45t-44 -19t-44 19t-18 45
t18 44t44 18t44 -18t18 -44z" />
    <glyph glyph-name="Amacron" unicode="&#x100;" horiz-adv-x="707" 
d="M687 5l-162 -10l-60 170h-239l-60 -165h-147l257 682h151zM419 285l-58 164q-11 32 -14 65h-8q-4 -43 -13 -65l-60 -164h153zM485 733h-262v93h262v-93z" />
    <glyph glyph-name="amacron" unicode="&#x101;" horiz-adv-x="469" 
d="M426 18l-135 -28l-13 42q-69 -42 -125 -42t-88 34t-32 87q0 80 62 123l174 17v22q0 33 -16.5 46t-50.5 13q-50 0 -106 -35l-37 103q89 52 185 52q81 0 121 -34t40 -115q0 -5 -1.5 -86.5t-1.5 -87.5q0 -33 5 -49zM268 175l-88 -12q-4 -12 -4 -28q0 -44 41 -44q20 0 50 14z
M363 558h-262v93h262v-93z" />
    <glyph glyph-name="Abreve" unicode="&#x102;" horiz-adv-x="707" 
d="M687 5l-162 -10l-60 170h-239l-60 -165h-147l257 682h151zM419 285l-58 164q-11 32 -14 65h-8q-4 -43 -13 -65l-60 -164h153zM513 845q-25 -137 -164 -137q-138 0 -159 137l95 5q11 -58 67 -58q54 0 66 58z" />
    <glyph glyph-name="abreve" unicode="&#x103;" horiz-adv-x="469" 
d="M426 18l-135 -28l-13 42q-69 -42 -125 -42t-88 34t-32 87q0 80 62 123l174 17v22q0 33 -16.5 46t-50.5 13q-50 0 -106 -35l-37 103q89 52 185 52q81 0 121 -34t40 -115q0 -5 -1.5 -86.5t-1.5 -87.5q0 -33 5 -49zM268 175l-88 -12q-4 -12 -4 -28q0 -44 41 -44q20 0 50 14z
M394 672q-8 -76 -49.5 -119.5t-114.5 -43.5q-146 0 -159 163l90 5q9 -84 72 -84q59 0 71 84z" />
    <glyph glyph-name="Aogonek" unicode="&#x104;" horiz-adv-x="707" 
d="M687 5q-79 -44 -105 -71.5t-26 -49.5q0 -29 35 -29q25 0 48 12l13 -65q-34 -18 -84 -18q-46 0 -72.5 20.5t-26.5 58.5q0 77 123 136l-67 -4l-60 170h-239l-60 -165h-147l257 682h151zM419 285l-58 164q-11 32 -14 65h-8q-4 -43 -13 -65l-60 -164h153z" />
    <glyph glyph-name="aogonek" unicode="&#x105;" horiz-adv-x="469" 
d="M426 18q-92 -74 -92 -129q0 -34 35 -34q25 0 48 12l13 -65q-34 -18 -84 -18q-46 0 -72.5 21t-26.5 62q0 65 93 133l-49 -10l-13 42q-69 -42 -125 -42t-88 34t-32 87q0 80 62 123l174 17v22q0 33 -16.5 46t-50.5 13q-50 0 -106 -35l-37 103q89 52 185 52q81 0 121 -34
t40 -115q0 -5 -1.5 -86.5t-1.5 -87.5q0 -33 5 -49zM268 175l-88 -12q-4 -12 -4 -28q0 -44 41 -44q20 0 50 14z" />
    <glyph glyph-name="Cacute" unicode="&#x106;" horiz-adv-x="688" 
d="M642 38q-94 -48 -228 -48q-156 0 -262.5 90.5t-106.5 248.5q0 90 30.5 161t82.5 115t116 66.5t135 22.5q149 0 233 -48l-45 -141q-74 48 -180 48q-90 0 -145.5 -52t-55.5 -170q0 -104 58 -152t151 -48q102 0 185 52zM551 835l-110 -115h-101l66 115h145z" />
    <glyph glyph-name="cacute" unicode="&#x107;" horiz-adv-x="448" 
d="M432 41h1q-70 -51 -163 -51q-104 0 -170.5 61.5t-66.5 167.5q0 111 68.5 172t165.5 61q90 0 142 -21l-28 -120q-44 20 -85 20q-51 0 -79 -29.5t-28 -84.5q0 -101 100 -101q62 0 102 37zM416 694l-118 -197h-98l66 197h150z" />
    <glyph glyph-name="Ccircumflex" unicode="&#x108;" horiz-adv-x="688" 
d="M642 38q-94 -48 -228 -48q-156 0 -262.5 90.5t-106.5 248.5q0 90 30.5 161t82.5 115t116 66.5t135 22.5q149 0 233 -48l-45 -141q-74 48 -180 48q-90 0 -145.5 -52t-55.5 -170q0 -104 58 -152t151 -48q102 0 185 52zM551 723l-93 -6l-68 64l-70 -64l-90 6l105 124h111z
" />
    <glyph glyph-name="ccircumflex" unicode="&#x109;" horiz-adv-x="448" 
d="M432 41h1q-70 -51 -163 -51q-104 0 -170.5 61.5t-66.5 167.5q0 111 68.5 172t165.5 61q90 0 142 -21l-28 -120q-44 20 -85 20q-51 0 -79 -29.5t-28 -84.5q0 -101 100 -101q62 0 102 37zM427 502l-101 -6l-77 107l-76 -107l-99 6l112 192h127z" />
    <glyph glyph-name="Cdotaccent" unicode="&#x10a;" horiz-adv-x="688" 
d="M642 38q-94 -48 -228 -48q-156 0 -262.5 90.5t-106.5 248.5q0 90 30.5 161t82.5 115t116 66.5t135 22.5q149 0 233 -48l-45 -141q-74 48 -180 48q-90 0 -145.5 -52t-55.5 -170q0 -104 58 -152t151 -48q102 0 185 52zM452 779q0 -26 -18 -45t-44 -19t-44 19t-18 45t18 44
t44 18t44 -18t18 -44z" />
    <glyph glyph-name="cdotaccent" unicode="&#x10b;" horiz-adv-x="448" 
d="M432 41h1q-70 -51 -163 -51q-104 0 -170.5 61.5t-66.5 167.5q0 111 68.5 172t165.5 61q90 0 142 -21l-28 -120q-44 20 -85 20q-51 0 -79 -29.5t-28 -84.5q0 -101 100 -101q62 0 102 37zM312 605q0 -26 -18.5 -45t-44.5 -19t-44 19t-18 45t18 44.5t44 18.5t44.5 -18.5
t18.5 -44.5z" />
    <glyph glyph-name="Ccaron" unicode="&#x10c;" horiz-adv-x="688" 
d="M642 38q-94 -48 -228 -48q-156 0 -262.5 90.5t-106.5 248.5q0 90 30.5 161t82.5 115t116 66.5t135 22.5q149 0 233 -48l-45 -141q-74 48 -180 48q-90 0 -145.5 -52t-55.5 -170q0 -104 58 -152t151 -48q102 0 185 52zM550 843l-105 -124h-111l-105 124l93 6l68 -64l70 64z
" />
    <glyph glyph-name="ccaron" unicode="&#x10d;" horiz-adv-x="448" 
d="M432 41h1q-70 -51 -163 -51q-104 0 -170.5 61.5t-66.5 167.5q0 111 68.5 172t165.5 61q90 0 142 -21l-28 -120q-44 20 -85 20q-51 0 -79 -29.5t-28 -84.5q0 -101 100 -101q62 0 102 37zM424 694l-112 -192h-127l-114 192l101 6l77 -107l76 107z" />
    <glyph glyph-name="Dcaron" unicode="&#x10e;" horiz-adv-x="754" 
d="M709 354q0 -175 -100 -268t-259 -93q-34 0 -199 7h-69v682h60q158 7 194 7q167 0 270 -87.5t103 -247.5zM539 343q0 113 -60 165t-157 52q-19 0 -89 -5v-428q57 -5 99 -5q94 0 150.5 58.5t56.5 162.5zM520 843l-105 -124h-111l-105 124l93 6l68 -64l70 64z" />
    <glyph glyph-name="dcaron" unicode="&#x10f;" horiz-adv-x="661" 
d="M481 0l-131 -5l-3 49q-66 -54 -131 -54q-77 0 -130 54.5t-53 159.5q0 116 68.5 182t160.5 66q39 0 69 -10v260l142 12v-600q0 -55 8 -114zM331 120v208q-22 11 -47 11q-97 0 -97 -121q0 -113 83 -113q34 0 61 15zM681 708l-68 -217h-85l19 217h134z" />
    <glyph glyph-name="Dcroat" unicode="&#x110;" horiz-adv-x="754" 
d="M709 354q0 -175 -100 -268t-259 -93q-34 0 -199 7h-69v305h-53v90h53v287h60q158 7 194 7q167 0 270 -87.5t103 -247.5zM539 343q0 113 -60 165t-157 52q-19 0 -89 -5v-160h121v-90h-121v-178q57 -5 99 -5q94 0 150.5 58.5t56.5 162.5z" />
    <glyph glyph-name="dcroat" unicode="&#x111;" horiz-adv-x="541" 
d="M194 521v90h137v91l142 12v-103h61v-90h-61v-407q0 -55 8 -114l-131 -5l-3 49q-66 -54 -131 -54q-77 0 -130 54.5t-53 159.5q0 116 68.5 182t160.5 66q39 0 69 -10v79h-137zM331 120v208q-22 11 -47 11q-97 0 -97 -121q0 -113 83 -113q34 0 61 15z" />
    <glyph glyph-name="Emacron" unicode="&#x112;" horiz-adv-x="581" 
d="M529 133l-10 -133h-437v682h422l-11 -133h-260v-141h241v-130h-241v-145h296zM421 733h-262v93h262v-93z" />
    <glyph glyph-name="emacron" unicode="&#x113;" horiz-adv-x="484" 
d="M452 57q-70 -67 -189 -67q-94 0 -162 59.5t-68 166.5q0 111 66 173.5t156 62.5q92 0 140.5 -50.5t48.5 -132.5q0 -47 -4 -68h-254q-1 -5 -1 -8q0 -43 28.5 -65t77.5 -22q64 0 120 44zM310 280v19q0 28 -15 45t-43 17q-62 0 -64 -81h122zM383 558h-262v93h262v-93z" />
    <glyph glyph-name="Edotaccent" unicode="&#x116;" horiz-adv-x="581" 
d="M529 133l-10 -133h-437v682h422l-11 -133h-260v-141h241v-130h-241v-145h296zM348 779q0 -26 -18 -45t-44 -19t-44 19t-18 45t18 44t44 18t44 -18t18 -44z" />
    <glyph glyph-name="edotaccent" unicode="&#x117;" horiz-adv-x="484" 
d="M452 57q-70 -67 -189 -67q-94 0 -162 59.5t-68 166.5q0 111 66 173.5t156 62.5q92 0 140.5 -50.5t48.5 -132.5q0 -47 -4 -68h-254q-1 -5 -1 -8q0 -43 28.5 -65t77.5 -22q64 0 120 44zM310 280v19q0 28 -15 45t-43 17q-62 0 -64 -81h122zM315 605q0 -26 -18.5 -45
t-44.5 -19t-44 19t-18 45t18 44.5t44 18.5t44.5 -18.5t18.5 -44.5z" />
    <glyph glyph-name="Eogonek" unicode="&#x118;" horiz-adv-x="581" 
d="M529 133l-10 -133q-86 -67 -86 -113q0 -32 35 -32q26 0 48 12l13 -65q-34 -18 -84 -18q-46 0 -72.5 20.5t-26.5 58.5q0 67 103 137h-367v682h422l-11 -133h-260v-141h241v-130h-241v-145h296z" />
    <glyph glyph-name="eogonek" unicode="&#x119;" horiz-adv-x="484" 
d="M452 57q-23 -22 -41 -31q-77 -66 -77 -132q0 -39 35 -39q25 0 48 12l13 -65q-34 -18 -84 -18q-99 0 -99 88q0 63 74 122q-25 -4 -58 -4q-94 0 -162 59.5t-68 166.5q0 111 66 173.5t156 62.5q92 0 140.5 -50.5t48.5 -132.5q0 -47 -4 -68h-254q-1 -5 -1 -8q0 -43 28.5 -65
t77.5 -22q64 0 120 44zM310 280v19q0 28 -15 45t-43 17q-62 0 -64 -81h122z" />
    <glyph glyph-name="Ecaron" unicode="&#x11a;" horiz-adv-x="581" 
d="M529 133l-10 -133h-437v682h422l-11 -133h-260v-141h241v-130h-241v-145h296zM446 843l-105 -124h-111l-105 124l93 6l68 -64l70 64z" />
    <glyph glyph-name="ecaron" unicode="&#x11b;" horiz-adv-x="484" 
d="M452 57q-70 -67 -189 -67q-94 0 -162 59.5t-68 166.5q0 111 66 173.5t156 62.5q92 0 140.5 -50.5t48.5 -132.5q0 -47 -4 -68h-254q-1 -5 -1 -8q0 -43 28.5 -65t77.5 -22q64 0 120 44zM310 280v19q0 28 -15 45t-43 17q-62 0 -64 -81h122zM427 694l-112 -192h-127l-114 192
l101 6l77 -107l76 107z" />
    <glyph glyph-name="Gcircumflex" unicode="&#x11c;" horiz-adv-x="742" 
d="M674 31q-42 -17 -115.5 -29t-142.5 -12q-165 0 -268 91t-103 252q0 90 30.5 161t82.5 113.5t116 64.5t135 22q147 0 253 -52l-39 -143q-91 54 -205 54q-202 0 -202 -218q0 -107 56.5 -155.5t152.5 -48.5q60 0 95 13v161h154v-274zM551 723l-93 -6l-68 64l-70 -64l-90 6
l105 124h111z" />
    <glyph glyph-name="gcircumflex" unicode="&#x11d;" horiz-adv-x="509" 
d="M479 -63q0 -87 -65 -145.5t-177 -58.5q-108 0 -167 41t-59 115q0 76 75 101q-62 23 -62 92t85 112q-39 37 -39 98q0 77 50.5 118.5t131.5 41.5q47 0 78 -11h150v-94h-60v-4q15 -21 15 -55q0 -75 -47 -116.5t-136 -41.5q-43 0 -80 16q-37 -12 -37 -34q0 -13 13.5 -19.5
t48.5 -10.5l242 -27q17 -19 28.5 -53t11.5 -65zM308 292q0 73 -56 73q-55 0 -55 -73q0 -71 55 -71q56 0 56 71zM346 -83q0 7 -3 19l-196 21q-19 -14 -19 -42q0 -36 29.5 -51.5t93.5 -15.5q42 0 68.5 18t26.5 51zM430 502l-101 -6l-77 107l-76 -107l-99 6l112 192h127z" />
    <glyph glyph-name="Gbreve" unicode="&#x11e;" horiz-adv-x="742" 
d="M674 31q-42 -17 -115.5 -29t-142.5 -12q-165 0 -268 91t-103 252q0 90 30.5 161t82.5 113.5t116 64.5t135 22q147 0 253 -52l-39 -143q-91 54 -205 54q-202 0 -202 -218q0 -107 56.5 -155.5t152.5 -48.5q60 0 95 13v161h154v-274zM553 845q-25 -137 -164 -137
q-138 0 -159 137l95 5q11 -58 67 -58q54 0 66 58z" />
    <glyph glyph-name="gbreve" unicode="&#x11f;" horiz-adv-x="509" 
d="M479 -63q0 -87 -65 -145.5t-177 -58.5q-108 0 -167 41t-59 115q0 76 75 101q-62 23 -62 92t85 112q-39 37 -39 98q0 77 50.5 118.5t131.5 41.5q47 0 78 -11h150v-94h-60v-4q15 -21 15 -55q0 -75 -47 -116.5t-136 -41.5q-43 0 -80 16q-37 -12 -37 -34q0 -13 13.5 -19.5
t48.5 -10.5l242 -27q17 -19 28.5 -53t11.5 -65zM308 292q0 73 -56 73q-55 0 -55 -73q0 -71 55 -71q56 0 56 71zM346 -83q0 7 -3 19l-196 21q-19 -14 -19 -42q0 -36 29.5 -51.5t93.5 -15.5q42 0 68.5 18t26.5 51zM414 672q-8 -76 -49.5 -119.5t-114.5 -43.5q-146 0 -159 163
l90 5q9 -84 72 -84q59 0 71 84z" />
    <glyph glyph-name="Gdotaccent" unicode="&#x120;" horiz-adv-x="742" 
d="M674 31q-42 -17 -115.5 -29t-142.5 -12q-165 0 -268 91t-103 252q0 90 30.5 161t82.5 113.5t116 64.5t135 22q147 0 253 -52l-39 -143q-91 54 -205 54q-202 0 -202 -218q0 -107 56.5 -155.5t152.5 -48.5q60 0 95 13v161h154v-274zM452 779q0 -26 -18 -45t-44 -19t-44 19
t-18 45t18 44t44 18t44 -18t18 -44z" />
    <glyph glyph-name="gdotaccent" unicode="&#x121;" horiz-adv-x="509" 
d="M479 -63q0 -87 -65 -145.5t-177 -58.5q-108 0 -167 41t-59 115q0 76 75 101q-62 23 -62 92t85 112q-39 37 -39 98q0 77 50.5 118.5t131.5 41.5q47 0 78 -11h150v-94h-60v-4q15 -21 15 -55q0 -75 -47 -116.5t-136 -41.5q-43 0 -80 16q-37 -12 -37 -34q0 -13 13.5 -19.5
t48.5 -10.5l242 -27q17 -19 28.5 -53t11.5 -65zM308 292q0 73 -56 73q-55 0 -55 -73q0 -71 55 -71q56 0 56 71zM346 -83q0 7 -3 19l-196 21q-19 -14 -19 -42q0 -36 29.5 -51.5t93.5 -15.5q42 0 68.5 18t26.5 51zM315 605q0 -26 -18.5 -45t-44.5 -19t-44 19t-18 45t18 44.5
t44 18.5t44.5 -18.5t18.5 -44.5z" />
    <glyph glyph-name="Gcommaaccent" unicode="&#x122;" horiz-adv-x="742" 
d="M674 31q-42 -17 -115.5 -29t-142.5 -12q-165 0 -268 91t-103 252q0 90 30.5 161t82.5 113.5t116 64.5t135 22q147 0 253 -52l-39 -143q-91 54 -205 54q-202 0 -202 -218q0 -107 56.5 -155.5t152.5 -48.5q60 0 95 13v161h154v-274zM336 -35h125q-8 -42 -21 -74t-25 -51.5
t-41 -59.5l-83 18q35 85 45 167z" />
    <glyph glyph-name="gcommaaccent" unicode="&#x123;" horiz-adv-x="509" 
d="M479 -63q0 -87 -65 -145.5t-177 -58.5q-108 0 -167 41t-59 115q0 76 75 101q-62 23 -62 92t85 112q-39 37 -39 98q0 77 50.5 118.5t131.5 41.5q47 0 78 -11h150v-94h-60v-4q15 -21 15 -55q0 -75 -47 -116.5t-136 -41.5q-43 0 -80 16q-37 -12 -37 -34q0 -13 13.5 -19.5
t48.5 -10.5l242 -27q17 -19 28.5 -53t11.5 -65zM308 292q0 73 -56 73q-55 0 -55 -73q0 -71 55 -71q56 0 56 71zM346 -83q0 7 -3 19l-196 21q-19 -14 -19 -42q0 -36 29.5 -51.5t93.5 -15.5q42 0 68.5 18t26.5 51zM306 508h-126q8 42 21 74t25 51.5t41 59.5l84 -18
q-35 -85 -45 -167z" />
    <glyph glyph-name="Hcircumflex" unicode="&#x124;" horiz-adv-x="775" 
d="M693 0h-154v285h-303v-285h-154v682h154v-264h303v264h154v-682zM548 723l-93 -6l-68 64l-70 -64l-90 6l105 124h111z" />
    <glyph glyph-name="hcircumflex" unicode="&#x125;" horiz-adv-x="551" 
d="M486 0h-142v258q0 80 -72 80q-32 0 -63 -18v-320h-142v702l142 12v-314q45 52 119 52q72 0 115 -40.5t43 -128.5v-283zM437 743l-93 -6l-68 64l-70 -64l-90 6l105 124h111z" />
    <glyph glyph-name="Hbar" unicode="&#x126;" horiz-adv-x="775" 
d="M29 500v90h53v92h154v-92h303v92h154v-92h53v-90h-53v-500h-154v285h-303v-285h-154v500h-53zM236 418h303v82h-303v-82z" />
    <glyph glyph-name="hbar" unicode="&#x127;" horiz-adv-x="551" 
d="M8 521v90h59v91l142 12v-103h139v-90h-139v-121q45 52 119 52q72 0 115 -40.5t43 -128.5v-283h-142v258q0 80 -72 80q-32 0 -63 -18v-320h-142v521h-59z" />
    <glyph glyph-name="Imacron" unicode="&#x12a;" horiz-adv-x="318" 
d="M236 0h-154v682h154v-682zM295 733h-262v93h262v-93z" />
    <glyph glyph-name="imacron" unicode="&#x12b;" horiz-adv-x="276" 
d="M209 0h-142v436l142 12v-448zM271 558h-262v93h262v-93z" />
    <glyph glyph-name="Iogonek" unicode="&#x12e;" horiz-adv-x="318" 
d="M236 0q-84 -64 -84 -116q0 -29 35 -29q25 0 48 12l13 -65q-34 -18 -84 -18q-46 0 -72.5 20.5t-26.5 58.5q0 61 101 137h-84v682h154v-682z" />
    <glyph glyph-name="iogonek" unicode="&#x12f;" horiz-adv-x="276" 
d="M209 0q-84 -64 -84 -116q0 -29 35 -29q26 0 48 12l13 -65q-34 -18 -84 -18q-46 0 -72.5 20.5t-26.5 58.5q0 61 101 137h-72v436l142 12v-448zM201 606q0 -26 -18.5 -45t-44.5 -19t-44 19t-18 45t18 44t44 18t44.5 -18t18.5 -44z" />
    <glyph glyph-name="Idotaccent" unicode="&#x130;" horiz-adv-x="318" 
d="M236 0h-154v682h154v-682zM222 779q0 -26 -18 -45t-44 -19t-44 19t-18 45t18 44t44 18t44 -18t18 -44z" />
    <glyph glyph-name="dotlessi" unicode="&#x131;" horiz-adv-x="276" 
d="M209 0h-142v436l142 12v-448z" />
    <glyph glyph-name="Jcircumflex" unicode="&#x134;" horiz-adv-x="336" 
d="M254 44q0 -109 -73.5 -172t-189.5 -72l-27 138q72 7 104 36.5t32 85.5v622h154v-638zM336 723l-93 -6l-68 64l-70 -64l-90 6l105 124h111z" />
    <glyph glyph-name="jcircumflex" unicode="&#x135;" horiz-adv-x="269" 
d="M202 -47q0 -87 -49.5 -148t-144.5 -73l-50 94q54 17 78 47t24 84v479l142 12v-495zM308 502l-101 -6l-77 107l-76 -107l-99 6l112 192h127z" />
    <glyph glyph-name="Kcommaaccent" unicode="&#x136;" horiz-adv-x="690" 
d="M678 0l-174 -10l-194 302l-77 -86v-206h-151v682h151v-299l250 306l176 -7l-244 -273zM306 -35h125q-8 -42 -21 -74t-25 -51.5t-41 -59.5l-83 18q35 85 45 167z" />
    <glyph glyph-name="kcommaaccent" unicode="&#x137;" horiz-adv-x="548" 
d="M532 18l-152 -28q-69 114 -133 189l-38 -34v-145h-142v702l142 12v-434l170 172l148 -22l-179 -161q98 -115 184 -251zM236 -35h125q-8 -42 -21 -74t-25 -51.5t-41 -59.5l-83 18q35 85 45 167z" />
    <glyph glyph-name="Lacute" unicode="&#x139;" horiz-adv-x="557" 
d="M529 134l-11 -134h-436v682h154v-548h293zM319 835l-110 -115h-101l66 115h145z" />
    <glyph glyph-name="lacute" unicode="&#x13a;" horiz-adv-x="276" 
d="M209 0h-142v702l142 12v-714zM299 855l-110 -115h-101l66 115h145z" />
    <glyph glyph-name="Lcommaaccent" unicode="&#x13b;" horiz-adv-x="557" 
d="M529 134l-11 -134h-436v682h154v-548h293zM246 -35h125q-8 -42 -21 -74t-25 -51.5t-41 -59.5l-83 18q35 85 45 167z" />
    <glyph glyph-name="lcommaaccent" unicode="&#x13c;" horiz-adv-x="276" 
d="M209 0h-142v702l142 12v-714zM84 -35h125q-8 -42 -21 -74t-25 -51.5t-41 -59.5l-83 18q35 85 45 167z" />
    <glyph glyph-name="Lcaron" unicode="&#x13d;" horiz-adv-x="557" 
d="M529 134l-11 -134h-436v682h154v-548h293zM440 682l-68 -217h-85l19 217h134z" />
    <glyph glyph-name="lcaron" unicode="&#x13e;" horiz-adv-x="396" 
d="M209 0h-142v702l142 12v-714zM416 708l-68 -217h-85l19 217h134z" />
    <glyph glyph-name="Lslash" unicode="&#x141;" horiz-adv-x="557" 
d="M529 134l-11 -134h-436v243l-47 -22v97l47 22v342h154v-268l78 37v-96l-78 -38v-183h293z" />
    <glyph glyph-name="lslash" unicode="&#x142;" horiz-adv-x="276" 
d="M209 0h-142v288l-34 -18v90l34 18v324l142 12v-262l34 18v-89l-34 -18v-363z" />
    <glyph glyph-name="Nacute" unicode="&#x143;" horiz-adv-x="764" 
d="M682 2l-118 -14l-305 430q-23 33 -32 56h-7q2 -24 2 -52v-422h-140v682h163l260 -354q22 -30 32 -55h7q-2 24 -2 52v357h140v-680zM543 835l-110 -115h-101l66 115h145z" />
    <glyph glyph-name="nacute" unicode="&#x144;" horiz-adv-x="548" 
d="M483 0h-142v258q0 80 -69 80q-33 0 -63 -18v-320h-142v436l140 12v-47q55 51 117 51q159 0 159 -169v-283zM440 694l-118 -197h-98l66 197h150z" />
    <glyph glyph-name="Ncommaaccent" unicode="&#x145;" horiz-adv-x="764" 
d="M682 2l-118 -14l-305 430q-23 33 -32 56h-7q2 -24 2 -52v-422h-140v682h163l260 -354q22 -30 32 -55h7q-2 24 -2 52v357h140v-680zM328 -35h125q-8 -42 -21 -74t-25 -51.5t-41 -59.5l-83 18q35 85 45 167z" />
    <glyph glyph-name="ncommaaccent" unicode="&#x146;" horiz-adv-x="548" 
d="M483 0h-142v258q0 80 -69 80q-33 0 -63 -18v-320h-142v436l140 12v-47q55 51 117 51q159 0 159 -169v-283zM219 -35h125q-8 -42 -21 -74t-25 -51.5t-41 -59.5l-83 18q35 85 45 167z" />
    <glyph glyph-name="Ncaron" unicode="&#x147;" horiz-adv-x="764" 
d="M682 2l-118 -14l-305 430q-23 33 -32 56h-7q2 -24 2 -52v-422h-140v682h163l260 -354q22 -30 32 -55h7q-2 24 -2 52v357h140v-680zM542 843l-105 -124h-111l-105 124l93 6l68 -64l70 64z" />
    <glyph glyph-name="ncaron" unicode="&#x148;" horiz-adv-x="548" 
d="M483 0h-142v258q0 80 -69 80q-33 0 -63 -18v-320h-142v436l140 12v-47q55 51 117 51q159 0 159 -169v-283zM448 694l-112 -192h-127l-114 192l101 6l77 -107l76 107z" />
    <glyph glyph-name="Omacron" unicode="&#x14c;" horiz-adv-x="807" 
d="M762 354q0 -173 -106 -268.5t-264 -95.5q-141 0 -244 91t-103 246q0 172 103.5 269.5t263.5 97.5q148 0 249 -92t101 -248zM591 344q0 112 -52 166t-134 54t-135.5 -53.5t-53.5 -169.5q0 -112 50 -166.5t136 -54.5q87 0 138 59t51 165zM538 733h-262v93h262v-93z" />
    <glyph glyph-name="omacron" unicode="&#x14d;" horiz-adv-x="541" 
d="M508 230q0 -111 -70 -175.5t-177 -64.5q-98 0 -163 60t-65 160q0 110 68.5 176t176.5 66q102 0 166 -60t64 -162zM352 223q0 59 -22.5 87.5t-58.5 28.5q-82 0 -82 -116q0 -58 22 -87.5t58 -29.5q83 0 83 117zM402 558h-262v93h262v-93z" />
    <glyph glyph-name="Ohungarumlaut" unicode="&#x150;" horiz-adv-x="807" 
d="M762 354q0 -173 -106 -268.5t-264 -95.5q-141 0 -244 91t-103 246q0 172 103.5 269.5t263.5 97.5q148 0 249 -92t101 -248zM591 344q0 112 -52 166t-134 54t-135.5 -53.5t-53.5 -169.5q0 -112 50 -166.5t136 -54.5q87 0 138 59t51 165zM455 835l-100 -115h-93l56 115h137
zM615 835l-100 -115h-93l56 115h137z" />
    <glyph glyph-name="ohungarumlaut" unicode="&#x151;" horiz-adv-x="541" 
d="M508 230q0 -111 -70 -175.5t-177 -64.5q-98 0 -163 60t-65 160q0 110 68.5 176t176.5 66q102 0 166 -60t64 -162zM352 223q0 59 -22.5 87.5t-58.5 28.5q-82 0 -82 -116q0 -58 22 -87.5t58 -29.5q83 0 83 117zM467 694l-94 -196h-83l47 196h130zM306 694l-95 -196h-82
l46 196h131z" />
    <glyph glyph-name="OE" unicode="&#x152;" horiz-adv-x="1070" 
d="M1018 133l-10 -133h-427v76h-3q-64 -86 -208 -86q-83 0 -156 38.5t-121 117.5t-48 183q0 171 100.5 268t250.5 97q57 0 106 -20t76 -59h3v67h412l-11 -133h-260v-141h241v-130h-241v-145h296zM574 344q0 113 -45 166.5t-125 53.5q-82 0 -134.5 -53t-52.5 -170
q0 -112 46.5 -167t131.5 -55q179 0 179 225z" />
    <glyph glyph-name="oe" unicode="&#x153;" horiz-adv-x="792" 
d="M760 57q-70 -67 -189 -67q-98 0 -153 65q-54 -65 -158 -65q-99 0 -163 58.5t-64 161.5q0 113 67 177.5t176 64.5q96 0 147 -62q56 62 141 62q92 0 140 -50.5t48 -132.5q0 -47 -4 -68h-254q-1 -5 -1 -8q0 -44 28.5 -65.5t77.5 -21.5q64 0 120 44zM349 224q0 115 -78 115
q-38 0 -60.5 -24.5t-22.5 -91.5q0 -117 82 -117q79 0 79 118zM618 280v19q0 28 -15 45t-43 17q-62 0 -64 -81h122z" />
    <glyph glyph-name="Racute" unicode="&#x154;" horiz-adv-x="648" 
d="M657 1l-170 -12l-176 270h-80v-259h-149v682h91q130 6 164 6q103 0 165.5 -51t62.5 -145q0 -62 -31.5 -109t-86.5 -70v-7zM410 473q0 97 -111 97q-20 0 -68 -2v-196h69q50 0 80 28t30 73zM466 835l-110 -115h-101l66 115h145z" />
    <glyph glyph-name="racute" unicode="&#x155;" horiz-adv-x="383" 
d="M367 447l-10 -148q-29 8 -52 8q-61 0 -97 -38v-269h-141v436l139 12v-68q52 72 124 72q22 0 37 -5zM377 694l-118 -197h-98l66 197h150z" />
    <glyph glyph-name="Rcommaaccent" unicode="&#x156;" horiz-adv-x="648" 
d="M657 1l-170 -12l-176 270h-80v-259h-149v682h91q130 6 164 6q103 0 165.5 -51t62.5 -145q0 -62 -31.5 -109t-86.5 -70v-7zM410 473q0 97 -111 97q-20 0 -68 -2v-196h69q50 0 80 28t30 73zM291 -35h125q-8 -42 -21 -74t-25 -51.5t-41 -59.5l-83 18q35 85 45 167z" />
    <glyph glyph-name="rcommaaccent" unicode="&#x157;" horiz-adv-x="383" 
d="M367 447l-10 -148q-29 8 -52 8q-61 0 -97 -38v-269h-141v436l139 12v-68q52 72 124 72q22 0 37 -5zM84 -35h125q-8 -42 -21 -74t-25 -51.5t-41 -59.5l-83 18q35 85 45 167z" />
    <glyph glyph-name="Rcaron" unicode="&#x158;" horiz-adv-x="648" 
d="M657 1l-170 -12l-176 270h-80v-259h-149v682h91q130 6 164 6q103 0 165.5 -51t62.5 -145q0 -62 -31.5 -109t-86.5 -70v-7zM410 473q0 97 -111 97q-20 0 -68 -2v-196h69q50 0 80 28t30 73zM465 843l-105 -124h-111l-105 124l93 6l68 -64l70 64z" />
    <glyph glyph-name="rcaron" unicode="&#x159;" horiz-adv-x="383" 
d="M367 447l-10 -148q-29 8 -52 8q-61 0 -97 -38v-269h-141v436l139 12v-68q52 72 124 72q22 0 37 -5zM385 694l-112 -192h-127l-114 192l101 6l77 -107l76 107z" />
    <glyph glyph-name="Sacute" unicode="&#x15a;" horiz-adv-x="540" 
d="M499 196q0 -94 -72 -150t-179 -56q-138 0 -212 49l33 129q76 -50 167 -50q103 0 103 69q0 29 -30 52.5t-72.5 43.5t-85.5 43.5t-73 65.5t-30 98q0 93 66.5 148.5t175.5 55.5q108 0 180 -20l-23 -133q-88 25 -146 25q-102 0 -102 -66q0 -24 31 -45.5t75 -41.5t88 -45.5
t75 -69.5t31 -102zM431 835l-110 -115h-101l66 115h145z" />
    <glyph glyph-name="sacute" unicode="&#x15b;" horiz-adv-x="410" 
d="M374 140q0 -65 -50.5 -107.5t-138.5 -42.5q-100 0 -145 25l27 108q56 -26 123 -26q42 0 42 30q0 15 -19.5 25t-47.5 19.5t-56 23t-47.5 43.5t-19.5 73q0 62 55 101.5t137 39.5q68 0 120 -12l-22 -115q-52 19 -104 19q-47 0 -47 -24q0 -14 20 -24.5t48.5 -20t56.5 -23
t48 -42.5t20 -70zM370 694l-118 -197h-98l66 197h150z" />
    <glyph glyph-name="Scircumflex" unicode="&#x15c;" horiz-adv-x="540" 
d="M499 196q0 -94 -72 -150t-179 -56q-138 0 -212 49l33 129q76 -50 167 -50q103 0 103 69q0 29 -30 52.5t-72.5 43.5t-85.5 43.5t-73 65.5t-30 98q0 93 66.5 148.5t175.5 55.5q108 0 180 -20l-23 -133q-88 25 -146 25q-102 0 -102 -66q0 -24 31 -45.5t75 -41.5t88 -45.5
t75 -69.5t31 -102zM431 723l-93 -6l-68 64l-70 -64l-90 6l105 124h111z" />
    <glyph glyph-name="scircumflex" unicode="&#x15d;" horiz-adv-x="410" 
d="M374 140q0 -65 -50.5 -107.5t-138.5 -42.5q-100 0 -145 25l27 108q56 -26 123 -26q42 0 42 30q0 15 -19.5 25t-47.5 19.5t-56 23t-47.5 43.5t-19.5 73q0 62 55 101.5t137 39.5q68 0 120 -12l-22 -115q-52 19 -104 19q-47 0 -47 -24q0 -14 20 -24.5t48.5 -20t56.5 -23
t48 -42.5t20 -70zM381 502l-101 -6l-77 107l-76 -107l-99 6l112 192h127z" />
    <glyph glyph-name="Scedilla" unicode="&#x15e;" horiz-adv-x="540" 
d="M499 196q0 -94 -72 -150t-179 -56q-138 0 -212 49l33 129q76 -50 167 -50q103 0 103 69q0 29 -30 52.5t-72.5 43.5t-85.5 43.5t-73 65.5t-30 98q0 93 66.5 148.5t175.5 55.5q108 0 180 -20l-23 -133q-88 25 -146 25q-102 0 -102 -66q0 -24 31 -45.5t75 -41.5t88 -45.5
t75 -69.5t31 -102zM366 -127q0 -47 -36.5 -72t-80.5 -25q-46 0 -76 16l17 67q22 -11 47 -11q17 0 28 8t11 23q0 36 -51 40l11 53q54 0 92 -25t38 -74z" />
    <glyph glyph-name="scedilla" unicode="&#x15f;" horiz-adv-x="410" 
d="M374 140q0 -65 -50.5 -107.5t-138.5 -42.5q-100 0 -145 25l27 108q56 -26 123 -26q42 0 42 30q0 15 -19.5 25t-47.5 19.5t-56 23t-47.5 43.5t-19.5 73q0 62 55 101.5t137 39.5q68 0 120 -12l-22 -115q-52 19 -104 19q-47 0 -47 -24q0 -14 20 -24.5t48.5 -20t56.5 -23
t48 -42.5t20 -70zM279 -127q0 -47 -36.5 -72t-80.5 -25q-46 0 -76 16l17 67q22 -11 47 -11q17 0 28 8t11 23q0 36 -51 40l11 53q54 0 92 -25t38 -74z" />
    <glyph glyph-name="Scaron" unicode="&#x160;" horiz-adv-x="540" 
d="M499 196q0 -94 -72 -150t-179 -56q-138 0 -212 49l33 129q76 -50 167 -50q103 0 103 69q0 29 -30 52.5t-72.5 43.5t-85.5 43.5t-73 65.5t-30 98q0 93 66.5 148.5t175.5 55.5q108 0 180 -20l-23 -133q-88 25 -146 25q-102 0 -102 -66q0 -24 31 -45.5t75 -41.5t88 -45.5
t75 -69.5t31 -102zM430 843l-105 -124h-111l-105 124l93 6l68 -64l70 64z" />
    <glyph glyph-name="scaron" unicode="&#x161;" horiz-adv-x="410" 
d="M374 140q0 -65 -50.5 -107.5t-138.5 -42.5q-100 0 -145 25l27 108q56 -26 123 -26q42 0 42 30q0 15 -19.5 25t-47.5 19.5t-56 23t-47.5 43.5t-19.5 73q0 62 55 101.5t137 39.5q68 0 120 -12l-22 -115q-52 19 -104 19q-47 0 -47 -24q0 -14 20 -24.5t48.5 -20t56.5 -23
t48 -42.5t20 -70zM378 694l-112 -192h-127l-114 192l101 6l77 -107l76 107z" />
    <glyph glyph-name="Tcommaaccent" unicode="&#x162;" horiz-adv-x="588" 
d="M573 682l-8 -133h-194v-549h-154v549h-195l-7 133h558zM394 -127q0 -47 -36.5 -72t-80.5 -25q-46 0 -76 16l17 67q22 -11 47 -11q17 0 28 8t11 23q0 36 -51 40l11 53q54 0 92 -25t38 -74z" />
    <glyph glyph-name="tcommaaccent" unicode="&#x163;" horiz-adv-x="374" 
d="M352 13q-46 -23 -116 -23q-149 0 -149 153v183h-67v115h67v98l142 17v-115h109v-115h-109v-150q0 -36 12.5 -51t41.5 -15q23 0 51 10zM292 -127q0 -47 -36.5 -72t-80.5 -25q-46 0 -76 16l17 67q22 -11 47 -11q17 0 28 8t11 23q0 36 -51 40l11 53q54 0 92 -25t38 -74z" />
    <glyph glyph-name="Tcaron" unicode="&#x164;" horiz-adv-x="588" 
d="M573 682l-8 -133h-194v-549h-154v549h-195l-7 133h558zM454 843l-105 -124h-111l-105 124l93 6l68 -64l70 64z" />
    <glyph glyph-name="tcaron" unicode="&#x165;" horiz-adv-x="414" 
d="M352 13q-46 -23 -116 -23q-149 0 -149 153v183h-67v115h67v98l142 17v-115h109v-115h-109v-150q0 -36 12.5 -51t41.5 -15q23 0 51 10zM439 708l-68 -217h-85l19 217h134z" />
    <glyph glyph-name="Umacron" unicode="&#x16a;" horiz-adv-x="729" 
d="M648 236q0 -108 -73 -177t-206 -69q-146 0 -217 61t-71 185v446h154v-412q0 -76 27 -109.5t108 -33.5q75 0 107 35t32 111v409h139v-446zM505 733h-262v93h262v-93z" />
    <glyph glyph-name="umacron" unicode="&#x16b;" horiz-adv-x="551" 
d="M493 1l-143 -10l-5 47q-71 -48 -131 -48q-149 0 -149 165v281l142 12v-274q0 -61 61 -61q38 0 72 29v294l142 12v-338q0 -47 11 -109zM403 558h-262v93h262v-93z" />
    <glyph glyph-name="Ubreve" unicode="&#x16c;" horiz-adv-x="729" 
d="M648 236q0 -108 -73 -177t-206 -69q-146 0 -217 61t-71 185v446h154v-412q0 -76 27 -109.5t108 -33.5q75 0 107 35t32 111v409h139v-446zM533 845q-25 -137 -164 -137q-138 0 -159 137l95 5q11 -58 67 -58q54 0 66 58z" />
    <glyph glyph-name="ubreve" unicode="&#x16d;" horiz-adv-x="551" 
d="M493 1l-143 -10l-5 47q-71 -48 -131 -48q-149 0 -149 165v281l142 12v-274q0 -61 61 -61q38 0 72 29v294l142 12v-338q0 -47 11 -109zM434 672q-8 -76 -49.5 -119.5t-114.5 -43.5q-146 0 -159 163l90 5q9 -84 72 -84q59 0 71 84z" />
    <glyph glyph-name="Uring" unicode="&#x16e;" horiz-adv-x="729" 
d="M648 236q0 -108 -73 -177t-206 -69q-146 0 -217 61t-71 185v446h154v-412q0 -76 27 -109.5t108 -33.5q75 0 107 35t32 111v409h139v-446zM483 789q0 -47 -33.5 -74.5t-84.5 -27.5q-46 0 -77.5 26t-31.5 68q0 46 33 74.5t84 28.5q48 0 79 -26.5t31 -68.5zM402 787
q0 36 -32 36q-34 0 -34 -37q0 -17 9 -26.5t24 -9.5q33 0 33 37z" />
    <glyph glyph-name="uring" unicode="&#x16f;" horiz-adv-x="551" 
d="M493 1l-143 -10l-5 47q-71 -48 -131 -48q-149 0 -149 165v281l142 12v-274q0 -61 61 -61q38 0 72 29v294l142 12v-338q0 -47 11 -109zM387 598q0 -47 -33.5 -74.5t-84.5 -27.5q-46 0 -77.5 26t-31.5 68q0 46 33 74.5t84 28.5q48 0 79 -26.5t31 -68.5zM306 596
q0 36 -32 36q-34 0 -34 -37q0 -17 9 -26.5t24 -9.5q33 0 33 37z" />
    <glyph glyph-name="Uhungarumlaut" unicode="&#x170;" horiz-adv-x="729" 
d="M648 236q0 -108 -73 -177t-206 -69q-146 0 -217 61t-71 185v446h154v-412q0 -76 27 -109.5t108 -33.5q75 0 107 35t32 111v409h139v-446zM422 835l-100 -115h-93l56 115h137zM582 835l-100 -115h-93l56 115h137z" />
    <glyph glyph-name="uhungarumlaut" unicode="&#x171;" horiz-adv-x="551" 
d="M493 1l-143 -10l-5 47q-71 -48 -131 -48q-149 0 -149 165v281l142 12v-274q0 -61 61 -61q38 0 72 29v294l142 12v-338q0 -47 11 -109zM468 694l-94 -196h-83l47 196h130zM307 694l-95 -196h-82l46 196h131z" />
    <glyph glyph-name="Uogonek" unicode="&#x172;" horiz-adv-x="729" 
d="M648 682v-446q0 -75 -33 -128t-84 -81q-80 -68 -80 -133q0 -39 35 -39q26 0 48 12l13 -65q-34 -18 -84 -18q-99 0 -99 88q0 64 76 124q-33 -6 -71 -6q-146 0 -217 61t-71 185v446h154v-412q0 -76 27 -109.5t108 -33.5q75 0 107 35t32 111v409h139z" />
    <glyph glyph-name="uogonek" unicode="&#x173;" horiz-adv-x="551" 
d="M493 1l-26 -2q-70 -62 -70 -110q0 -34 35 -34q26 0 48 12l13 -65q-34 -18 -84 -18q-46 0 -72.5 21t-26.5 62q0 62 85 127l-45 -3l-5 47q-71 -48 -131 -48q-149 0 -149 165v281l142 12v-274q0 -61 61 -61q38 0 72 29v294l142 12v-338q0 -47 11 -109z" />
    <glyph glyph-name="Ydieresis" unicode="&#x178;" horiz-adv-x="658" 
d="M647 682l-231 -425v-257h-154v257l-246 417l178 13l128 -246q14 -25 18 -48h10q5 25 18 48l125 241h154zM504 779q0 -26 -18 -45t-44 -19t-44 19t-18 45t18 44t44 18t44 -18t18 -44zM319 779q0 -26 -18 -45t-44 -19t-44 19t-18 45t18 44t44 18t44 -18t18 -44z" />
    <glyph glyph-name="Zacute" unicode="&#x179;" horiz-adv-x="687" 
d="M619 0h-554l-12 126l377 423h-337l-5 133h523l15 -117l-385 -432h368zM509 835l-110 -115h-101l66 115h145z" />
    <glyph glyph-name="zacute" unicode="&#x17a;" horiz-adv-x="471" 
d="M429 0h-391l-11 102l232 222h-203l-9 117h370l12 -104l-230 -220h220zM402 694l-118 -197h-98l66 197h150z" />
    <glyph glyph-name="Zdotaccent" unicode="&#x17b;" horiz-adv-x="687" 
d="M619 0h-554l-12 126l377 423h-337l-5 133h523l15 -117l-385 -432h368zM410 779q0 -26 -18 -45t-44 -19t-44 19t-18 45t18 44t44 18t44 -18t18 -44z" />
    <glyph glyph-name="zdotaccent" unicode="&#x17c;" horiz-adv-x="471" 
d="M429 0h-391l-11 102l232 222h-203l-9 117h370l12 -104l-230 -220h220zM298 605q0 -26 -18.5 -45t-44.5 -19t-44 19t-18 45t18 44.5t44 18.5t44.5 -18.5t18.5 -44.5z" />
    <glyph glyph-name="Zcaron" unicode="&#x17d;" horiz-adv-x="687" 
d="M619 0h-554l-12 126l377 423h-337l-5 133h523l15 -117l-385 -432h368zM508 843l-105 -124h-111l-105 124l93 6l68 -64l70 64z" />
    <glyph glyph-name="zcaron" unicode="&#x17e;" horiz-adv-x="471" 
d="M429 0h-391l-11 102l232 222h-203l-9 117h370l12 -104l-230 -220h220zM410 694l-112 -192h-127l-114 192l101 6l77 -107l76 107z" />
    <glyph glyph-name="florin" unicode="&#x192;" 
d="M469 269h-145v-150q0 -59 -18 -104.5t-47.5 -71t-62 -38.5t-65.5 -13q-29 0 -53 4l-6 123q7 -1 30 -1q42 0 61 19t19 59v173h-131v115h131v83q0 110 58.5 168.5t133.5 58.5q29 0 54 -4l6 -123q-9 1 -30 1q-42 0 -61 -19t-19 -59v-106h145v-115z" />
    <glyph glyph-name="Scommaaccent" unicode="&#x218;" horiz-adv-x="540" 
d="M499 196q0 -94 -72 -150t-179 -56q-138 0 -212 49l33 129q76 -50 167 -50q103 0 103 69q0 29 -30 52.5t-72.5 43.5t-85.5 43.5t-73 65.5t-30 98q0 93 66.5 148.5t175.5 55.5q108 0 180 -20l-23 -133q-88 25 -146 25q-102 0 -102 -66q0 -24 31 -45.5t75 -41.5t88 -45.5
t75 -69.5t31 -102zM194 -35h125q-8 -42 -21 -74t-25 -51.5t-41 -59.5l-83 18q35 85 45 167z" />
    <glyph glyph-name="scommaaccent" unicode="&#x219;" horiz-adv-x="410" 
d="M374 140q0 -65 -50.5 -107.5t-138.5 -42.5q-100 0 -145 25l27 108q56 -26 123 -26q42 0 42 30q0 15 -19.5 25t-47.5 19.5t-56 23t-47.5 43.5t-19.5 73q0 62 55 101.5t137 39.5q68 0 120 -12l-22 -115q-52 19 -104 19q-47 0 -47 -24q0 -14 20 -24.5t48.5 -20t56.5 -23
t48 -42.5t20 -70zM125 -35h125q-8 -42 -21 -74t-25 -51.5t-41 -59.5l-83 18q35 85 45 167z" />
    <glyph glyph-name="uni021A" unicode="&#x21a;" horiz-adv-x="588" 
d="M573 682l-8 -133h-194v-549h-154v549h-195l-7 133h558zM240 -35h125q-8 -42 -21 -74t-25 -51.5t-41 -59.5l-83 18q35 85 45 167z" />
    <glyph glyph-name="uni021B" unicode="&#x21b;" horiz-adv-x="374" 
d="M352 13q-46 -23 -116 -23q-149 0 -149 153v183h-67v115h67v98l142 17v-115h109v-115h-109v-150q0 -36 12.5 -51t41.5 -15q23 0 51 10zM138 -35h125q-8 -42 -21 -74t-25 -51.5t-41 -59.5l-83 18q35 85 45 167z" />
    <glyph glyph-name="uni0237" unicode="&#x237;" horiz-adv-x="269" 
d="M202 -47q0 -87 -49.5 -148t-144.5 -73l-50 94q54 17 78 47t24 84v479l142 12v-495z" />
    <glyph glyph-name="uni02BB" unicode="&#x2bb;" horiz-adv-x="223" 
d="M12 493q14 74 32.5 115t75.5 118l103 -10q-38 -81 -51 -120.5t-22 -102.5h-138z" />
    <glyph glyph-name="afii57929" unicode="&#x2bc;" horiz-adv-x="223" 
d="M211 720q-14 -74 -32.5 -115t-75.5 -118l-103 10q38 81 51 120.5t22 102.5h138z" />
    <glyph glyph-name="circumflex" unicode="&#x2c6;" horiz-adv-x="500" 
d="M418 502l-101 -6l-77 107l-76 -107l-99 6l112 192h127z" />
    <glyph glyph-name="caron" unicode="&#x2c7;" horiz-adv-x="500" 
d="M427 694l-112 -192h-127l-114 192l101 6l77 -107l76 107z" />
    <glyph glyph-name="breve" unicode="&#x2d8;" horiz-adv-x="500" 
d="M410 672q-8 -76 -49.5 -119.5t-114.5 -43.5q-146 0 -159 163l90 5q9 -84 72 -84q59 0 71 84z" />
    <glyph glyph-name="dotaccent" unicode="&#x2d9;" horiz-adv-x="500" 
d="M312 605q0 -26 -18.5 -45t-44.5 -19t-44 19t-18 45t18 44.5t44 18.5t44.5 -18.5t18.5 -44.5z" />
    <glyph glyph-name="ring" unicode="&#x2da;" horiz-adv-x="500" 
d="M363 598q0 -47 -33.5 -74.5t-84.5 -27.5q-46 0 -77.5 26t-31.5 68q0 46 33 74.5t84 28.5q48 0 79 -26.5t31 -68.5zM282 596q0 36 -32 36q-34 0 -34 -37q0 -17 9 -26.5t24 -9.5q33 0 33 37z" />
    <glyph glyph-name="ogonek" unicode="&#x2db;" horiz-adv-x="500" 
d="M383 0q-80 -45 -105.5 -70.5t-25.5 -45.5q0 -29 35 -29q25 0 48 12l13 -65q-34 -18 -84 -18q-46 0 -72.5 20.5t-26.5 58.5q0 76 136 137h82z" />
    <glyph glyph-name="tilde" unicode="&#x2dc;" horiz-adv-x="500" 
d="M416 641q-16 -70 -38 -97t-63 -27q-25 0 -71 23t-56 23q-19 0 -27.5 -8t-19.5 -38l-72 20q19 73 41 98.5t63 25.5q26 0 69.5 -23t55.5 -23q19 0 27.5 8.5t19.5 37.5z" />
    <glyph glyph-name="hungarumlaut" unicode="&#x2dd;" horiz-adv-x="500" 
d="M446 694l-94 -196h-83l47 196h130zM285 694l-95 -196h-82l46 196h131z" />
    <glyph glyph-name="gravecomb" unicode="&#x300;" horiz-adv-x="1" 
d="M-191 497h-98l-118 197h150z" />
    <glyph glyph-name="acutecomb" unicode="&#x301;" horiz-adv-x="1" 
d="M-93 694l-118 -197h-98l66 197h150z" />
    <glyph glyph-name="uni0302" unicode="&#x302;" horiz-adv-x="1" 
d="M-82 502l-101 -6l-77 107l-76 -107l-99 6l112 192h127z" />
    <glyph glyph-name="tildecomb" unicode="&#x303;" horiz-adv-x="1" 
d="M-84 641q-16 -70 -38 -97t-63 -27q-25 0 -71 23t-56 23q-19 0 -27.5 -8t-19.5 -38l-72 20q19 73 41 98.5t63 25.5q27 0 70.5 -23t54.5 -23q19 0 27.5 8.5t19.5 37.5z" />
    <glyph glyph-name="uni0304" unicode="&#x304;" horiz-adv-x="1" 
d="M-119 558h-262v93h262v-93z" />
    <glyph glyph-name="uni0306" unicode="&#x306;" horiz-adv-x="1" 
d="M-90 672q-8 -76 -49.5 -119.5t-114.5 -43.5q-146 0 -159 163l90 5q9 -84 72 -84q59 0 71 84z" />
    <glyph glyph-name="uni0307" unicode="&#x307;" horiz-adv-x="1" 
d="M-188 605q0 -26 -18.5 -45t-44.5 -19t-44 19t-18 45t18 44.5t44 18.5t44.5 -18.5t18.5 -44.5z" />
    <glyph glyph-name="uni0308" unicode="&#x308;" horiz-adv-x="1" 
d="M-95 606q0 -26 -18 -45t-44 -19t-44 19t-18 45t18 44t44 18t44 -18t18 -44zM-280 606q0 -26 -18 -45t-44 -19t-44 19t-18 45t18 44t44 18t44 -18t18 -44z" />
    <glyph glyph-name="uni030A" unicode="&#x30a;" horiz-adv-x="1" 
d="M-137 598q0 -47 -33.5 -74.5t-84.5 -27.5q-46 0 -77.5 26t-31.5 68q0 46 33 74.5t84 28.5q48 0 79 -26.5t31 -68.5zM-218 596q0 36 -32 36q-34 0 -34 -37q0 -17 9 -26.5t24 -9.5q33 0 33 37z" />
    <glyph glyph-name="uni030B" unicode="&#x30b;" horiz-adv-x="1" 
d="M-54 694l-94 -196h-83l47 196h130zM-215 694l-95 -196h-82l46 196h131z" />
    <glyph glyph-name="uni030C" unicode="&#x30c;" horiz-adv-x="1" 
d="M-73 694l-112 -192h-127l-114 192l101 6l77 -107l76 107z" />
    <glyph glyph-name="uni0312" unicode="&#x312;" horiz-adv-x="1" 
d="M-196 508h-126q8 42 21 74t25 51.5t41 59.5l84 -18q-35 -85 -45 -167z" />
    <glyph glyph-name="uni0326" unicode="&#x326;" horiz-adv-x="1" 
d="M-294 -35h125q-8 -42 -21 -74t-25 -51.5t-41 -59.5l-83 18q35 85 45 167z" />
    <glyph glyph-name="uni0327" unicode="&#x327;" horiz-adv-x="1" 
d="M-155 -127q0 -47 -36.5 -72t-80.5 -25q-46 0 -76 16l17 67q22 -11 47 -11q17 0 28 8t11 23q0 36 -51 40l11 53q54 0 92 -25t38 -74z" />
    <glyph glyph-name="uni0328" unicode="&#x328;" horiz-adv-x="1" 
d="M-117 0q-80 -45 -105.5 -70.5t-25.5 -45.5q0 -29 35 -29q25 0 48 12l13 -65q-34 -18 -84 -18q-46 0 -72.5 20.5t-26.5 58.5q0 76 136 137h82z" />
    <glyph glyph-name="uni0394" unicode="&#x394;" horiz-adv-x="718" 
d="M643 0h-568v137l207 545h151l210 -545v-137zM483 140l-130 358h-9l-123 -358h262z" />
    <glyph glyph-name="uni03A9" unicode="&#x3a9;" horiz-adv-x="786" 
d="M741 133l-7 -133h-296l-5 129q53 0 94.5 67t41.5 169q0 100 -51 144.5t-129 44.5q-172 0 -172 -189q0 -107 42.5 -171.5t93.5 -64.5l-5 -129h-296l-7 133h158q-66 31 -107 99t-41 158q0 131 92.5 217.5t244.5 86.5q157 0 248.5 -85t91.5 -215q0 -92 -39.5 -159.5
t-108.5 -101.5h157z" />
    <glyph glyph-name="uni03BC" unicode="&#x3bc;" horiz-adv-x="540" 
d="M491 0l-142 -10l-5 48q-56 -44 -112 -44q-15 0 -31 2v-253h-141v693l142 12v-274q0 -61 61 -61q42 0 76 29v294l142 12v-353q0 -41 10 -95z" />
    <glyph glyph-name="pi" unicode="&#x3c0;" horiz-adv-x="589" 
d="M561 311h-75l-52 -171q-7 -21 -7 -38q0 -20 19 -20q16 0 34 7l14 -83q-34 -16 -69 -16q-92 0 -92 92q0 29 12 67l51 162h-185v-311h-89v311h-82v130h521v-130z" />
    <glyph glyph-name="uni2007" unicode="&#x2007;" 
 />
    <glyph glyph-name="uni2008" unicode="&#x2008;" horiz-adv-x="250" 
 />
    <glyph glyph-name="uni200B" unicode="&#x200b;" horiz-adv-x="0" 
 />
    <glyph glyph-name="endash" unicode="&#x2013;" horiz-adv-x="500" 
d="M467 192h-434v99h434v-99z" />
    <glyph glyph-name="emdash" unicode="&#x2014;" horiz-adv-x="1000" 
d="M967 192h-934v99h934v-99z" />
    <glyph glyph-name="quoteleft" unicode="&#x2018;" horiz-adv-x="223" 
d="M12 493q14 74 32.5 115t75.5 118l103 -10q-38 -81 -51 -120.5t-22 -102.5h-138z" />
    <glyph glyph-name="quoteright" unicode="&#x2019;" horiz-adv-x="223" 
d="M211 720q-14 -74 -32.5 -115t-75.5 -118l-103 10q38 81 51 120.5t22 102.5h138z" />
    <glyph glyph-name="quotesinglbase" unicode="&#x201a;" horiz-adv-x="223" 
d="M211 122q-14 -74 -32.5 -115t-75.5 -118l-103 10q38 81 51 120.5t22 102.5h138z" />
    <glyph glyph-name="quotedblleft" unicode="&#x201c;" horiz-adv-x="417" 
d="M12 493q14 74 32.5 115t75.5 118l103 -10q-38 -81 -51 -120.5t-22 -102.5h-138zM206 493q14 74 32.5 115t75.5 118l103 -10q-38 -81 -51 -120.5t-22 -102.5h-138z" />
    <glyph glyph-name="quotedblright" unicode="&#x201d;" horiz-adv-x="417" 
d="M211 720q-14 -74 -32.5 -115t-75.5 -118l-103 10q38 81 51 120.5t22 102.5h138zM405 720q-14 -74 -32.5 -115t-75.5 -118l-103 10q38 81 51 120.5t22 102.5h138z" />
    <glyph glyph-name="quotedblbase" unicode="&#x201e;" horiz-adv-x="417" 
d="M211 122q-14 -74 -32.5 -115t-75.5 -118l-103 10q38 81 51 120.5t22 102.5h138zM405 122q-14 -74 -32.5 -115t-75.5 -118l-103 10q38 81 51 120.5t22 102.5h138z" />
    <glyph glyph-name="dagger" unicode="&#x2020;" 
d="M473 184h-147v-368h-133v368h-147v130h147v184h133v-184h147v-130z" />
    <glyph glyph-name="daggerdbl" unicode="&#x2021;" 
d="M473 -27h-147v-157h-133v157h-147v130h147v108h-147v130h147v157h133v-157h147v-130h-147v-108h147v-130z" />
    <glyph glyph-name="bullet" unicode="&#x2022;" horiz-adv-x="350" 
d="M310 223q0 -55 -39.5 -94.5t-95.5 -39.5t-95.5 39.5t-39.5 94.5t40 95t95 40t95 -40t40 -95z" />
    <glyph glyph-name="ellipsis" unicode="&#x2026;" horiz-adv-x="680" 
d="M199 62q0 -31 -21 -51.5t-53 -20.5t-53.5 20.5t-21.5 51.5q0 32 22 53.5t53 21.5t52.5 -21.5t21.5 -53.5zM629 62q0 -31 -21.5 -51.5t-53.5 -20.5t-53.5 20.5t-21.5 51.5q0 32 21.5 53.5t53.5 21.5t53.5 -21.5t21.5 -53.5zM414 62q0 -31 -21.5 -51.5t-53.5 -20.5
t-53 20.5t-21 51.5q0 32 21.5 53.5t52.5 21.5t53 -21.5t22 -53.5z" />
    <glyph glyph-name="perthousand" unicode="&#x2030;" horiz-adv-x="1078" 
d="M335 526q0 -78 -42 -123.5t-112 -45.5q-71 0 -111 44t-40 125q0 78 42.5 123t113.5 45q70 0 109.5 -44.5t39.5 -123.5zM612 682l-429 -682h-76l430 682h75zM230 526q0 85 -48 85q-47 0 -47 -85q0 -86 47 -86q48 0 48 86zM695 159q0 -78 -42 -123.5t-112 -45.5
q-71 0 -111 44t-40 125q0 78 42.5 123t113.5 45q70 0 109.5 -44.5t39.5 -123.5zM590 159q0 85 -48 85q-47 0 -47 -85q0 -86 47 -86q48 0 48 86zM1045 159q0 -78 -42 -123.5t-112 -45.5q-71 0 -111 44t-40 125q0 78 42.5 123t113.5 45q70 0 109.5 -44.5t39.5 -123.5zM940 159
q0 85 -48 85q-47 0 -47 -85q0 -86 47 -86q48 0 48 86z" />
    <glyph glyph-name="minute" unicode="&#x2032;" horiz-adv-x="223" 
d="M211 690q-14 -74 -32.5 -115t-75.5 -118l-103 10q38 81 51 120.5t22 102.5h138z" />
    <glyph glyph-name="second" unicode="&#x2033;" horiz-adv-x="417" 
d="M211 690q-14 -74 -32.5 -115t-75.5 -118l-103 10q38 81 51 120.5t22 102.5h138zM405 690q-14 -74 -32.5 -115t-75.5 -118l-103 10q38 81 51 120.5t22 102.5h138z" />
    <glyph glyph-name="guilsinglleft" unicode="&#x2039;" horiz-adv-x="293" 
d="M281 27l-101 -24l-160 206v36l160 184l101 -24l-137 -175z" />
    <glyph glyph-name="guilsinglright" unicode="&#x203a;" horiz-adv-x="293" 
d="M273 187l-160 -184l-101 24l137 175l-137 203l101 24l160 -206v-36z" />
    <glyph glyph-name="fraction" unicode="&#x2044;" horiz-adv-x="164" 
d="M314 682l-344 -682h-114l345 682h113z" />
    <glyph glyph-name="uni2070" unicode="&#x2070;" horiz-adv-x="430" 
d="M384 472q0 -109 -46.5 -166t-126.5 -57q-79 0 -122 55t-43 168q0 108 46.5 165t125.5 57q78 0 122 -56.5t44 -165.5zM270 474q0 76 -11.5 101.5t-43.5 25.5t-44.5 -28.5t-12.5 -98.5q0 -72 11.5 -100.5t45.5 -28.5q32 0 43.5 32t11.5 97z" />
    <glyph glyph-name="uni2074" unicode="&#x2074;" horiz-adv-x="430" 
d="M382 345h-51v-89h-104v89h-177l-9 102l186 246l108 -6l-200 -259h92v93h104v-93h51v-83z" />
    <glyph glyph-name="uni2075" unicode="&#x2075;" horiz-adv-x="430" 
d="M363 395q0 -146 -274 -146l-10 94q91 0 129 12.5t38 40.5q0 24 -23 34t-78 10q-41 0 -65 -2l28 248h247l-10 -94h-154l-10 -75q94 0 138 -29t44 -93z" />
    <glyph glyph-name="uni2076" unicode="&#x2076;" horiz-adv-x="430" 
d="M375 392q0 -65 -43.5 -104t-120.5 -39q-78 0 -119 44t-41 130q0 132 85 201.5t217 69.5l14 -94q-168 0 -201 -98q30 23 77 23q59 0 95.5 -34t36.5 -99zM266 391q0 54 -56 54t-56 -54q0 -61 54 -61q58 0 58 61z" />
    <glyph glyph-name="uni2077" unicode="&#x2077;" horiz-adv-x="430" 
d="M382 590l-215 -338l-106 8l210 333h-197l-12 93h320v-96z" />
    <glyph glyph-name="uni2078" unicode="&#x2078;" horiz-adv-x="430" 
d="M378 376q0 -58 -45 -92.5t-125 -34.5q-81 0 -119 29.5t-38 79.5q0 72 78 113q-67 36 -67 104q0 52 38 85.5t119 33.5q147 0 147 -101q0 -62 -72 -103q45 -22 64.5 -49t19.5 -65zM274 577q0 37 -57 37q-24 0 -39.5 -10t-15.5 -27t15 -29.5t55 -29.5q18 9 30 25.5t12 33.5z
M271 373q0 21 -18 36.5t-63 32.5q-17 -9 -29 -27.5t-12 -36.5q0 -45 60 -45q28 0 45 10.5t17 29.5z" />
    <glyph glyph-name="uni2079" unicode="&#x2079;" horiz-adv-x="430" 
d="M60 551q0 65 43.5 104t120.5 39q78 0 119 -44t41 -130q0 -132 -85 -201.5t-217 -69.5l-14 94q168 0 201 98q-30 -23 -77 -23q-59 0 -95.5 34t-36.5 99zM169 552q0 -54 56 -54t56 54q0 61 -54 61q-58 0 -58 -61z" />
    <glyph glyph-name="uni207A" unicode="&#x207a;" horiz-adv-x="352" 
d="M302 408h-88v-101h-76v101h-88v71h88v100h76v-100h88v-71z" />
    <glyph glyph-name="uni207B" unicode="&#x207b;" horiz-adv-x="337" 
d="M287 408h-237v72h237v-72z" />
    <glyph glyph-name="uni207C" unicode="&#x207c;" horiz-adv-x="337" 
d="M287 480h-237v72h237v-72zM287 336h-237v72h237v-72z" />
    <glyph glyph-name="uni207D" unicode="&#x207d;" horiz-adv-x="280" 
d="M243 250l-23 -57q-84 16 -126.5 87t-42.5 175q0 105 47.5 172t121.5 88l22 -55q-44 -17 -68.5 -62t-24.5 -143q0 -104 23.5 -147.5t70.5 -57.5z" />
    <glyph glyph-name="uni207E" unicode="&#x207e;" horiz-adv-x="280" 
d="M37 657l23 57q84 -16 126.5 -87t42.5 -175q0 -105 -47.5 -172t-121.5 -88l-22 55q44 17 68.5 62t24.5 143q0 104 -23.5 147.5t-70.5 57.5z" />
    <glyph glyph-name="uni2080" unicode="&#x2080;" horiz-adv-x="430" 
d="M384 -40q0 -109 -46.5 -166t-126.5 -57q-79 0 -122 55t-43 168q0 108 46.5 165t125.5 57q78 0 122 -56.5t44 -165.5zM270 -38q0 76 -11.5 101.5t-43.5 25.5t-44.5 -28.5t-12.5 -98.5q0 -72 11.5 -100.5t45.5 -28.5q32 0 43.5 32t11.5 97z" />
    <glyph glyph-name="uni2081" unicode="&#x2081;" horiz-adv-x="430" 
d="M373 -257h-301v94h104v243l-90 -18l-9 86l122 26h88v-337h86v-94z" />
    <glyph glyph-name="uni2082" unicode="&#x2082;" horiz-adv-x="430" 
d="M375 -163l-9 -94h-318v86q114 75 156 117.5t42 85.5q0 26 -18 42t-50 16q-50 0 -100 -22l-16 88q53 26 136 26q72 0 116 -35t44 -98q0 -55 -33.5 -105t-125.5 -107h176z" />
    <glyph glyph-name="uni2083" unicode="&#x2083;" horiz-adv-x="430" 
d="M370 -121q0 -142 -292 -142l-9 93q94 0 137 11t43 39q0 24 -17 30.5t-63 6.5h-65v92h53q43 0 63 8.5t20 32.5q0 41 -55 41q-60 0 -100 -20l-17 91q49 20 132 20q69 0 108 -26t39 -76q0 -73 -77 -100v-5q100 -11 100 -96z" />
    <glyph glyph-name="uni2084" unicode="&#x2084;" horiz-adv-x="430" 
d="M382 -168h-51v-89h-104v89h-177l-9 102l186 246l108 -6l-200 -259h92v93h104v-93h51v-83z" />
    <glyph glyph-name="uni2085" unicode="&#x2085;" horiz-adv-x="430" 
d="M363 -117q0 -146 -274 -146l-10 94q91 0 129 12.5t38 40.5q0 24 -23 34t-78 10q-41 0 -65 -2l28 248h247l-10 -94h-154l-10 -75q94 0 138 -29t44 -93z" />
    <glyph glyph-name="uni2086" unicode="&#x2086;" horiz-adv-x="430" 
d="M375 -120q0 -65 -43.5 -104t-120.5 -39q-78 0 -119 44t-41 130q0 132 85 201.5t217 69.5l14 -94q-168 0 -201 -98q30 23 77 23q59 0 95.5 -34t36.5 -99zM266 -121q0 54 -56 54t-56 -54q0 -61 54 -61q58 0 58 61z" />
    <glyph glyph-name="uni2087" unicode="&#x2087;" horiz-adv-x="430" 
d="M382 78l-215 -338l-106 8l210 333h-197l-12 93h320v-96z" />
    <glyph glyph-name="uni2088" unicode="&#x2088;" horiz-adv-x="430" 
d="M378 -136q0 -58 -45 -92.5t-125 -34.5q-81 0 -119 29.5t-38 79.5q0 72 78 113q-67 36 -67 104q0 52 38 85.5t119 33.5q147 0 147 -101q0 -62 -72 -103q45 -22 64.5 -49t19.5 -65zM274 65q0 37 -57 37q-24 0 -39.5 -10t-15.5 -27t15 -29.5t55 -29.5q18 9 30 25.5t12 33.5z
M271 -139q0 21 -18 36.5t-63 32.5q-17 -9 -29 -27.5t-12 -36.5q0 -45 60 -45q28 0 45 10.5t17 29.5z" />
    <glyph glyph-name="uni2089" unicode="&#x2089;" horiz-adv-x="430" 
d="M60 39q0 65 43.5 104t120.5 39q78 0 119 -44t41 -130q0 -132 -85 -201.5t-217 -69.5l-14 94q168 0 201 98q-30 -23 -77 -23q-59 0 -95.5 34t-36.5 99zM169 40q0 -54 56 -54t56 54q0 61 -54 61q-58 0 -58 -61z" />
    <glyph glyph-name="uni208A" unicode="&#x208a;" horiz-adv-x="352" 
d="M302 -104h-88v-101h-76v101h-88v71h88v100h76v-100h88v-71z" />
    <glyph glyph-name="uni208B" unicode="&#x208b;" horiz-adv-x="337" 
d="M287 -104h-237v72h237v-72z" />
    <glyph glyph-name="uni208C" unicode="&#x208c;" horiz-adv-x="337" 
d="M287 -32h-237v72h237v-72zM287 -176h-237v72h237v-72z" />
    <glyph glyph-name="uni208D" unicode="&#x208d;" horiz-adv-x="280" 
d="M243 -262l-23 -57q-84 16 -126.5 87t-42.5 175q0 105 47.5 172t121.5 88l22 -55q-44 -17 -68.5 -62t-24.5 -143q0 -104 23.5 -147.5t70.5 -57.5z" />
    <glyph glyph-name="uni208E" unicode="&#x208e;" horiz-adv-x="280" 
d="M37 145l23 57q84 -16 126.5 -87t42.5 -175q0 -105 -47.5 -172t-121.5 -88l-22 55q44 17 68.5 62t24.5 143q0 104 -23.5 147.5t-70.5 57.5z" />
    <glyph glyph-name="Euro" unicode="&#x20ac;" 
d="M487 31q-61 -41 -164 -41q-93 0 -160.5 59.5t-76.5 185.5h-64l15 74h44v22q0 18 2 44h-61l15 74h52q9 67 33.5 116t59 76.5t72 40t78.5 12.5q82 0 147 -22l-13 -117q-56 20 -120 20q-110 0 -120 -126h189l-14 -74h-179q-1 -15 -1 -40v-26h198l-14 -74h-180
q11 -117 124 -117q69 0 118 32z" />
    <glyph glyph-name="afii61289" unicode="&#x2113;" horiz-adv-x="409" 
d="M370 121l20 -21q-67 -109 -174 -109q-71 0 -106 30.5t-35 124.5v24l-53 -28l-12 29l64 39v92q0 79 10 121.5t37 74.5q48 55 113 55q51 0 75.5 -33t24.5 -79q0 -60 -35.5 -109.5t-109.5 -102.5v-53q0 -121 78 -121q51 0 103 66zM189 350v-75q26 30 38 47t23 49t11 71
q0 29 -8.5 53t-28.5 24q-23 0 -29 -35t-6 -134z" />
    <glyph glyph-name="trademark" unicode="&#x2122;" horiz-adv-x="1307" 
d="M484 594l-6 -119h-154v-393h-130v393h-156l-6 119h452zM1204 82h-138l-20 285q-1 8 -1 30h-7q-1 -14 -6 -30l-105 -285h-148l-95 285q-5 17 -6 30h-8q0 -22 -1 -30l-21 -288l-113 4l43 511h164l115 -333q5 -16 7 -32h7q2 20 7 33l122 332h161z" />
    <glyph glyph-name="Omega" unicode="&#x2126;" horiz-adv-x="786" 
d="M741 133l-7 -133h-296l-5 129q53 0 94.5 67t41.5 169q0 100 -51 144.5t-129 44.5q-172 0 -172 -189q0 -107 42.5 -171.5t93.5 -64.5l-5 -129h-296l-7 133h158q-66 31 -107 99t-41 158q0 131 92.5 217.5t244.5 86.5q157 0 248.5 -85t91.5 -215q0 -92 -39.5 -159.5
t-108.5 -101.5h157z" />
    <glyph glyph-name="estimated" unicode="&#x212e;" horiz-adv-x="624" 
d="M599 241h-466q-3 0 -3 -3v-141q0 -9 6 -16q74 -76 176 -76q111 0 185 85h41q-39 -46 -99 -72.5t-128 -26.5q-119 0 -203 75.5t-84 181.5q0 107 84 183t203 76q123 0 205.5 -77.5t82.5 -188.5zM493 260v141q0 10 -7 17q-75 73 -174 73q-101 0 -176 -75q-6 -8 -6 -18v-138
q0 -5 3 -5h357q3 0 3 5z" />
    <glyph glyph-name="uni2150" unicode="&#x2150;" horiz-adv-x="1024" 
d="M373 256h-301v94h104v243l-90 -18l-9 86l122 26h88v-337h86v-94zM744 682l-344 -682h-114l345 682h113zM976 335l-215 -338l-106 8l210 333h-197l-12 93h320v-96z" />
    <glyph glyph-name="uni2151" unicode="&#x2151;" horiz-adv-x="1024" 
d="M373 256h-301v94h104v243l-90 -18l-9 86l122 26h88v-337h86v-94zM744 682l-344 -682h-114l345 682h113zM654 296q0 65 43.5 104t120.5 39q78 0 119 -44t41 -130q0 -132 -85 -201.5t-217 -69.5l-14 94q168 0 201 98q-30 -23 -77 -23q-59 0 -95.5 34t-36.5 99zM763 297
q0 -54 56 -54t56 54q0 61 -54 61q-58 0 -58 -61z" />
    <glyph glyph-name="uni2152" unicode="&#x2152;" horiz-adv-x="1454" 
d="M373 256h-301v94h104v243l-90 -18l-9 86l122 26h88v-337h86v-94zM744 682l-344 -682h-114l345 682h113zM967 0h-301v94h104v243l-90 -18l-9 86l122 26h88v-337h86v-94zM1408 217q0 -109 -46.5 -166t-126.5 -57q-79 0 -122 55t-43 168q0 108 46.5 165t125.5 57
q78 0 122 -56.5t44 -165.5zM1294 219q0 76 -11.5 101.5t-43.5 25.5t-44.5 -28.5t-12.5 -98.5q0 -72 11.5 -100.5t45.5 -28.5q32 0 43.5 32t11.5 97z" />
    <glyph glyph-name="onethird" unicode="&#x2153;" horiz-adv-x="1024" 
d="M373 256h-301v94h104v243l-90 -18l-9 86l122 26h88v-337h86v-94zM744 682l-344 -682h-114l345 682h113zM964 136q0 -142 -292 -142l-9 93q94 0 137 11t43 39q0 24 -17 30.5t-63 6.5h-65v92h53q43 0 63 8.5t20 32.5q0 41 -55 41q-60 0 -100 -20l-17 91q49 20 132 20
q69 0 108 -26t39 -76q0 -73 -77 -100v-5q100 -11 100 -96z" />
    <glyph glyph-name="twothirds" unicode="&#x2154;" horiz-adv-x="1024" 
d="M375 350l-9 -94h-318v86q114 75 156 117.5t42 85.5q0 26 -18 42t-50 16q-50 0 -100 -22l-16 88q53 26 136 26q72 0 116 -35t44 -98q0 -55 -33.5 -105t-125.5 -107h176zM744 682l-344 -682h-114l345 682h113zM964 136q0 -142 -292 -142l-9 93q94 0 137 11t43 39
q0 24 -17 30.5t-63 6.5h-65v92h53q43 0 63 8.5t20 32.5q0 41 -55 41q-60 0 -100 -20l-17 91q49 20 132 20q69 0 108 -26t39 -76q0 -73 -77 -100v-5q100 -11 100 -96z" />
    <glyph glyph-name="uni2155" unicode="&#x2155;" horiz-adv-x="1024" 
d="M373 256h-301v94h104v243l-90 -18l-9 86l122 26h88v-337h86v-94zM744 682l-344 -682h-114l345 682h113zM957 140q0 -146 -274 -146l-10 94q91 0 129 12.5t38 40.5q0 24 -23 34t-78 10q-41 0 -65 -2l28 248h247l-10 -94h-154l-10 -75q94 0 138 -29t44 -93z" />
    <glyph glyph-name="uni2156" unicode="&#x2156;" horiz-adv-x="1024" 
d="M375 350l-9 -94h-318v86q114 75 156 117.5t42 85.5q0 26 -18 42t-50 16q-50 0 -100 -22l-16 88q53 26 136 26q72 0 116 -35t44 -98q0 -55 -33.5 -105t-125.5 -107h176zM744 682l-344 -682h-114l345 682h113zM957 140q0 -146 -274 -146l-10 94q91 0 129 12.5t38 40.5
q0 24 -23 34t-78 10q-41 0 -65 -2l28 248h247l-10 -94h-154l-10 -75q94 0 138 -29t44 -93z" />
    <glyph glyph-name="uni2157" unicode="&#x2157;" horiz-adv-x="1024" 
d="M370 391q0 -142 -292 -142l-9 93q94 0 137 11t43 39q0 24 -17 30.5t-63 6.5h-65v92h53q43 0 63 8.5t20 32.5q0 41 -55 41q-60 0 -100 -20l-17 91q49 20 132 20q69 0 108 -26t39 -76q0 -73 -77 -100v-5q100 -11 100 -96zM744 682l-344 -682h-114l345 682h113zM957 140
q0 -146 -274 -146l-10 94q91 0 129 12.5t38 40.5q0 24 -23 34t-78 10q-41 0 -65 -2l28 248h247l-10 -94h-154l-10 -75q94 0 138 -29t44 -93z" />
    <glyph glyph-name="uni2158" unicode="&#x2158;" horiz-adv-x="1024" 
d="M382 345h-51v-89h-104v89h-177l-9 102l186 246l108 -6l-200 -259h92v93h104v-93h51v-83zM744 682l-344 -682h-114l345 682h113zM957 140q0 -146 -274 -146l-10 94q91 0 129 12.5t38 40.5q0 24 -23 34t-78 10q-41 0 -65 -2l28 248h247l-10 -94h-154l-10 -75q94 0 138 -29
t44 -93z" />
    <glyph glyph-name="uni2159" unicode="&#x2159;" horiz-adv-x="1024" 
d="M373 256h-301v94h104v243l-90 -18l-9 86l122 26h88v-337h86v-94zM744 682l-344 -682h-114l345 682h113zM969 137q0 -65 -43.5 -104t-120.5 -39q-78 0 -119 44t-41 130q0 132 85 201.5t217 69.5l14 -94q-168 0 -201 -98q30 23 77 23q59 0 95.5 -34t36.5 -99zM860 136
q0 54 -56 54t-56 -54q0 -61 54 -61q58 0 58 61z" />
    <glyph glyph-name="uni215A" unicode="&#x215a;" horiz-adv-x="1024" 
d="M363 395q0 -146 -274 -146l-10 94q91 0 129 12.5t38 40.5q0 24 -23 34t-78 10q-41 0 -65 -2l28 248h247l-10 -94h-154l-10 -75q94 0 138 -29t44 -93zM744 682l-344 -682h-114l345 682h113zM969 137q0 -65 -43.5 -104t-120.5 -39q-78 0 -119 44t-41 130q0 132 85 201.5
t217 69.5l14 -94q-168 0 -201 -98q30 23 77 23q59 0 95.5 -34t36.5 -99zM860 136q0 54 -56 54t-56 -54q0 -61 54 -61q58 0 58 61z" />
    <glyph glyph-name="oneeighth" unicode="&#x215b;" horiz-adv-x="1024" 
d="M373 256h-301v94h104v243l-90 -18l-9 86l122 26h88v-337h86v-94zM744 682l-344 -682h-114l345 682h113zM972 121q0 -58 -45 -92.5t-125 -34.5q-81 0 -119 29.5t-38 79.5q0 72 78 113q-67 36 -67 104q0 52 38 85.5t119 33.5q147 0 147 -101q0 -62 -72 -103
q45 -22 64.5 -49t19.5 -65zM868 322q0 37 -57 37q-24 0 -39.5 -10t-15.5 -27t15 -29.5t55 -29.5q18 9 30 25.5t12 33.5zM865 118q0 21 -18 36.5t-63 32.5q-17 -9 -29 -27.5t-12 -36.5q0 -45 60 -45q28 0 45 10.5t17 29.5z" />
    <glyph glyph-name="threeeighths" unicode="&#x215c;" horiz-adv-x="1024" 
d="M370 391q0 -142 -292 -142l-9 93q94 0 137 11t43 39q0 24 -17 30.5t-63 6.5h-65v92h53q43 0 63 8.5t20 32.5q0 41 -55 41q-60 0 -100 -20l-17 91q49 20 132 20q69 0 108 -26t39 -76q0 -73 -77 -100v-5q100 -11 100 -96zM744 682l-344 -682h-114l345 682h113zM972 121
q0 -58 -45 -92.5t-125 -34.5q-81 0 -119 29.5t-38 79.5q0 72 78 113q-67 36 -67 104q0 52 38 85.5t119 33.5q147 0 147 -101q0 -62 -72 -103q45 -22 64.5 -49t19.5 -65zM868 322q0 37 -57 37q-24 0 -39.5 -10t-15.5 -27t15 -29.5t55 -29.5q18 9 30 25.5t12 33.5zM865 118
q0 21 -18 36.5t-63 32.5q-17 -9 -29 -27.5t-12 -36.5q0 -45 60 -45q28 0 45 10.5t17 29.5z" />
    <glyph glyph-name="fiveeighths" unicode="&#x215d;" horiz-adv-x="1024" 
d="M363 395q0 -146 -274 -146l-10 94q91 0 129 12.5t38 40.5q0 24 -23 34t-78 10q-41 0 -65 -2l28 248h247l-10 -94h-154l-10 -75q94 0 138 -29t44 -93zM744 682l-344 -682h-114l345 682h113zM972 121q0 -58 -45 -92.5t-125 -34.5q-81 0 -119 29.5t-38 79.5q0 72 78 113
q-67 36 -67 104q0 52 38 85.5t119 33.5q147 0 147 -101q0 -62 -72 -103q45 -22 64.5 -49t19.5 -65zM868 322q0 37 -57 37q-24 0 -39.5 -10t-15.5 -27t15 -29.5t55 -29.5q18 9 30 25.5t12 33.5zM865 118q0 21 -18 36.5t-63 32.5q-17 -9 -29 -27.5t-12 -36.5q0 -45 60 -45
q28 0 45 10.5t17 29.5z" />
    <glyph glyph-name="seveneighths" unicode="&#x215e;" horiz-adv-x="1024" 
d="M382 590l-215 -338l-106 8l210 333h-197l-12 93h320v-96zM744 682l-344 -682h-114l345 682h113zM972 121q0 -58 -45 -92.5t-125 -34.5q-81 0 -119 29.5t-38 79.5q0 72 78 113q-67 36 -67 104q0 52 38 85.5t119 33.5q147 0 147 -101q0 -62 -72 -103q45 -22 64.5 -49
t19.5 -65zM868 322q0 37 -57 37q-24 0 -39.5 -10t-15.5 -27t15 -29.5t55 -29.5q18 9 30 25.5t12 33.5zM865 118q0 21 -18 36.5t-63 32.5q-17 -9 -29 -27.5t-12 -36.5q0 -45 60 -45q28 0 45 10.5t17 29.5z" />
    <glyph glyph-name="uni215F" unicode="&#x215f;" horiz-adv-x="594" 
d="M373 256h-301v94h104v243l-90 -18l-9 86l122 26h88v-337h86v-94zM744 682l-344 -682h-114l345 682h113z" />
    <glyph glyph-name="uni2189" unicode="&#x2189;" horiz-adv-x="1024" 
d="M384 472q0 -109 -46.5 -166t-126.5 -57q-79 0 -122 55t-43 168q0 108 46.5 165t125.5 57q78 0 122 -56.5t44 -165.5zM270 474q0 76 -11.5 101.5t-43.5 25.5t-44.5 -28.5t-12.5 -98.5q0 -72 11.5 -100.5t45.5 -28.5q32 0 43.5 32t11.5 97zM744 682l-344 -682h-114l345 682
h113zM964 136q0 -142 -292 -142l-9 93q94 0 137 11t43 39q0 24 -17 30.5t-63 6.5h-65v92h53q43 0 63 8.5t20 32.5q0 41 -55 41q-60 0 -100 -20l-17 91q49 20 132 20q69 0 108 -26t39 -76q0 -73 -77 -100v-5q100 -11 100 -96z" />
    <glyph glyph-name="partialdiff" unicode="&#x2202;" horiz-adv-x="532" 
d="M497 310q0 -151 -65 -235.5t-177 -84.5q-109 0 -167 63t-58 170q0 104 58.5 163.5t145.5 59.5q65 0 102 -22q-7 83 -52.5 118t-123.5 35q-59 0 -102 -16v127q62 12 130 12q309 0 309 -390zM352 227q0 53 -21.5 82.5t-59.5 29.5q-85 0 -85 -112q0 -122 82 -122
q84 0 84 122z" />
    <glyph glyph-name="Delta" unicode="&#x2206;" horiz-adv-x="718" 
d="M643 0h-568v137l207 545h151l210 -545v-137zM483 140l-130 358h-9l-123 -358h262z" />
    <glyph glyph-name="product" unicode="&#x220f;" horiz-adv-x="775" 
d="M693 0h-154v549h-303v-549h-154v682h611v-682z" />
    <glyph glyph-name="summation" unicode="&#x2211;" horiz-adv-x="592" 
d="M540 133l-6 -133h-492l6 115l234 236l-238 216l6 115h475l-5 -133h-274l161 -146v-99l-170 -171h303z" />
    <glyph glyph-name="minus" unicode="&#x2212;" horiz-adv-x="500" 
d="M467 192h-434v99h434v-99z" />
    <glyph glyph-name="uni2219" unicode="&#x2219;" horiz-adv-x="500" 
d="M385 238q0 -55 -39.5 -94.5t-95.5 -39.5t-95.5 39.5t-39.5 94.5q0 56 39.5 95.5t95.5 39.5t95.5 -39.5t39.5 -95.5z" />
    <glyph glyph-name="radical" unicode="&#x221a;" 
d="M527 682l-10 -135h-55l-127 -547h-150l-124 429l148 36l67 -262l111 479h140z" />
    <glyph glyph-name="infinity" unicode="&#x221e;" horiz-adv-x="783" 
d="M743 250q0 -89 -46 -140t-127 -51q-59 0 -103.5 21.5t-89.5 77.5q-41 -55 -82 -77t-95 -22q-72 0 -116 44t-44 131t47.5 137.5t126.5 50.5q54 0 99.5 -21t92.5 -78q40 53 81 76t97 23q69 0 114 -43.5t45 -128.5zM633 246q0 64 -70 64q-61 0 -113 -51q51 -83 115 -83
q31 0 49.5 18.5t18.5 51.5zM333 222q-27 45 -54 64t-61 19q-32 0 -50 -18t-18 -51q0 -65 71 -65q59 0 112 51z" />
    <glyph glyph-name="integral" unicode="&#x222b;" horiz-adv-x="361" 
d="M330 595q-8 1 -31 1q-38 0 -62.5 -25t-24.5 -73q0 -15 1 -23l51 -411q2 -18 2 -31q0 -103 -56.5 -162.5t-142.5 -59.5q-26 0 -46 4l-11 121q8 -1 31 -1q38 0 62.5 25t24.5 73q0 15 -1 23l-51 411q-2 18 -2 31q0 103 56.5 162.5t142.5 59.5q26 0 46 -4z" />
    <glyph glyph-name="approxequal" unicode="&#x2248;" horiz-adv-x="500" 
d="M452 306q-45 -37 -99 -37q-33 0 -98 18t-99 18q-58 0 -108 -44v110q47 41 104 41q34 0 99.5 -17t97.5 -17q54 0 103 41v-113zM452 120q-45 -37 -99 -37q-33 0 -98.5 17.5t-99.5 17.5q-56 0 -107 -44v111q46 40 104 40q34 0 99.5 -17t97.5 -17q53 0 103 42v-113z" />
    <glyph glyph-name="notequal" unicode="&#x2260;" horiz-adv-x="500" 
d="M460 96h-253l-63 -96h-95l63 96h-70v107h140l54 83h-194v106h264l55 84h95l-55 -84h59v-106h-129l-54 -83h183v-107z" />
    <glyph glyph-name="lessequal" unicode="&#x2264;" horiz-adv-x="500" 
d="M432 127h-164l-201 172l201 172h164l-206 -166zM437 0h-373v108h373v-108z" />
    <glyph glyph-name="greaterequal" unicode="&#x2265;" horiz-adv-x="500" 
d="M431 299l-201 -172h-164l206 166l-206 178h164zM438 0h-373v108h373v-108z" />
    <glyph glyph-name="dotmath" unicode="&#x22c5;" horiz-adv-x="500" 
d="M322 238q0 -29 -21.5 -49.5t-50.5 -20.5t-50.5 20.5t-21.5 49.5t21.5 50.5t50.5 21.5t50.5 -21.5t21.5 -50.5z" />
    <glyph glyph-name="lozenge" unicode="&#x25ca;" horiz-adv-x="538" 
d="M498 278l-144 -278h-170l-144 280l144 278h170zM343 277l-77 157l-71 -152l77 -158z" />
    <glyph glyph-name="fi" unicode="&#xfb01;" horiz-adv-x="604" 
d="M537 0h-142v326h-161v-326h-142v326h-72v115h72v52q0 101 56.5 164t137.5 63q37 0 69 -5l-9 -130q-21 3 -38 3q-36 0 -55 -15.5t-19 -56.5v-75h191l112 7v-448zM529 606q0 -26 -18.5 -45t-44.5 -19t-44 19t-18 45t18 44t44 18t44.5 -18t18.5 -44z" />
    <glyph glyph-name="fl" unicode="&#xfb02;" horiz-adv-x="616" 
d="M549 0h-142v579q-35 8 -78 8q-50 0 -72.5 -19t-22.5 -64v-63h93v-115h-93v-326h-142v326h-72v115h72v52q0 108 58.5 163t159.5 55q39 0 113 -8l126 11v-714z" />
    <glyph glyph-name="uniFEFF" unicode="&#xfeff;" horiz-adv-x="0" 
 />
    <glyph glyph-name="uni030C.alt001" horiz-adv-x="1" 
d="M140 708l-68 -217h-85l19 217h134z" />
    <glyph glyph-name="uni0328.alt001" horiz-adv-x="1" 
d="M-43 18q-92 -74 -92 -129q0 -34 35 -34q26 0 48 12l13 -65q-34 -18 -84 -18q-46 0 -72.5 21t-26.5 62q0 42 39.5 86t110.5 83z" />
    <glyph glyph-name="uni0328.alt002" horiz-adv-x="1" 
d="M-70 28q-80 -68 -80 -134q0 -39 35 -39q25 0 48 12l13 -65q-34 -18 -84 -18q-99 0 -99 88t139 165z" />
    <glyph glyph-name="uni0328.alt003" horiz-adv-x="1" 
d="M-67 0q-84 -64 -84 -116q0 -29 35 -29q26 0 48 12l13 -65q-34 -18 -84 -18q-46 0 -72.5 20.5t-26.5 58.5q0 61 101 137h70z" />
    <glyph glyph-name="uni0328.alt004" horiz-adv-x="1" 
d="M-20 5q-79 -44 -105 -71.5t-26 -49.5q0 -29 35 -29q26 0 48 12l13 -65q-34 -18 -84 -18q-46 0 -72.5 20.5t-26.5 58.5q0 40 36 76.5t100 65.5h82z" />
    <glyph glyph-name="uni0328.alt005" horiz-adv-x="1" 
d="M-62 0q-86 -67 -86 -113q0 -32 35 -32q25 0 48 12l13 -65q-34 -18 -84 -18q-46 0 -72.5 20.5t-26.5 58.5q0 67 103 137h70z" />
    <glyph glyph-name="i.latn_TRK" horiz-adv-x="276" 
d="M201 606q0 -26 -18.5 -45t-44.5 -19t-44 19t-18 45t18 44t44 18t44.5 -18t18.5 -44zM209 0h-142v436l142 12v-448z" />
    <glyph glyph-name="pi.sups" horiz-adv-x="375" 
d="M325 499h-40l-25 -98q-5 -20 -5 -25q0 -19 17 -19q12 0 30 9l8 -52q-28 -11 -52 -11q-27 0 -42 16t-15 45q0 16 4 32l25 103h-91v-191h-53v191h-36v80h275v-80z" />
    <glyph glyph-name="zero.numr" horiz-adv-x="430" 
d="M384 472q0 -109 -46.5 -166t-126.5 -57q-79 0 -122 55t-43 168q0 108 46.5 165t125.5 57q78 0 122 -56.5t44 -165.5zM270 474q0 76 -11.5 101.5t-43.5 25.5t-44.5 -28.5t-12.5 -98.5q0 -72 11.5 -100.5t45.5 -28.5q32 0 43.5 32t11.5 97z" />
    <glyph glyph-name="one.numr" horiz-adv-x="430" 
d="M373 256h-301v94h104v243l-90 -18l-9 86l122 26h88v-337h86v-94z" />
    <glyph glyph-name="two.numr" horiz-adv-x="430" 
d="M375 350l-9 -94h-318v86q114 75 156 117.5t42 85.5q0 26 -18 42t-50 16q-50 0 -100 -22l-16 88q53 26 136 26q72 0 116 -35t44 -98q0 -55 -33.5 -105t-125.5 -107h176z" />
    <glyph glyph-name="three.numr" horiz-adv-x="430" 
d="M370 391q0 -142 -292 -142l-9 93q94 0 137 11t43 39q0 24 -17 30.5t-63 6.5h-65v92h53q43 0 63 8.5t20 32.5q0 41 -55 41q-60 0 -100 -20l-17 91q49 20 132 20q69 0 108 -26t39 -76q0 -73 -77 -100v-5q100 -11 100 -96z" />
    <glyph glyph-name="four.numr" horiz-adv-x="430" 
d="M382 345h-51v-89h-104v89h-177l-9 102l186 246l108 -6l-200 -259h92v93h104v-93h51v-83z" />
    <glyph glyph-name="five.numr" horiz-adv-x="430" 
d="M363 395q0 -146 -274 -146l-10 94q91 0 129 12.5t38 40.5q0 24 -23 34t-78 10q-41 0 -65 -2l28 248h247l-10 -94h-154l-10 -75q94 0 138 -29t44 -93z" />
    <glyph glyph-name="six.numr" horiz-adv-x="430" 
d="M375 392q0 -65 -43.5 -104t-120.5 -39q-78 0 -119 44t-41 130q0 132 85 201.5t217 69.5l14 -94q-168 0 -201 -98q30 23 77 23q59 0 95.5 -34t36.5 -99zM266 391q0 54 -56 54t-56 -54q0 -61 54 -61q58 0 58 61z" />
    <glyph glyph-name="seven.numr" horiz-adv-x="430" 
d="M382 590l-215 -338l-106 8l210 333h-197l-12 93h320v-96z" />
    <glyph glyph-name="eight.numr" horiz-adv-x="430" 
d="M378 376q0 -58 -45 -92.5t-125 -34.5q-81 0 -119 29.5t-38 79.5q0 72 78 113q-67 36 -67 104q0 52 38 85.5t119 33.5q147 0 147 -101q0 -62 -72 -103q45 -22 64.5 -49t19.5 -65zM274 577q0 37 -57 37q-24 0 -39.5 -10t-15.5 -27t15 -29.5t55 -29.5q18 9 30 25.5t12 33.5z
M271 373q0 21 -18 36.5t-63 32.5q-17 -9 -29 -27.5t-12 -36.5q0 -45 60 -45q28 0 45 10.5t17 29.5z" />
    <glyph glyph-name="nine.numr" horiz-adv-x="430" 
d="M60 551q0 65 43.5 104t120.5 39q78 0 119 -44t41 -130q0 -132 -85 -201.5t-217 -69.5l-14 94q168 0 201 98q-30 -23 -77 -23q-59 0 -95.5 34t-36.5 99zM169 552q0 -54 56 -54t56 54q0 61 -54 61q-58 0 -58 -61z" />
    <glyph glyph-name="zero.dnom" horiz-adv-x="430" 
d="M384 217q0 -109 -46.5 -166t-126.5 -57q-79 0 -122 55t-43 168q0 108 46.5 165t125.5 57q78 0 122 -56.5t44 -165.5zM270 219q0 76 -11.5 101.5t-43.5 25.5t-44.5 -28.5t-12.5 -98.5q0 -72 11.5 -100.5t45.5 -28.5q32 0 43.5 32t11.5 97z" />
    <glyph glyph-name="one.dnom" horiz-adv-x="430" 
d="M373 0h-301v94h104v243l-90 -18l-9 86l122 26h88v-337h86v-94z" />
    <glyph glyph-name="two.dnom" horiz-adv-x="430" 
d="M375 94l-9 -94h-318v86q114 75 156 117.5t42 85.5q0 26 -18 42t-50 16q-50 0 -100 -22l-16 88q53 26 136 26q72 0 116 -35t44 -98q0 -55 -33.5 -105t-125.5 -107h176z" />
    <glyph glyph-name="three.dnom" horiz-adv-x="430" 
d="M370 136q0 -142 -292 -142l-9 93q94 0 137 11t43 39q0 24 -17 30.5t-63 6.5h-65v92h53q43 0 63 8.5t20 32.5q0 41 -55 41q-60 0 -100 -20l-17 91q49 20 132 20q69 0 108 -26t39 -76q0 -73 -77 -100v-5q100 -11 100 -96z" />
    <glyph glyph-name="four.dnom" horiz-adv-x="430" 
d="M382 89h-51v-89h-104v89h-177l-9 102l186 246l108 -6l-200 -259h92v93h104v-93h51v-83z" />
    <glyph glyph-name="five.dnom" horiz-adv-x="430" 
d="M363 140q0 -146 -274 -146l-10 94q91 0 129 12.5t38 40.5q0 24 -23 34t-78 10q-41 0 -65 -2l28 248h247l-10 -94h-154l-10 -75q94 0 138 -29t44 -93z" />
    <glyph glyph-name="six.dnom" horiz-adv-x="430" 
d="M375 137q0 -65 -43.5 -104t-120.5 -39q-78 0 -119 44t-41 130q0 132 85 201.5t217 69.5l14 -94q-168 0 -201 -98q30 23 77 23q59 0 95.5 -34t36.5 -99zM266 136q0 54 -56 54t-56 -54q0 -61 54 -61q58 0 58 61z" />
    <glyph glyph-name="seven.dnom" horiz-adv-x="430" 
d="M382 335l-215 -338l-106 8l210 333h-197l-12 93h320v-96z" />
    <glyph glyph-name="eight.dnom" horiz-adv-x="430" 
d="M378 121q0 -58 -45 -92.5t-125 -34.5q-81 0 -119 29.5t-38 79.5q0 72 78 113q-67 36 -67 104q0 52 38 85.5t119 33.5q147 0 147 -101q0 -62 -72 -103q45 -22 64.5 -49t19.5 -65zM274 322q0 37 -57 37q-24 0 -39.5 -10t-15.5 -27t15 -29.5t55 -29.5q18 9 30 25.5t12 33.5z
M271 118q0 21 -18 36.5t-63 32.5q-17 -9 -29 -27.5t-12 -36.5q0 -45 60 -45q28 0 45 10.5t17 29.5z" />
    <glyph glyph-name="nine.dnom" horiz-adv-x="430" 
d="M60 296q0 65 43.5 104t120.5 39q78 0 119 -44t41 -130q0 -132 -85 -201.5t-217 -69.5l-14 94q168 0 201 98q-30 -23 -77 -23q-59 0 -95.5 34t-36.5 99zM169 297q0 -54 56 -54t56 54q0 61 -54 61q-58 0 -58 -61z" />
    <glyph glyph-name="space.frac" horiz-adv-x="48" 
 />
    <glyph glyph-name="numbersign.tf" horiz-adv-x="510" 
d="M487 413h-92l-29 -133h76v-106h-99l-37 -174h-80l38 174h-91l-37 -174h-80l38 174h-76v106h98l29 133h-82v106h105l35 163h79l-35 -163h91l35 163h79l-35 -163h70v-106zM315 413h-90l-29 -133h90z" />
    <glyph glyph-name="dollar.tf" horiz-adv-x="510" 
d="M464 234q0 -62 -36.5 -103t-98.5 -55v-86h-57v76q-10 -1 -30 -1h-18v-75h-57v82q-66 11 -104 33l23 115q66 -46 156 -46q85 0 85 47q0 23 -27 40t-66 30.5t-77.5 31.5t-65.5 53t-27 85q0 53 31.5 93t89.5 57v83h57v-70q24 2 38 2h10v68h57v-72q53 -6 92 -18l-15 -112
q-65 25 -141 25q-82 0 -82 -47q0 -20 27 -37.5t65.5 -32.5t77.5 -34t66 -53t27 -79z" />
    <glyph glyph-name="zero.tf" horiz-adv-x="510" 
d="M485 344q0 -174 -60.5 -264t-173.5 -90t-169.5 86t-56.5 268q0 174 60.5 262t173.5 88q226 0 226 -350zM338 344q0 138 -19.5 186t-64.5 48q-43 0 -62.5 -53t-19.5 -181q0 -132 18.5 -185t63.5 -53q46 0 65 55.5t19 182.5z" />
    <glyph glyph-name="one.tf" horiz-adv-x="510" 
d="M480 125l-12 -125h-397v125h150v427l-128 -25l-20 113l184 42h109v-557h114z" />
    <glyph glyph-name="two.tf" horiz-adv-x="510" 
d="M475 131l-12 -131h-443v120q163 133 222 210.5t59 129.5q0 48 -31 73t-84 25q-72 0 -124 -34l-28 131q80 39 178 39q112 0 179 -56t67 -162q0 -65 -48.5 -145.5t-182.5 -199.5h248z" />
    <glyph glyph-name="three.tf" horiz-adv-x="510" 
d="M447 229q0 -104 -111 -171.5t-288 -67.5l-13 131q128 4 191 29t63 75q0 41 -34 55.5t-96 14.5h-56v122h55q126 0 126 80q0 34 -24 51.5t-64 17.5q-77 0 -115 -25l-28 118q70 35 169 35q88 0 145 -41.5t57 -121.5q0 -101 -101 -153v-4q60 -12 92 -50.5t32 -94.5z" />
    <glyph glyph-name="four.tf" horiz-adv-x="510" 
d="M491 169h-67v-169h-132v169h-262l-12 129l259 396l150 -10l-268 -397h133v121h132v-121h67v-118z" />
    <glyph glyph-name="five.tf" horiz-adv-x="510" 
d="M460 220q0 -104 -98.5 -167t-283.5 -63l-18 131q131 2 190.5 24.5t59.5 70.5q0 80 -159 80q-59 0 -89 -3l41 389h346l-13 -129h-220l-17 -143h9q110 0 181 -47t71 -143z" />
    <glyph glyph-name="six.tf" horiz-adv-x="510" 
d="M480 213q0 -101 -63 -162t-166 -61q-102 0 -161 71t-59 205q0 105 37 189.5t98 135t134 77t151 26.5l27 -129q-109 0 -191.5 -48t-107.5 -154h6q38 41 108 41q78 0 132.5 -48.5t54.5 -142.5zM339 204q0 47 -25 68.5t-62 21.5t-60.5 -23t-23.5 -67q0 -47 22 -72.5
t61 -25.5q88 0 88 98z" />
    <glyph glyph-name="seven.tf" horiz-adv-x="510" 
d="M468 556l-311 -562l-136 14l300 547h-278l-17 127h442v-126z" />
    <glyph glyph-name="eight.tf" horiz-adv-x="510" 
d="M480 186q0 -86 -67 -141t-166 -55q-104 0 -160 51t-56 130q0 58 28 99.5t90 76.5q-102 65 -102 170q0 78 58 127.5t153 49.5q100 0 152 -44t52 -116q0 -108 -105 -168q73 -44 98 -83.5t25 -96.5zM343 517q0 34 -22.5 53.5t-59.5 19.5t-60.5 -19t-23.5 -52q0 -62 104 -108
q26 14 44 44.5t18 61.5zM340 180q0 71 -119 122q-24 -15 -42 -46.5t-18 -64.5q0 -43 22.5 -66t64.5 -23t67 21t25 57z" />
    <glyph glyph-name="nine.tf" horiz-adv-x="510" 
d="M479 418q0 -105 -37 -189.5t-98 -135t-134 -77t-151 -26.5l-27 129q109 0 191.5 48t107.5 154h-6q-38 -41 -108 -41q-78 0 -132.5 48.5t-54.5 142.5q0 101 63 162t166 61q102 0 161 -71t59 -205zM342 480q0 47 -22 72.5t-61 25.5q-88 0 -88 -98q0 -47 25 -68.5t62 -21.5
t60.5 23t23.5 67z" />
    <glyph glyph-name="cent.tf" horiz-adv-x="510" 
d="M449 127q-44 -17 -106 -25v-112h-91v111q-90 11 -148 71.5t-58 166.5q0 116 58 178.5t148 76.5v100h91v-101q60 -6 105 -24l-16 -119q-58 23 -131 23q-117 0 -117 -130q0 -59 33 -88t88 -29q68 0 128 29z" />
    <glyph glyph-name="sterling.tf" horiz-adv-x="510" 
d="M464 0h-415v109q112 0 112 87q0 30 -29 97h-78v99h33q-31 69 -31 116q0 83 56 134.5t153 51.5q112 0 173 -29l-26 -117q-64 28 -136 28q-82 0 -82 -74q0 -28 39 -110h203v-99h-160q14 -45 14 -73q0 -36 -12.5 -59.5t-39.5 -48.5h226v-112z" />
    <glyph glyph-name="currency.tf" horiz-adv-x="510" 
d="M482 406l-52 -53q34 -52 34 -114q0 -66 -38 -122l53 -53l-70 -64l-50 56q-51 -28 -104 -28q-58 0 -106 28l-51 -56l-69 64l51 53q-34 51 -34 117q0 68 33 117l-48 51l70 63l46 -51q51 30 108 30q56 0 108 -29l49 55zM350 237q0 45 -27.5 74t-66.5 29q-38 0 -67 -29
t-29 -74q0 -46 26.5 -75.5t65.5 -29.5q40 0 69 29.5t29 75.5z" />
    <glyph glyph-name="yen.tf" horiz-adv-x="510" 
d="M514 682l-165 -372h98v-115h-117v-195h-149v195h-117v115h98l-162 363l159 14l82 -226q11 -30 15 -50h11q5 24 15 50l88 221h144z" />
    <glyph glyph-name="section.tf" horiz-adv-x="510" 
d="M479 359q0 -96 -103 -151q22 -29 22 -62q0 -73 -59.5 -114.5t-151.5 -41.5q-53 0 -92 9l19 104q45 -11 104 -11q56 0 56 33q0 17 -38 34.5t-83 33t-83 50.5t-38 82q0 96 102 150q-21 27 -21 63q0 73 59.5 114.5t151.5 41.5q53 0 92 -9l-19 -104q-45 11 -104 11
q-56 0 -56 -33q0 -17 38 -34.5t83 -33t83 -50.5t38 -82zM347 331q0 12 -6.5 21.5t-21.5 18.5t-28 15t-36.5 15.5t-36.5 15.5q-54 -21 -54 -64q0 -12 6.5 -22t22 -19t27.5 -14.5t36.5 -16t36.5 -15.5q54 23 54 65z" />
    <glyph glyph-name="florin.tf" horiz-adv-x="510" 
d="M464 269h-145v-150q0 -59 -18 -104.5t-47.5 -71t-62 -38.5t-65.5 -13q-29 0 -53 4l-6 123q7 -1 30 -1q42 0 61 19t19 59v173h-131v115h131v83q0 110 58.5 168.5t133.5 58.5q29 0 54 -4l6 -123q-9 1 -30 1q-42 0 -61 -19t-19 -59v-106h145v-115z" />
    <glyph glyph-name="uni2007.tf" horiz-adv-x="510" 
 />
    <glyph glyph-name="Euro.tf" horiz-adv-x="510" 
d="M482 31q-61 -41 -164 -41q-92 0 -160 59.5t-77 185.5h-64l15 74h44v22q0 18 2 44h-61l15 74h52q9 67 33.5 116t59 76.5t72 40t78.5 12.5q82 0 147 -22l-13 -117q-56 20 -120 20q-110 0 -120 -126h189l-14 -74h-179q-1 -15 -1 -40v-26h198l-14 -74h-180q11 -117 124 -117
q69 0 118 32z" />
    <glyph glyph-name="numbersign.lf" 
d="M492 413h-92l-29 -133h76v-106h-99l-37 -174h-80l38 174h-91l-37 -174h-80l38 174h-76v106h98l29 133h-82v106h105l35 163h79l-35 -163h91l35 163h79l-35 -163h70v-106zM320 413h-90l-29 -133h90z" />
    <glyph glyph-name="dollar.lf" 
d="M469 234q0 -62 -36.5 -103t-98.5 -55v-86h-57v76q-10 -1 -30 -1h-18v-75h-57v82q-66 11 -104 33l23 115q66 -46 156 -46q85 0 85 47q0 23 -27 40t-66 30.5t-77.5 31.5t-65.5 53t-27 85q0 53 31.5 93t89.5 57v83h57v-70q24 2 38 2h10v68h57v-72q53 -6 92 -18l-15 -112
q-65 25 -141 25q-82 0 -82 -47q0 -20 27 -37.5t66 -32.5t77.5 -34t65.5 -53t27 -79z" />
    <glyph glyph-name="zero.lf" 
d="M490 344q0 -174 -60.5 -264t-173.5 -90t-169.5 86t-56.5 268q0 174 60.5 262t173.5 88q226 0 226 -350zM343 344q0 138 -19.5 186t-64.5 48q-43 0 -62.5 -53t-19.5 -181q0 -132 18.5 -185t63.5 -53q46 0 65 55.5t19 182.5z" />
    <glyph glyph-name="one.lf" 
d="M485 125l-12 -125h-397v125h150v427l-128 -25l-20 113l184 42h109v-557h114z" />
    <glyph glyph-name="two.lf" 
d="M480 131l-12 -131h-443v120q163 133 222 210.5t59 129.5q0 48 -31 73t-84 25q-72 0 -124 -34l-28 131q80 39 178 39q112 0 179 -56t67 -162q0 -65 -48.5 -145.5t-182.5 -199.5h248z" />
    <glyph glyph-name="three.lf" 
d="M452 229q0 -104 -111 -171.5t-288 -67.5l-13 131q128 4 191 29t63 75q0 41 -34 55.5t-96 14.5h-56v122h55q126 0 126 80q0 34 -24 51.5t-64 17.5q-77 0 -115 -25l-28 118q70 35 169 35q88 0 145 -41.5t57 -121.5q0 -101 -101 -153v-4q60 -12 92 -50.5t32 -94.5z" />
    <glyph glyph-name="four.lf" 
d="M496 169h-67v-169h-132v169h-262l-12 129l259 396l150 -10l-268 -397h133v121h132v-121h67v-118z" />
    <glyph glyph-name="five.lf" 
d="M465 220q0 -104 -98.5 -167t-283.5 -63l-18 131q131 2 190.5 24.5t59.5 70.5q0 80 -159 80q-59 0 -89 -3l41 389h346l-13 -129h-220l-17 -143h9q110 0 181 -47t71 -143z" />
    <glyph glyph-name="six.lf" 
d="M485 213q0 -101 -63 -162t-166 -61q-102 0 -161 71t-59 205q0 105 37 189.5t98 135t134 77t151 26.5l27 -129q-109 0 -191.5 -48t-107.5 -154h6q38 41 108 41q78 0 132.5 -48.5t54.5 -142.5zM344 204q0 47 -25 68.5t-62 21.5t-60.5 -23t-23.5 -67q0 -47 22 -72.5
t61 -25.5q88 0 88 98z" />
    <glyph glyph-name="seven.lf" 
d="M473 556l-311 -562l-136 14l300 547h-278l-17 127h442v-126z" />
    <glyph glyph-name="eight.lf" 
d="M485 186q0 -86 -67 -141t-166 -55q-104 0 -160 51t-56 130q0 58 28 99.5t90 76.5q-102 65 -102 170q0 78 58 127.5t153 49.5q100 0 152 -44t52 -116q0 -108 -105 -168q73 -44 98 -83.5t25 -96.5zM348 517q0 34 -22.5 53.5t-59.5 19.5t-60.5 -19t-23.5 -52q0 -62 104 -108
q26 14 44 44.5t18 61.5zM345 180q0 71 -119 122q-24 -15 -42 -46.5t-18 -64.5q0 -43 22.5 -66t64.5 -23t67 21t25 57z" />
    <glyph glyph-name="nine.lf" 
d="M484 418q0 -105 -37 -189.5t-98 -135t-134 -77t-151 -26.5l-27 129q109 0 191.5 48t107.5 154h-6q-38 -41 -108 -41q-78 0 -132.5 48.5t-54.5 142.5q0 101 63 162t166 61q102 0 161 -71t59 -205zM347 480q0 47 -22 72.5t-61 25.5q-88 0 -88 -98q0 -47 25 -68.5t62 -21.5
t60.5 23t23.5 67z" />
    <glyph glyph-name="cent.lf" 
d="M454 127q-44 -17 -106 -25v-112h-91v111q-90 11 -148 71.5t-58 166.5q0 116 58 178.5t148 76.5v100h91v-101q60 -6 105 -24l-16 -119q-58 23 -131 23q-117 0 -117 -130q0 -59 33 -88t88 -29q68 0 128 29z" />
    <glyph glyph-name="sterling.lf" 
d="M469 0h-415v109q112 0 112 87q0 30 -29 97h-78v99h33q-31 69 -31 116q0 83 56 134.5t153 51.5q112 0 173 -29l-26 -117q-64 28 -136 28q-82 0 -82 -74q0 -28 39 -110h203v-99h-160q14 -45 14 -73q0 -36 -12.5 -59.5t-39.5 -48.5h226v-112z" />
    <glyph glyph-name="currency.lf" 
d="M487 406l-52 -53q34 -52 34 -114q0 -66 -38 -122l53 -53l-70 -64l-50 56q-51 -28 -104 -28q-58 0 -106 28l-51 -56l-69 64l51 53q-34 51 -34 117q0 68 33 117l-48 51l70 63l46 -51q51 30 108 30q56 0 108 -29l49 55zM355 237q0 45 -27.5 74t-66.5 29q-38 0 -67 -29
t-29 -74q0 -46 26.5 -75.5t65.5 -29.5q40 0 69 29.5t29 75.5z" />
    <glyph glyph-name="yen.lf" 
d="M519 682l-165 -372h98v-115h-117v-195h-149v195h-117v115h98l-162 363l159 14l82 -226q11 -30 15 -50h11q5 24 15 50l88 221h144z" />
    <glyph glyph-name="section.lf" 
d="M484 359q0 -96 -103 -151q22 -29 22 -62q0 -73 -59.5 -114.5t-151.5 -41.5q-53 0 -92 9l19 104q45 -11 104 -11q56 0 56 33q0 17 -38 34.5t-83 33t-83 50.5t-38 82q0 96 102 150q-21 27 -21 63q0 73 59.5 114.5t151.5 41.5q53 0 92 -9l-19 -104q-45 11 -104 11
q-56 0 -56 -33q0 -17 38 -34.5t83 -33t83 -50.5t38 -82zM352 331q0 12 -6.5 21.5t-21.5 18.5t-28 15t-36.5 15.5t-36.5 15.5q-54 -21 -54 -64q0 -12 6.5 -22t22 -19t27.5 -14.5t36.5 -16t36.5 -15.5q54 23 54 65z" />
    <glyph glyph-name="florin.lf" 
d="M469 269h-145v-150q0 -59 -18 -104.5t-47.5 -71t-62 -38.5t-65.5 -13q-29 0 -53 4l-6 123q7 -1 30 -1q42 0 61 19t19 59v173h-131v115h131v83q0 110 58.5 168.5t133.5 58.5q29 0 54 -4l6 -123q-9 1 -30 1q-42 0 -61 -19t-19 -59v-106h145v-115z" />
    <glyph glyph-name="Euro.lf" 
d="M487 31q-61 -41 -164 -41q-93 0 -160.5 59.5t-76.5 185.5h-64l15 74h44v22q0 18 2 44h-61l15 74h52q9 67 33.5 116t59 76.5t72 40t78.5 12.5q82 0 147 -22l-13 -117q-56 20 -120 20q-110 0 -120 -126h189l-14 -74h-179q-1 -15 -1 -40v-26h198l-14 -74h-180
q11 -117 124 -117q69 0 118 32z" />
    <glyph glyph-name="numbersign.tosf" horiz-adv-x="510" 
d="M487 413h-92l-29 -133h76v-106h-99l-37 -174h-80l38 174h-91l-37 -174h-80l38 174h-76v106h98l29 133h-82v106h105l35 163h79l-35 -163h91l35 163h79l-35 -163h70v-106zM315 413h-90l-29 -133h90z" />
    <glyph glyph-name="dollar.tosf" horiz-adv-x="510" 
d="M464 234q0 -62 -36.5 -103t-98.5 -55v-86h-57v76q-10 -1 -30 -1h-18v-75h-57v82q-66 11 -104 33l23 115q66 -46 156 -46q85 0 85 47q0 23 -27 40t-66 30.5t-77.5 31.5t-65.5 53t-27 85q0 53 31.5 93t89.5 57v83h57v-70q24 2 38 2h10v68h57v-72q53 -6 92 -18l-15 -112
q-65 25 -141 25q-82 0 -82 -47q0 -20 27 -37.5t65.5 -32.5t77.5 -34t66 -53t27 -79z" />
    <glyph glyph-name="zero.tosf" horiz-adv-x="510" 
d="M485 250q0 -121 -63 -190.5t-171 -69.5q-109 0 -167.5 67t-58.5 193q0 121 63 189.5t171 68.5q107 0 166.5 -68t59.5 -190zM339 251q0 81 -19 112t-65 31q-43 0 -63.5 -34.5t-20.5 -108.5q0 -78 18.5 -112.5t64.5 -34.5q85 0 85 147z" />
    <glyph glyph-name="one.tosf" horiz-adv-x="510" 
d="M479 122l-11 -122h-385v122h141v258l-120 -25l-20 111l173 42h109v-386h113z" />
    <glyph glyph-name="two.tosf" horiz-adv-x="510" 
d="M472 122l-12 -122h-437v103q158 70 212 113.5t54 89.5q0 76 -91 76q-64 0 -113 -29l-28 121q69 34 171 34q96 0 153 -45t57 -132q0 -119 -168 -209h202z" />
    <glyph glyph-name="three.tosf" horiz-adv-x="510" 
d="M447 43q0 -104 -111 -171t-288 -67l-13 131q129 4 191.5 28.5t62.5 74.5q0 41 -34 55.5t-96 14.5h-56v122h55q126 0 126 80q0 34 -24 51.5t-64 17.5q-77 0 -115 -25l-28 118q70 35 169 35q88 0 145 -41.5t57 -121.5q0 -101 -101 -153v-4q60 -12 92 -50.5t32 -94.5z" />
    <glyph glyph-name="four.tosf" horiz-adv-x="510" 
d="M491 0h-67v-188h-132v188h-262l-12 129l259 378l150 -10l-268 -379h133v121h132v-121h67v-118z" />
    <glyph glyph-name="five.tosf" horiz-adv-x="510" 
d="M460 36q0 -104 -98.5 -167.5t-283.5 -63.5l-18 129q130 2 190 25.5t60 72.5q0 80 -159 80q-59 0 -89 -3l41 389h346l-13 -129h-220l-17 -143h9q110 0 181 -47t71 -143z" />
    <glyph glyph-name="six.tosf" horiz-adv-x="510" 
d="M480 213q0 -101 -63 -162t-166 -61q-102 0 -161 71t-59 205q0 105 37 189t98 134.5t134 77t151 26.5l27 -129q-109 0 -191.5 -47.5t-107.5 -153.5h6q38 41 108 41q78 0 132.5 -48.5t54.5 -142.5zM339 204q0 47 -25 68.5t-62 21.5t-60.5 -23t-23.5 -67q0 -47 22 -72.5
t61 -25.5q88 0 88 98z" />
    <glyph glyph-name="seven.tosf" horiz-adv-x="510" 
d="M468 372l-311 -559l-136 14l300 544h-278l-17 127h442v-126z" />
    <glyph glyph-name="eight.tosf" horiz-adv-x="510" 
d="M480 186q0 -86 -67 -141t-166 -55q-104 0 -160 51t-56 130q0 58 28 99.5t90 76.5q-102 65 -102 170q0 77 57.5 126t153.5 49q100 0 152 -43.5t52 -114.5q0 -108 -105 -168q73 -44 98 -83.5t25 -96.5zM343 517q0 34 -22.5 53.5t-59.5 19.5t-60.5 -19t-23.5 -52
q0 -62 104 -108q26 14 44 44.5t18 61.5zM340 180q0 71 -119 122q-24 -15 -42 -46.5t-18 -64.5q0 -43 22.5 -66t64.5 -23t67 21t25 57z" />
    <glyph glyph-name="nine.tosf" horiz-adv-x="510" 
d="M479 232q0 -105 -37 -189t-98 -134.5t-134 -77t-151 -26.5l-27 129q109 0 191.5 47.5t107.5 153.5h-6q-38 -41 -108 -41q-78 0 -132.5 48.5t-54.5 142.5q0 101 63 162t166 61q102 0 161 -71t59 -205zM342 294q0 47 -22 72.5t-61 25.5q-88 0 -88 -98q0 -47 25 -68.5
t62 -21.5t60.5 23t23.5 67z" />
    <glyph glyph-name="cent.tosf" horiz-adv-x="510" 
d="M449 127q-44 -17 -106 -25v-112h-91v111q-90 11 -148 71.5t-58 166.5q0 116 58 178.5t148 76.5v100h91v-101q60 -6 105 -24l-16 -119q-58 23 -131 23q-117 0 -117 -130q0 -59 33 -88t88 -29q68 0 128 29z" />
    <glyph glyph-name="sterling.tosf" horiz-adv-x="510" 
d="M464 0h-415v109q112 0 112 87q0 30 -29 97h-78v99h33q-31 69 -31 116q0 83 56 134.5t153 51.5q112 0 173 -29l-26 -117q-64 28 -136 28q-82 0 -82 -74q0 -28 39 -110h203v-99h-160q14 -45 14 -73q0 -36 -12.5 -59.5t-39.5 -48.5h226v-112z" />
    <glyph glyph-name="currency.tosf" horiz-adv-x="510" 
d="M482 406l-52 -53q34 -52 34 -114q0 -66 -38 -122l53 -53l-70 -64l-50 56q-51 -28 -104 -28q-58 0 -106 28l-51 -56l-69 64l51 53q-34 51 -34 117q0 68 33 117l-48 51l70 63l46 -51q51 30 108 30q56 0 108 -29l49 55zM350 237q0 45 -27.5 74t-66.5 29q-38 0 -67 -29
t-29 -74q0 -46 26.5 -75.5t65.5 -29.5q40 0 69 29.5t29 75.5z" />
    <glyph glyph-name="yen.tosf" horiz-adv-x="510" 
d="M514 682l-165 -372h98v-115h-117v-195h-149v195h-117v115h98l-162 363l159 14l82 -226q11 -30 15 -50h11q5 24 15 50l88 221h144z" />
    <glyph glyph-name="section.tosf" horiz-adv-x="510" 
d="M479 359q0 -96 -103 -151q22 -29 22 -62q0 -73 -59.5 -114.5t-151.5 -41.5q-53 0 -92 9l19 104q45 -11 104 -11q56 0 56 33q0 17 -38 34.5t-83 33t-83 50.5t-38 82q0 96 102 150q-21 27 -21 63q0 73 59.5 114.5t151.5 41.5q53 0 92 -9l-19 -104q-45 11 -104 11
q-56 0 -56 -33q0 -17 38 -34.5t83 -33t83 -50.5t38 -82zM347 331q0 12 -6.5 21.5t-21.5 18.5t-28 15t-36.5 15.5t-36.5 15.5q-54 -21 -54 -64q0 -12 6.5 -22t22 -19t27.5 -14.5t36.5 -16t36.5 -15.5q54 23 54 65z" />
    <glyph glyph-name="florin.tosf" horiz-adv-x="510" 
d="M464 269h-145v-150q0 -59 -18 -104.5t-47.5 -71t-62 -38.5t-65.5 -13q-29 0 -53 4l-6 123q7 -1 30 -1q42 0 61 19t19 59v173h-131v115h131v83q0 110 58.5 168.5t133.5 58.5q29 0 54 -4l6 -123q-9 1 -30 1q-42 0 -61 -19t-19 -59v-106h145v-115z" />
    <glyph glyph-name="uni2007.tosf" horiz-adv-x="510" 
 />
    <glyph glyph-name="Euro.tosf" horiz-adv-x="510" 
d="M482 31q-61 -41 -164 -41q-92 0 -160 59.5t-77 185.5h-64l15 74h44v22q0 18 2 44h-61l15 74h52q9 67 33.5 116t59 76.5t72 40t78.5 12.5q82 0 147 -22l-13 -117q-56 20 -120 20q-110 0 -120 -126h189l-14 -74h-179q-1 -15 -1 -40v-26h198l-14 -74h-180q11 -117 124 -117
q69 0 118 32z" />
    <glyph glyph-name="numbersign.sc" 
d="M482 306h-79l-23 -106h83v-81h-101l-26 -119h-90l26 119h-82l-26 -119h-90l26 119h-62v81h80l24 106h-86v82h104l24 110h89l-24 -110h83l24 110h89l-24 -110h61v-82zM314 306h-83l-23 -106h82z" />
    <glyph glyph-name="dollar.sc" 
d="M469 149q0 -58 -36.5 -94.5t-98.5 -48.5v-74h-57v66q-10 -1 -25 -1q-10 0 -23 1v-66h-57v70q-71 10 -104 28l23 111q66 -41 156 -41q49 0 67 8.5t18 28.5t-27 33.5t-66 23.5t-77.5 24.5t-65.5 47.5t-27 82q0 50 30 86.5t91 51.5v72h57v-64q12 1 27 1q11 0 21 -1v64h57
v-65q46 -3 92 -15l-15 -108q-61 22 -146 22q-44 0 -60.5 -8t-16.5 -28q0 -16 19.5 -27.5t48.5 -18.5t63.5 -19.5t63.5 -27.5t48.5 -44.5t19.5 -69.5z" />
    <glyph glyph-name="percent.sc" horiz-adv-x="724" 
d="M328 371q0 -62 -37.5 -99.5t-103.5 -37.5q-67 0 -102.5 36t-35.5 101q0 62 38 99.5t104 37.5q65 0 101 -36.5t36 -100.5zM230 371q0 66 -42 66q-41 0 -41 -66t41 -66q42 0 42 66zM581 498l-368 -498h-69l369 498h68zM675 127q0 -62 -37.5 -99.5t-103.5 -37.5
q-67 0 -102.5 36t-35.5 101q0 62 38 99.5t104 37.5q65 0 101 -36.5t36 -100.5zM577 127q0 66 -42 66q-41 0 -41 -66t41 -66q42 0 42 66z" />
    <glyph glyph-name="ampersand.sc" horiz-adv-x="731" 
d="M713 11l-167 -23l-55 44q-84 -42 -197 -42q-125 0 -187 49t-62 131q0 125 147 180q-1 7 -1 14q0 65 51 104.5t135 39.5q71 0 132 -18l-25 -114q-41 19 -90 19q-33 0 -49.5 -14t-16.5 -35q0 -32 52 -73l108 -86q42 55 48 136l140 -11q-8 -121 -85 -206zM388 114l-92 75
q-45 37 -64 60q-47 -18 -47 -72q0 -76 120 -76q47 0 83 13z" />
    <glyph glyph-name="zero.sc" 
d="M485 250q0 -122 -60.5 -191t-168.5 -69t-164.5 66.5t-56.5 193.5q0 121 61 189.5t168 68.5t164 -67.5t57 -190.5zM339 251q0 82 -17 112.5t-62 30.5q-42 0 -60.5 -33.5t-18.5 -109.5q0 -80 16 -113.5t62 -33.5q45 0 62.5 37t17.5 110z" />
    <glyph glyph-name="one.sc" 
d="M484 122l-11 -122h-385v122h141v258l-120 -25l-20 111l173 42h109v-386h113z" />
    <glyph glyph-name="two.sc" 
d="M477 122l-12 -122h-425v103q156 78 205 121t49 87q0 71 -92 71q-63 0 -112 -29l-28 121q69 34 171 34q96 0 153 -45t57 -132q0 -114 -168 -209h202z" />
    <glyph glyph-name="three.sc" 
d="M446 124q0 -89 -84.5 -139t-292.5 -50l-16 126q127 0 181 15t54 51q0 26 -18 35t-58 9h-90v121h60q64 0 86.5 9t22.5 39q0 47 -88 47q-73 0 -115 -22l-28 116q68 27 169 27q103 0 154 -38t51 -106q0 -79 -83 -117v-6q95 -33 95 -117z" />
    <glyph glyph-name="four.sc" 
d="M487 46h-61v-104h-132v104h-253l-12 129l250 332l148 -10l-259 -333h126v121h132v-121h61v-118z" />
    <glyph glyph-name="five.sc" 
d="M463 128q0 -90 -79.5 -141.5t-251.5 -51.5q-31 0 -47 1l-18 124q25 -1 68 -1q98 0 138 13.5t40 47.5q0 33 -27 45t-100 12q-97 0 -117 -2l41 323h342l-13 -122h-216l-15 -88q18 1 35 1q107 0 163.5 -41.5t56.5 -119.5z" />
    <glyph glyph-name="six.sc" 
d="M471 175q0 -82 -57 -133.5t-153 -51.5q-101 0 -156.5 56.5t-55.5 164.5q0 162 109.5 257t286.5 95l19 -118q-207 0 -266 -131h6q37 37 98 37q76 0 122.5 -44t46.5 -132zM331 176q0 73 -71 73q-72 0 -72 -75q0 -39 16.5 -58t54.5 -19q72 0 72 79z" />
    <glyph glyph-name="seven.sc" 
d="M468 372l-267 -438l-139 14l259 423h-268l-17 127h432v-126z" />
    <glyph glyph-name="eight.sc" 
d="M472 141q0 -72 -58.5 -111.5t-161.5 -39.5q-204 0 -204 131q0 87 95 128q-42 22 -60.5 49.5t-18.5 69.5q0 65 53 102.5t149 37.5t144 -31.5t48 -86.5q0 -80 -83 -120q53 -23 75 -53.5t22 -75.5zM332 362q0 52 -63 52q-64 0 -64 -48q0 -40 80 -60q47 18 47 56zM328 137
q0 49 -99 73q-20 -8 -32 -26t-12 -40q0 -30 15.5 -45t53.5 -15q74 0 74 53z" />
    <glyph glyph-name="nine.sc" 
d="M471 287q0 -162 -109.5 -257t-286.5 -95l-19 118q207 0 266 131h-6q-37 -37 -98 -37q-76 0 -122.5 44t-46.5 132q0 82 57 133.5t153 51.5q101 0 156.5 -56.5t55.5 -164.5zM332 324q0 39 -16.5 58t-54.5 19q-72 0 -72 -79q0 -73 71 -73q72 0 72 75z" />
    <glyph glyph-name="a.sc" horiz-adv-x="579" 
d="M574 3l-158 -6l-38 104h-192l-36 -101h-145l197 498h162zM342 199l-45 120q-9 24 -11 47h-11q-2 -21 -11 -48l-43 -119h121z" />
    <glyph glyph-name="b.sc" horiz-adv-x="550" 
d="M501 138q0 -63 -50 -102.5t-145 -39.5q-41 0 -150 4h-74v498h69q21 0 69 2t66 2q88 0 133.5 -33t45.5 -93q0 -76 -59 -111v-7q95 -27 95 -120zM330 358q0 53 -66 53q-28 0 -44 -1v-110h36q74 0 74 58zM355 149q0 56 -80 56h-55v-110q5 0 29 -0.5t36 -0.5q33 0 51.5 14.5
t18.5 40.5z" />
    <glyph glyph-name="c.sc" horiz-adv-x="565" 
d="M516 23q-78 -33 -187 -33q-119 0 -201.5 67.5t-82.5 180.5q0 127 83.5 198.5t199.5 71.5q112 0 189 -31l-27 -126q-64 31 -140 31q-64 0 -103.5 -34t-39.5 -105q0 -62 42 -94.5t105 -32.5q76 0 136 30z" />
    <glyph glyph-name="d.sc" horiz-adv-x="640" 
d="M595 258q0 -126 -76 -194.5t-199 -68.5q-26 0 -75 2.5t-70 2.5h-93v498h90q26 0 75 2t70 2q127 0 202.5 -64.5t75.5 -179.5zM438 249q0 79 -40.5 111t-116.5 32q-23 0 -56 -3v-280q42 -4 64 -4q149 0 149 144z" />
    <glyph glyph-name="e.sc" horiz-adv-x="519" 
d="M467 112l-4 -112h-381v498h374l-6 -112h-224v-81h207v-108h-207v-85h241z" />
    <glyph glyph-name="f.sc" horiz-adv-x="511" 
d="M459 498l-8 -119h-223v-111h206v-118h-206v-150h-146v498h377z" />
    <glyph glyph-name="g.sc" horiz-adv-x="619" 
d="M546 26q-102 -36 -222 -36q-118 0 -198.5 67.5t-80.5 180.5q0 127 85 198.5t201 71.5q111 0 189 -31l-27 -126q-64 31 -140 31q-65 0 -105.5 -34.5t-40.5 -104.5q0 -63 39.5 -95.5t102.5 -32.5q28 0 53 5v113h144v-207z" />
    <glyph glyph-name="h.sc" horiz-adv-x="673" 
d="M591 0h-148v195h-213v-195h-148v498h148v-178h213v178h148v-498z" />
    <glyph glyph-name="i.sc" horiz-adv-x="312" 
d="M230 0h-148v498h148v-498z" />
    <glyph glyph-name="j.sc" horiz-adv-x="320" 
d="M238 89q0 -239 -242 -244l-15 134q69 2 89 31.5t20 94.5v393h148v-409z" />
    <glyph glyph-name="k.sc" horiz-adv-x="591" 
d="M224 0h-142v498h142v-201l205 207l155 -19l-200 -194l207 -283l-171 -13l-135 201l-61 -59v-137z" />
    <glyph glyph-name="l.sc" horiz-adv-x="488" 
d="M462 120l-7 -120h-373v498h144v-378h236z" />
    <glyph glyph-name="m.sc" horiz-adv-x="824" 
d="M760 2l-144 -4l-16 277q-1 10 -1 44h-10q-5 -27 -13 -50l-117 -269h-113l-113 268q-10 23 -13 51h-10q0 -33 -1 -45l-18 -274h-127l42 498h155l134 -298q8 -20 12 -48h10q3 21 13 48l133 298h155z" />
    <glyph glyph-name="n.sc" horiz-adv-x="672" 
d="M590 1l-120 -11l-220 283q-22 27 -31 54h-8q2 -26 2 -43v-284h-131v498h147l193 -248q22 -27 31 -56h8q-2 28 -2 47v257h131v-497z" />
    <glyph glyph-name="o.sc" horiz-adv-x="660" 
d="M615 258q0 -128 -82.5 -198t-212.5 -70q-117 0 -196 66.5t-79 182.5q0 126 80.5 197.5t211.5 71.5q119 0 198.5 -67.5t79.5 -182.5zM453 251q0 68 -34 105t-87 37q-56 0 -90.5 -36.5t-34.5 -107.5q0 -69 32 -106.5t89 -37.5q58 0 91.5 39.5t33.5 106.5z" />
    <glyph glyph-name="p.sc" horiz-adv-x="547" 
d="M502 331q0 -86 -56.5 -135t-148.5 -49q-18 0 -34 2l-10 110q13 -2 29 -2q32 0 55.5 17.5t23.5 52.5q0 70 -83 70q-20 0 -52 -2v-395h-144v498h51q22 0 88.5 2t83.5 2q89 0 143 -45.5t54 -125.5z" />
    <glyph glyph-name="q.sc" horiz-adv-x="660" 
d="M684 -98l-115 -77l-263 171h-7q-105 0 -179.5 65t-74.5 178q0 126 80.5 197.5t211.5 71.5q119 0 198.5 -67.5t79.5 -182.5q0 -161 -132 -227v-4zM453 251q0 68 -34 105t-87 37q-56 0 -90.5 -36.5t-34.5 -107.5q0 -69 32 -106.5t89 -37.5q58 0 91.5 39.5t33.5 106.5z" />
    <glyph glyph-name="r.sc" horiz-adv-x="578" 
d="M578 8l-157 -14l-132 172h-67v-166h-140v498h100q10 0 64 2t78 2q81 0 129 -39t48 -105q0 -99 -89 -139zM357 337q0 64 -83 64q-22 0 -52 -2v-129h47q88 0 88 67z" />
    <glyph glyph-name="s.sc" horiz-adv-x="476" 
d="M431 143q0 -67 -57.5 -110t-149.5 -43q-112 0 -187 37l23 118q71 -46 146 -46q73 0 73 42q0 17 -23.5 32.5t-57 29.5t-67 31.5t-57 48t-23.5 70.5q0 68 56.5 111.5t150.5 43.5q95 0 159 -16l-19 -117q-51 24 -121 24q-41 0 -56.5 -8t-15.5 -30q0 -14 23.5 -27t56.5 -27
t66 -33t56.5 -52.5t23.5 -78.5z" />
    <glyph glyph-name="t.sc" horiz-adv-x="540" 
d="M515 498l-6 -120h-165v-378h-148v378h-165l-6 120h490z" />
    <glyph glyph-name="u.sc" horiz-adv-x="625" 
d="M550 498v-317q0 -87 -62.5 -139t-175.5 -52q-111 0 -174 49t-63 139v320h150v-276q0 -58 21 -82t74 -24q96 0 96 106v276h134z" />
    <glyph glyph-name="v.sc" horiz-adv-x="577" 
d="M568 498l-192 -498h-162l-204 495l159 6l114 -311q9 -24 11 -47h9q2 21 11 48l107 307h147z" />
    <glyph glyph-name="w.sc" horiz-adv-x="900" 
d="M877 498l-156 -498h-164l-95 311q-8 26 -10 46h-10q-1 -16 -11 -46l-101 -311h-152l-154 494l148 8l81 -304q6 -26 8 -45h11q2 19 10 44l94 301h160l91 -300q7 -23 10 -45h10q2 24 8 45l83 300h139z" />
    <glyph glyph-name="x.sc" horiz-adv-x="614" 
d="M594 5l-170 -10l-114 177l-126 -172h-168l206 255l-194 239l169 9l114 -148l110 143h167l-189 -226z" />
    <glyph glyph-name="y.sc" horiz-adv-x="560" 
d="M545 498l-191 -338v-160h-148v160l-189 333l154 8l90 -173q15 -29 19 -48h10q4 18 18 47l88 171h149z" />
    <glyph glyph-name="z.sc" horiz-adv-x="568" 
d="M506 0h-456l-6 118l289 261h-255l-5 119h425l9 -114l-291 -263h280z" />
    <glyph glyph-name="cent.sc" 
d="M454 26q-47 -18 -106 -23v-61h-92v60q-90 11 -147.5 71.5t-57.5 166.5q0 116 58 178.5t147 76.5v63h92v-64q54 -2 105 -22l-16 -117q-63 23 -131 23q-117 0 -117 -134q0 -60 33.5 -91.5t87.5 -31.5q68 0 128 30z" />
    <glyph glyph-name="sterling.sc" 
d="M421 207h-157q2 -10 2 -14q0 -47 -38 -81h253v-112h-414v102q72 7 72 53q0 19 -14 52h-65v89h24q-7 23 -7 40q0 74 52.5 123t152.5 49q97 0 171 -26l-16 -113q-65 28 -148 28q-79 0 -79 -54q0 -17 14 -47h197v-89z" />
    <glyph glyph-name="yen.sc" 
d="M513 498l-159 -266h89v-105h-111v-127h-143v127h-111v105h89l-156 257l153 14l82 -157q13 -26 16 -50h9q4 29 16 50l88 152h138z" />
    <glyph glyph-name="section.sc" 
d="M484 225q0 -82 -92 -125q10 -22 10 -44q0 -63 -52.5 -101t-138.5 -38q-61 0 -112 8l19 102q52 -11 104 -11q56 0 56 25q0 13 -38 23.5t-83 20t-83 39.5t-38 76q0 82 91 125q-9 18 -9 44q0 63 52.5 101t138.5 38q61 0 112 -8l-19 -102q-52 11 -104 11q-56 0 -56 -25
q0 -13 38 -23.5t83 -20t83 -39.5t38 -76zM352 202q0 16 -20.5 25.5t-63.5 19.5t-65 18q-35 -15 -35 -42q0 -17 20 -26.5t63 -19.5t65 -18q36 15 36 43z" />
    <glyph glyph-name="ordfeminine.sc" horiz-adv-x="385" 
d="M367 429l-108 -4l-20 52h-102l-18 -51h-101l111 263h122zM220 538l-23 61q-5 13 -7 24h-6q0 -11 -7 -24l-22 -61h65z" />
    <glyph glyph-name="twosuperior.sc" horiz-adv-x="430" 
d="M377 240l-9 -89h-314v81q119 45 158.5 75t39.5 62q0 47 -67 47q-54 0 -99 -26l-18 94q66 24 132 24q73 0 118 -34t45 -91q0 -82 -113 -143h127z" />
    <glyph glyph-name="threesuperior.sc" horiz-adv-x="430" 
d="M360 258q0 -115 -290 -115l-11 86q101 0 141.5 7.5t40.5 29.5q0 15 -11.5 19.5t-41.5 4.5h-80v79h56q42 0 59 5.5t17 22.5q0 16 -14.5 21.5t-45.5 5.5q-48 0 -96 -19l-12 86q53 17 119 17q75 0 114.5 -24t39.5 -67q0 -59 -70 -76v-3q85 -11 85 -80z" />
    <glyph glyph-name="paragraph.sc" 
d="M453 -81h-75v467l-31 5v-472h-75v478h-9q-43 0 -68.5 -24t-25.5 -96q0 -96 62 -96q10 0 18 2l9 -102q-26 -11 -67 -11q-69 0 -117.5 49t-48.5 146q0 64 20 112.5t53.5 76t74 41t86.5 13.5q101 0 194 -30v-559z" />
    <glyph glyph-name="onesuperior.sc" horiz-adv-x="430" 
d="M358 151h-297v89h112v169l-94 -12l-8 80l116 21h93v-258h84z" />
    <glyph glyph-name="ordmasculine.sc" horiz-adv-x="385" 
d="M356 563q0 -68 -47 -105.5t-123 -37.5q-70 0 -113.5 35t-43.5 97q0 68 47.5 105t122.5 37q69 0 113 -35t44 -96zM249 558q0 33 -16.5 48t-40.5 15q-56 0 -56 -64q0 -33 16 -48.5t40 -15.5q57 0 57 65z" />
    <glyph glyph-name="onequarter.sc" horiz-adv-x="1024" 
d="M969 67h-53v-67h-104v67h-187l-5 92l176 197l106 -8l-190 -202h100v67h104v-67h53v-79zM736 498l-344 -498h-110l345 498h109zM358 151h-297v89h112v169l-94 -12l-8 80l116 21h93v-258h84z" />
    <glyph glyph-name="onehalf.sc" horiz-adv-x="1024" 
d="M971 89l-9 -89h-314v81q119 45 158.5 75t39.5 62q0 47 -67 47q-54 0 -99 -26l-18 94q66 24 132 24q73 0 118 -34t45 -91q0 -82 -113 -143h127zM736 498l-344 -498h-110l345 498h109zM358 151h-297v89h112v169l-94 -12l-8 80l116 21h93v-258h84z" />
    <glyph glyph-name="threequarters.sc" horiz-adv-x="1024" 
d="M969 67h-53v-67h-104v67h-187l-5 92l176 197l106 -8l-190 -202h100v67h104v-67h53v-79zM736 498l-344 -498h-110l345 498h109zM360 258q0 -115 -290 -115l-11 86q101 0 141.5 7.5t40.5 29.5q0 15 -11.5 19.5t-41.5 4.5h-80v79h56q42 0 59 5.5t17 22.5q0 16 -14.5 21.5
t-45.5 5.5q-48 0 -96 -19l-12 86q53 17 119 17q75 0 114.5 -24t39.5 -67q0 -59 -70 -76v-3q85 -11 85 -80z" />
    <glyph glyph-name="germandbls.sc" horiz-adv-x="952" 
d="M431 143q0 -67 -57.5 -110t-149.5 -43q-112 0 -187 37l23 118q71 -46 146 -46q73 0 73 42q0 17 -23.5 32.5t-57 29.5t-67 31.5t-57 48t-23.5 70.5q0 68 56.5 111.5t150.5 43.5q95 0 159 -16l-19 -117q-51 24 -121 24q-41 0 -56.5 -8t-15.5 -30q0 -14 23.5 -27t56.5 -27
t66 -33t56.5 -52.5t23.5 -78.5zM907 143q0 -67 -57.5 -110t-149.5 -43q-112 0 -187 37l23 118q71 -46 146 -46q73 0 73 42q0 17 -23.5 32.5t-57 29.5t-67 31.5t-57 48t-23.5 70.5q0 68 56.5 111.5t150.5 43.5q95 0 159 -16l-19 -117q-51 24 -121 24q-41 0 -56.5 -8
t-15.5 -30q0 -14 23.5 -27t56.5 -27t66 -33t56.5 -52.5t23.5 -78.5z" />
    <glyph glyph-name="agrave.sc" horiz-adv-x="579" 
d="M574 3l-158 -6l-38 104h-192l-36 -101h-145l197 498h162zM342 199l-45 120q-9 24 -11 47h-11q-2 -21 -11 -48l-43 -119h121zM343 539h-98l-118 155h150z" />
    <glyph glyph-name="aacute.sc" horiz-adv-x="579" 
d="M574 3l-158 -6l-38 104h-192l-36 -101h-145l197 498h162zM342 199l-45 120q-9 24 -11 47h-11q-2 -21 -11 -48l-43 -119h121zM438 694l-118 -155h-98l66 155h150z" />
    <glyph glyph-name="acircumflex.sc" horiz-adv-x="579" 
d="M574 3l-158 -6l-38 104h-192l-36 -101h-145l197 498h162zM342 199l-45 120q-9 24 -11 47h-11q-2 -21 -11 -48l-43 -119h121zM458 542l-101 -6l-73 67l-72 -67l-99 6l108 152h127z" />
    <glyph glyph-name="atilde.sc" horiz-adv-x="579" 
d="M574 3l-158 -6l-38 104h-192l-36 -101h-145l197 498h162zM342 199l-45 120q-9 24 -11 47h-11q-2 -21 -11 -48l-43 -119h121zM458 664q-16 -70 -38 -97t-63 -27q-25 0 -71 23t-56 23q-19 0 -27.5 -8t-19.5 -38l-72 20q19 73 41 98.5t63 25.5q27 0 70 -23t55 -23
q19 0 27.5 8.5t19.5 37.5z" />
    <glyph glyph-name="adieresis.sc" horiz-adv-x="579" 
d="M574 3l-158 -6l-38 104h-192l-36 -101h-145l197 498h162zM342 199l-45 120q-9 24 -11 47h-11q-2 -21 -11 -48l-43 -119h121zM439 606q0 -26 -18 -45t-44 -19t-44 19t-18 45t18 44t44 18t44 -18t18 -44zM254 606q0 -26 -18 -45t-44 -19t-44 19t-18 45t18 44t44 18t44 -18
t18 -44z" />
    <glyph glyph-name="aring.sc" horiz-adv-x="579" 
d="M399 573q0 -48 -35 -76l210 -494l-158 -6l-38 104h-192l-36 -101h-145l196 497q-30 25 -30 68q0 47 32.5 75.5t84.5 28.5q49 0 80 -26.5t31 -69.5zM342 199l-45 120q-9 24 -11 47h-11q-2 -21 -11 -48l-43 -119h121zM317 571q0 36 -32 36q-34 0 -34 -37q0 -18 9 -27.5
t24 -9.5q33 0 33 38z" />
    <glyph glyph-name="ae.sc" horiz-adv-x="784" 
d="M732 112l-4 -112h-375v143h-153l-80 -143h-147l299 498h449l-6 -112h-224v-81h207v-108h-207v-85h241zM353 242v152h-11l-86 -152h97z" />
    <glyph glyph-name="ccedilla.sc" horiz-adv-x="565" 
d="M516 23q-78 -33 -187 -33q-119 0 -201.5 67.5t-82.5 180.5q0 127 83.5 198.5t199.5 71.5q112 0 189 -31l-27 -126q-64 31 -140 31q-64 0 -103.5 -34t-39.5 -105q0 -62 42 -94.5t105 -32.5q76 0 136 30zM404 -127q0 -47 -36.5 -72t-80.5 -25q-46 0 -76 16l17 67
q22 -11 47 -11q17 0 28 8t11 23q0 36 -51 40l11 53q54 0 92 -25t38 -74z" />
    <glyph glyph-name="egrave.sc" horiz-adv-x="519" 
d="M467 112l-4 -112h-381v498h374l-6 -112h-224v-81h207v-108h-207v-85h241zM317 539h-98l-118 155h150z" />
    <glyph glyph-name="eacute.sc" horiz-adv-x="519" 
d="M467 112l-4 -112h-381v498h374l-6 -112h-224v-81h207v-108h-207v-85h241zM412 694l-118 -155h-98l66 155h150z" />
    <glyph glyph-name="ecircumflex.sc" horiz-adv-x="519" 
d="M467 112l-4 -112h-381v498h374l-6 -112h-224v-81h207v-108h-207v-85h241zM442 542l-101 -6l-73 67l-72 -67l-99 6l108 152h127z" />
    <glyph glyph-name="edieresis.sc" horiz-adv-x="519" 
d="M467 112l-4 -112h-381v498h374l-6 -112h-224v-81h207v-108h-207v-85h241zM423 606q0 -26 -18 -45t-44 -19t-44 19t-18 45t18 44t44 18t44 -18t18 -44zM238 606q0 -26 -18 -45t-44 -19t-44 19t-18 45t18 44t44 18t44 -18t18 -44z" />
    <glyph glyph-name="igrave.sc" horiz-adv-x="312" 
d="M230 0h-148v498h148v-498zM222 539h-98l-118 155h150z" />
    <glyph glyph-name="iacute.sc" horiz-adv-x="312" 
d="M230 0h-148v498h148v-498zM305 694l-118 -155h-98l66 155h150z" />
    <glyph glyph-name="icircumflex.sc" horiz-adv-x="312" 
d="M230 0h-148v498h148v-498zM329 542l-101 -6l-73 67l-72 -67l-99 6l108 152h127z" />
    <glyph glyph-name="idieresis.sc" horiz-adv-x="312" 
d="M230 0h-148v498h148v-498zM311 606q0 -26 -18 -45t-44 -19t-44 19t-18 45t18 44t44 18t44 -18t18 -44zM126 606q0 -26 -18 -45t-44 -19t-44 19t-18 45t18 44t44 18t44 -18t18 -44z" />
    <glyph glyph-name="eth.sc" horiz-adv-x="640" 
d="M595 258q0 -126 -76 -194.5t-199 -68.5q-26 0 -75 2.5t-70 2.5h-93v210h-44v89h44v199h90q26 0 75 2t70 2q127 0 202.5 -64.5t75.5 -179.5zM438 249q0 79 -40.5 111t-116.5 32q-23 0 -56 -3v-90h97v-89h-97v-101q42 -4 64 -4q149 0 149 144z" />
    <glyph glyph-name="ntilde.sc" horiz-adv-x="672" 
d="M590 1l-120 -11l-220 283q-22 27 -31 54h-8q2 -26 2 -43v-284h-131v498h147l193 -248q22 -27 31 -56h8q-2 28 -2 47v257h131v-497zM510 664q-16 -70 -38 -97t-63 -27q-25 0 -71 23t-56 23q-19 0 -27.5 -8t-19.5 -38l-72 20q19 73 41 98.5t63 25.5q27 0 70 -23t55 -23
q19 0 27.5 8.5t19.5 37.5z" />
    <glyph glyph-name="ograve.sc" horiz-adv-x="660" 
d="M615 258q0 -128 -82.5 -198t-212.5 -70q-117 0 -196 66.5t-79 182.5q0 126 80.5 197.5t211.5 71.5q119 0 198.5 -67.5t79.5 -182.5zM453 251q0 68 -34 105t-87 37q-56 0 -90.5 -36.5t-34.5 -107.5q0 -69 32 -106.5t89 -37.5q58 0 91.5 39.5t33.5 106.5zM387 539h-98
l-118 155h150z" />
    <glyph glyph-name="oacute.sc" horiz-adv-x="660" 
d="M615 258q0 -128 -82.5 -198t-212.5 -70q-117 0 -196 66.5t-79 182.5q0 126 80.5 197.5t211.5 71.5q119 0 198.5 -67.5t79.5 -182.5zM453 251q0 68 -34 105t-87 37q-56 0 -90.5 -36.5t-34.5 -107.5q0 -69 32 -106.5t89 -37.5q58 0 91.5 39.5t33.5 106.5zM490 694
l-118 -155h-98l66 155h150z" />
    <glyph glyph-name="ocircumflex.sc" horiz-adv-x="660" 
d="M615 258q0 -128 -82.5 -198t-212.5 -70q-117 0 -196 66.5t-79 182.5q0 126 80.5 197.5t211.5 71.5q119 0 198.5 -67.5t79.5 -182.5zM453 251q0 68 -34 105t-87 37q-56 0 -90.5 -36.5t-34.5 -107.5q0 -69 32 -106.5t89 -37.5q58 0 91.5 39.5t33.5 106.5zM502 542l-101 -6
l-73 67l-72 -67l-99 6l108 152h127z" />
    <glyph glyph-name="otilde.sc" horiz-adv-x="660" 
d="M615 258q0 -128 -82.5 -198t-212.5 -70q-117 0 -196 66.5t-79 182.5q0 126 80.5 197.5t211.5 71.5q119 0 198.5 -67.5t79.5 -182.5zM453 251q0 68 -34 105t-87 37q-56 0 -90.5 -36.5t-34.5 -107.5q0 -69 32 -106.5t89 -37.5q58 0 91.5 39.5t33.5 106.5zM503 664
q-16 -70 -38 -97t-63 -27q-26 0 -71 23t-56 23q-19 0 -27.5 -8t-19.5 -38l-72 20q19 73 41 98.5t63 25.5q26 0 70 -23t55 -23q19 0 27.5 8.5t19.5 37.5z" />
    <glyph glyph-name="odieresis.sc" horiz-adv-x="660" 
d="M615 258q0 -128 -82.5 -198t-212.5 -70q-117 0 -196 66.5t-79 182.5q0 126 80.5 197.5t211.5 71.5q119 0 198.5 -67.5t79.5 -182.5zM453 251q0 68 -34 105t-87 37q-56 0 -90.5 -36.5t-34.5 -107.5q0 -69 32 -106.5t89 -37.5q58 0 91.5 39.5t33.5 106.5zM486 606
q0 -26 -18 -45t-44 -19t-44 19t-18 45t18 44t44 18t44 -18t18 -44zM301 606q0 -26 -18 -45t-44 -19t-44 19t-18 45t18 44t44 18t44 -18t18 -44z" />
    <glyph glyph-name="oslash.sc" horiz-adv-x="660" 
d="M615 258q0 -128 -82.5 -198t-212.5 -70q-82 0 -146 33l-62 -81h-47l77 100q-97 69 -97 197q0 126 80.5 197.5t211.5 71.5q76 0 141 -31l62 81h46l-76 -98q105 -71 105 -202zM453 251q0 58 -28 98l-170 -222q28 -22 73 -22q58 0 91.5 39.5t33.5 106.5zM207 249
q0 -56 22 -94l169 219q-28 19 -66 19q-56 0 -90.5 -36.5t-34.5 -107.5z" />
    <glyph glyph-name="ugrave.sc" horiz-adv-x="625" 
d="M550 498v-317q0 -87 -62.5 -139t-175.5 -52q-111 0 -174 49t-63 139v320h150v-276q0 -58 21 -82t74 -24q96 0 96 106v276h134zM377 539h-98l-118 155h150z" />
    <glyph glyph-name="uacute.sc" horiz-adv-x="625" 
d="M550 498v-317q0 -87 -62.5 -139t-175.5 -52q-111 0 -174 49t-63 139v320h150v-276q0 -58 21 -82t74 -24q96 0 96 106v276h134zM479 694l-118 -155h-98l66 155h150z" />
    <glyph glyph-name="ucircumflex.sc" horiz-adv-x="625" 
d="M550 498v-317q0 -87 -62.5 -139t-175.5 -52q-111 0 -174 49t-63 139v320h150v-276q0 -58 21 -82t74 -24q96 0 96 106v276h134zM493 542l-101 -6l-73 67l-72 -67l-99 6l108 152h127z" />
    <glyph glyph-name="udieresis.sc" horiz-adv-x="625" 
d="M550 498v-317q0 -87 -62.5 -139t-175.5 -52q-111 0 -174 49t-63 139v320h150v-276q0 -58 21 -82t74 -24q96 0 96 106v276h134zM476 606q0 -26 -18 -45t-44 -19t-44 19t-18 45t18 44t44 18t44 -18t18 -44zM291 606q0 -26 -18 -45t-44 -19t-44 19t-18 45t18 44t44 18
t44 -18t18 -44z" />
    <glyph glyph-name="yacute.sc" horiz-adv-x="560" 
d="M545 498l-191 -338v-160h-148v160l-189 333l154 8l90 -173q15 -29 19 -48h10q4 18 18 47l88 171h149zM442 694l-118 -155h-98l66 155h150z" />
    <glyph glyph-name="thorn.sc" horiz-adv-x="547" 
d="M502 255q0 -86 -56.5 -135t-148.5 -49q-18 0 -34 2l-10 108q13 -2 29 -2q32 0 55.5 17.5t23.5 52.5q0 70 -83 70q-20 0 -52 -2v-317h-144v498h144v-72q58 2 79 2q89 0 143 -46t54 -127z" />
    <glyph glyph-name="ydieresis.sc" horiz-adv-x="560" 
d="M545 498l-191 -338v-160h-148v160l-189 333l154 8l90 -173q15 -29 19 -48h10q4 18 18 47l88 171h149zM441 606q0 -26 -18 -45t-44 -19t-44 19t-18 45t18 44t44 18t44 -18t18 -44zM256 606q0 -26 -18 -45t-44 -19t-44 19t-18 45t18 44t44 18t44 -18t18 -44z" />
    <glyph glyph-name="amacron.sc" horiz-adv-x="579" 
d="M574 3l-158 -6l-38 104h-192l-36 -101h-145l197 498h162zM342 199l-45 120q-9 24 -11 47h-11q-2 -21 -11 -48l-43 -119h121zM412 558h-262v93h262v-93z" />
    <glyph glyph-name="abreve.sc" horiz-adv-x="579" 
d="M574 3l-158 -6l-38 104h-192l-36 -101h-145l197 498h162zM342 199l-45 120q-9 24 -11 47h-11q-2 -21 -11 -48l-43 -119h121zM443 688q-7 -74 -50.5 -114t-113.5 -40q-148 0 -159 154l90 5q5 -75 72 -75q63 0 71 75z" />
    <glyph glyph-name="aogonek.sc" horiz-adv-x="579" 
d="M574 3q-79 -44 -105 -71.5t-26 -49.5q0 -29 35 -29q25 0 48 12l13 -65q-34 -18 -84 -18q-46 0 -72.5 20.5t-26.5 58.5q0 77 128 139l-68 -3l-38 104h-192l-36 -101h-145l197 498h162zM342 199l-45 120q-9 24 -11 47h-11q-2 -21 -11 -48l-43 -119h121z" />
    <glyph glyph-name="cacute.sc" horiz-adv-x="565" 
d="M516 23q-78 -33 -187 -33q-119 0 -201.5 67.5t-82.5 180.5q0 127 83.5 198.5t199.5 71.5q112 0 189 -31l-27 -126q-64 31 -140 31q-64 0 -103.5 -34t-39.5 -105q0 -62 42 -94.5t105 -32.5q76 0 136 30zM472 694l-118 -155h-98l66 155h150z" />
    <glyph glyph-name="ccircumflex.sc" horiz-adv-x="565" 
d="M516 23q-78 -33 -187 -33q-119 0 -201.5 67.5t-82.5 180.5q0 127 83.5 198.5t199.5 71.5q112 0 189 -31l-27 -126q-64 31 -140 31q-64 0 -103.5 -34t-39.5 -105q0 -62 42 -94.5t105 -32.5q76 0 136 30zM479 542l-101 -6l-73 67l-72 -67l-99 6l108 152h127z" />
    <glyph glyph-name="cdotaccent.sc" horiz-adv-x="565" 
d="M516 23q-78 -33 -187 -33q-119 0 -201.5 67.5t-82.5 180.5q0 127 83.5 198.5t199.5 71.5q112 0 189 -31l-27 -126q-64 31 -140 31q-64 0 -103.5 -34t-39.5 -105q0 -62 42 -94.5t105 -32.5q76 0 136 30zM368 606q0 -26 -18.5 -45t-44.5 -19t-44 19t-18 45t18 44.5t44 18.5
t44.5 -18.5t18.5 -44.5z" />
    <glyph glyph-name="ccaron.sc" horiz-adv-x="565" 
d="M516 23q-78 -33 -187 -33q-119 0 -201.5 67.5t-82.5 180.5q0 127 83.5 198.5t199.5 71.5q112 0 189 -31l-27 -126q-64 31 -140 31q-64 0 -103.5 -34t-39.5 -105q0 -62 42 -94.5t105 -32.5q76 0 136 30zM132 690l101 6l73 -67l72 67l99 -6l-108 -152h-127z" />
    <glyph glyph-name="dcaron.sc" horiz-adv-x="640" 
d="M595 258q0 -126 -76 -194.5t-199 -68.5q-26 0 -75 2.5t-70 2.5h-93v498h90q26 0 75 2t70 2q127 0 202.5 -64.5t75.5 -179.5zM438 249q0 79 -40.5 111t-116.5 32q-23 0 -56 -3v-280q42 -4 64 -4q149 0 149 144zM144 690l101 6l73 -67l72 67l99 -6l-108 -152h-127z" />
    <glyph glyph-name="dcroat.sc" horiz-adv-x="640" 
d="M595 258q0 -126 -76 -194.5t-199 -68.5q-26 0 -75 2.5t-70 2.5h-93v210h-44v89h44v199h90q26 0 75 2t70 2q127 0 202.5 -64.5t75.5 -179.5zM438 249q0 79 -40.5 111t-116.5 32q-23 0 -56 -3v-90h97v-89h-97v-101q42 -4 64 -4q149 0 149 144z" />
    <glyph glyph-name="emacron.sc" horiz-adv-x="519" 
d="M467 112l-4 -112h-381v498h374l-6 -112h-224v-81h207v-108h-207v-85h241zM399 558h-262v93h262v-93z" />
    <glyph glyph-name="edotaccent.sc" horiz-adv-x="519" 
d="M467 112l-4 -112h-381v498h374l-6 -112h-224v-81h207v-108h-207v-85h241zM331 606q0 -26 -18.5 -45t-44.5 -19t-44 19t-18 45t18 44.5t44 18.5t44.5 -18.5t18.5 -44.5z" />
    <glyph glyph-name="eogonek.sc" horiz-adv-x="519" 
d="M467 112l-4 -112q-86 -67 -86 -113q0 -32 35 -32q26 0 48 12l13 -65q-34 -18 -84 -18q-46 0 -72.5 20.5t-26.5 58.5q0 67 103 137h-311v498h374l-6 -112h-224v-81h207v-108h-207v-85h241z" />
    <glyph glyph-name="ecaron.sc" horiz-adv-x="519" 
d="M467 112l-4 -112h-381v498h374l-6 -112h-224v-81h207v-108h-207v-85h241zM95 690l101 6l73 -67l72 67l99 -6l-108 -152h-127z" />
    <glyph glyph-name="gcircumflex.sc" horiz-adv-x="619" 
d="M546 26q-102 -36 -222 -36q-118 0 -198.5 67.5t-80.5 180.5q0 127 85 198.5t201 71.5q111 0 189 -31l-27 -126q-64 31 -140 31q-65 0 -105.5 -34.5t-40.5 -104.5q0 -63 39.5 -95.5t102.5 -32.5q28 0 53 5v113h144v-207zM489 542l-101 -6l-73 67l-72 -67l-99 6l108 152
h127z" />
    <glyph glyph-name="gbreve.sc" horiz-adv-x="619" 
d="M546 26q-102 -36 -222 -36q-118 0 -198.5 67.5t-80.5 180.5q0 127 85 198.5t201 71.5q111 0 189 -31l-27 -126q-64 31 -140 31q-65 0 -105.5 -34.5t-40.5 -104.5q0 -63 39.5 -95.5t102.5 -32.5q28 0 53 5v113h144v-207zM477 688q-7 -74 -50.5 -114t-113.5 -40
q-148 0 -159 154l90 5q5 -75 72 -75q63 0 71 75z" />
    <glyph glyph-name="gdotaccent.sc" horiz-adv-x="619" 
d="M546 26q-102 -36 -222 -36q-118 0 -198.5 67.5t-80.5 180.5q0 127 85 198.5t201 71.5q111 0 189 -31l-27 -126q-64 31 -140 31q-65 0 -105.5 -34.5t-40.5 -104.5q0 -63 39.5 -95.5t102.5 -32.5q28 0 53 5v113h144v-207zM378 606q0 -26 -18.5 -45t-44.5 -19t-44 19t-18 45
t18 44.5t44 18.5t44.5 -18.5t18.5 -44.5z" />
    <glyph glyph-name="gcommaaccent.sc" horiz-adv-x="619" 
d="M546 26q-102 -36 -222 -36q-118 0 -198.5 67.5t-80.5 180.5q0 127 85 198.5t201 71.5q111 0 189 -31l-27 -126q-64 31 -140 31q-65 0 -105.5 -34.5t-40.5 -104.5q0 -63 39.5 -95.5t102.5 -32.5q28 0 53 5v113h144v-207zM261 -35h125q-8 -42 -21 -74t-25 -51.5t-41 -59.5
l-83 18q35 85 45 167z" />
    <glyph glyph-name="hcircumflex.sc" horiz-adv-x="673" 
d="M591 0h-148v195h-213v-195h-148v498h148v-178h213v178h148v-498zM510 542l-101 -6l-73 67l-72 -67l-99 6l108 152h127z" />
    <glyph glyph-name="hbar.sc" horiz-adv-x="673" 
d="M35 358v86h47v54h148v-54h213v54h148v-54h53v-86h-53v-358h-148v195h-213v-195h-148v358h-47zM230 320h213v38h-213v-38z" />
    <glyph glyph-name="imacron.sc" horiz-adv-x="312" 
d="M230 0h-148v498h148v-498zM287 558h-262v93h262v-93z" />
    <glyph glyph-name="iogonek.sc" horiz-adv-x="312" 
d="M230 0q-84 -64 -84 -116q0 -29 35 -29q25 0 48 12l13 -65q-34 -18 -84 -18q-46 0 -72.5 20.5t-26.5 58.5q0 61 101 137h-78v498h148v-498z" />
    <glyph glyph-name="Idotaccent.sc" horiz-adv-x="312" 
d="M230 0h-148v498h148v-498zM219 606q0 -26 -18.5 -45t-44.5 -19t-44 19t-18 45t18 44.5t44 18.5t44.5 -18.5t18.5 -44.5z" />
    <glyph glyph-name="dotlessi.sc" horiz-adv-x="312" 
d="M230 0h-148v498h148v-498z" />
    <glyph glyph-name="jcircumflex.sc" horiz-adv-x="320" 
d="M238 89q0 -239 -242 -244l-15 134q69 2 89 31.5t20 94.5v393h148v-409zM337 542l-101 -6l-73 67l-72 -67l-99 6l108 152h127z" />
    <glyph glyph-name="kcommaaccent.sc" horiz-adv-x="591" 
d="M224 0h-142v498h142v-201l205 207l155 -19l-200 -194l207 -283l-171 -13l-135 201l-61 -59v-137zM256 -35h125q-8 -42 -21 -74t-25 -51.5t-41 -59.5l-83 18q35 85 45 167z" />
    <glyph glyph-name="lacute.sc" horiz-adv-x="488" 
d="M462 120l-7 -120h-373v498h144v-378h236zM320 694l-118 -155h-98l66 155h150z" />
    <glyph glyph-name="lcommaaccent.sc" horiz-adv-x="488" 
d="M462 120l-7 -120h-373v498h144v-378h236zM206 -35h125q-8 -42 -21 -74t-25 -51.5t-41 -59.5l-83 18q35 85 45 167z" />
    <glyph glyph-name="lcaron.sc" horiz-adv-x="488" 
d="M462 120l-7 -120h-373v498h144v-378h236zM423 498l-68 -217h-85l19 217h134z" />
    <glyph glyph-name="lslash.sc" horiz-adv-x="488" 
d="M462 120l-7 -120h-373v206l-39 -17v90l39 17v202h144v-139l68 30v-89l-68 -30v-150h236z" />
    <glyph glyph-name="nacute.sc" horiz-adv-x="672" 
d="M590 1l-120 -11l-220 283q-22 27 -31 54h-8q2 -26 2 -43v-284h-131v498h147l193 -248q22 -27 31 -56h8q-2 28 -2 47v257h131v-497zM493 694l-118 -155h-98l66 155h150z" />
    <glyph glyph-name="ncommaaccent.sc" horiz-adv-x="672" 
d="M590 1l-120 -11l-220 283q-22 27 -31 54h-8q2 -26 2 -43v-284h-131v498h147l193 -248q22 -27 31 -56h8q-2 28 -2 47v257h131v-497zM282 -35h125q-8 -42 -21 -74t-25 -51.5t-41 -59.5l-83 18q35 85 45 167z" />
    <glyph glyph-name="ncaron.sc" horiz-adv-x="672" 
d="M590 1l-120 -11l-220 283q-22 27 -31 54h-8q2 -26 2 -43v-284h-131v498h147l193 -248q22 -27 31 -56h8q-2 28 -2 47v257h131v-497zM153 690l101 6l73 -67l72 67l99 -6l-108 -152h-127z" />
    <glyph glyph-name="omacron.sc" horiz-adv-x="660" 
d="M615 258q0 -128 -82.5 -198t-212.5 -70q-117 0 -196 66.5t-79 182.5q0 126 80.5 197.5t211.5 71.5q119 0 198.5 -67.5t79.5 -182.5zM453 251q0 68 -34 105t-87 37q-56 0 -90.5 -36.5t-34.5 -107.5q0 -69 32 -106.5t89 -37.5q58 0 91.5 39.5t33.5 106.5zM463 558h-262v93
h262v-93z" />
    <glyph glyph-name="ohungarumlaut.sc" horiz-adv-x="660" 
d="M615 258q0 -128 -82.5 -198t-212.5 -70q-117 0 -196 66.5t-79 182.5q0 126 80.5 197.5t211.5 71.5q119 0 198.5 -67.5t79.5 -182.5zM453 251q0 68 -34 105t-87 37q-56 0 -90.5 -36.5t-34.5 -107.5q0 -69 32 -106.5t89 -37.5q58 0 91.5 39.5t33.5 106.5zM530 694l-94 -155
h-83l47 155h130zM369 694l-95 -155h-82l46 155h131z" />
    <glyph glyph-name="oe.sc" horiz-adv-x="859" 
d="M807 112l-4 -112h-362v31h-3q-58 -41 -140 -41q-106 0 -179.5 67t-73.5 182q0 126 74.5 197.5t191.5 71.5q85 0 127 -41h3v31h355l-6 -112h-224v-81h207v-108h-207v-85h241zM429 251q0 69 -29 105.5t-81 36.5q-112 0 -112 -144t108 -144q56 0 85 38.5t29 107.5z" />
    <glyph glyph-name="racute.sc" horiz-adv-x="578" 
d="M578 8l-157 -14l-132 172h-67v-166h-140v498h100q10 0 64 2t78 2q81 0 129 -39t48 -105q0 -99 -89 -139zM357 337q0 64 -83 64q-22 0 -52 -2v-129h47q88 0 88 67zM442 694l-118 -155h-98l66 155h150z" />
    <glyph glyph-name="rcommaaccent.sc" horiz-adv-x="578" 
d="M578 8l-157 -14l-132 172h-67v-166h-140v498h100q10 0 64 2t78 2q81 0 129 -39t48 -105q0 -99 -89 -139zM357 337q0 64 -83 64q-22 0 -52 -2v-129h47q88 0 88 67zM256 -35h125q-8 -42 -21 -74t-25 -51.5t-41 -59.5l-83 18q35 85 45 167z" />
    <glyph glyph-name="rcaron.sc" horiz-adv-x="578" 
d="M578 8l-157 -14l-132 172h-67v-166h-140v498h100q10 0 64 2t78 2q81 0 129 -39t48 -105q0 -99 -89 -139zM357 337q0 64 -83 64q-22 0 -52 -2v-129h47q88 0 88 67zM102 690l101 6l73 -67l72 67l99 -6l-108 -152h-127z" />
    <glyph glyph-name="sacute.sc" horiz-adv-x="476" 
d="M431 143q0 -67 -57.5 -110t-149.5 -43q-112 0 -187 37l23 118q71 -46 146 -46q73 0 73 42q0 17 -23.5 32.5t-57 29.5t-67 31.5t-57 48t-23.5 70.5q0 68 56.5 111.5t150.5 43.5q95 0 159 -16l-19 -117q-51 24 -121 24q-41 0 -56.5 -8t-15.5 -30q0 -14 23.5 -27t56.5 -27
t66 -33t56.5 -52.5t23.5 -78.5zM405 694l-118 -155h-98l66 155h150z" />
    <glyph glyph-name="scircumflex.sc" horiz-adv-x="476" 
d="M431 143q0 -67 -57.5 -110t-149.5 -43q-112 0 -187 37l23 118q71 -46 146 -46q73 0 73 42q0 17 -23.5 32.5t-57 29.5t-67 31.5t-57 48t-23.5 70.5q0 68 56.5 111.5t150.5 43.5q95 0 159 -16l-19 -117q-51 24 -121 24q-41 0 -56.5 -8t-15.5 -30q0 -14 23.5 -27t56.5 -27
t66 -33t56.5 -52.5t23.5 -78.5zM412 542l-101 -6l-73 67l-72 -67l-99 6l108 152h127z" />
    <glyph glyph-name="scedilla.sc" horiz-adv-x="476" 
d="M431 143q0 -67 -57.5 -110t-149.5 -43q-112 0 -187 37l23 118q71 -46 146 -46q73 0 73 42q0 17 -23.5 32.5t-57 29.5t-67 31.5t-57 48t-23.5 70.5q0 68 56.5 111.5t150.5 43.5q95 0 159 -16l-19 -117q-51 24 -121 24q-41 0 -56.5 -8t-15.5 -30q0 -14 23.5 -27t56.5 -27
t66 -33t56.5 -52.5t23.5 -78.5zM317 -127q0 -47 -36.5 -72t-80.5 -25q-46 0 -76 16l17 67q22 -11 47 -11q17 0 28 8t11 23q0 36 -51 40l11 53q54 0 92 -25t38 -74z" />
    <glyph glyph-name="scaron.sc" horiz-adv-x="476" 
d="M431 143q0 -67 -57.5 -110t-149.5 -43q-112 0 -187 37l23 118q71 -46 146 -46q73 0 73 42q0 17 -23.5 32.5t-57 29.5t-67 31.5t-57 48t-23.5 70.5q0 68 56.5 111.5t150.5 43.5q95 0 159 -16l-19 -117q-51 24 -121 24q-41 0 -56.5 -8t-15.5 -30q0 -14 23.5 -27t56.5 -27
t66 -33t56.5 -52.5t23.5 -78.5zM64 690l101 6l73 -67l72 67l99 -6l-108 -152h-127z" />
    <glyph glyph-name="tcommaaccent.sc" horiz-adv-x="540" 
d="M515 498l-6 -120h-165v-378h-148v378h-165l-6 120h490zM370 -127q0 -47 -36.5 -72t-80.5 -25q-46 0 -76 16l17 67q22 -11 47 -11q17 0 28 8t11 23q0 36 -51 40l11 53q54 0 92 -25t38 -74z" />
    <glyph glyph-name="tcaron.sc" horiz-adv-x="540" 
d="M515 498l-6 -120h-165v-378h-148v378h-165l-6 120h490zM97 690l101 6l73 -67l72 67l99 -6l-108 -152h-127z" />
    <glyph glyph-name="umacron.sc" horiz-adv-x="625" 
d="M550 498v-317q0 -87 -62.5 -139t-175.5 -52q-111 0 -174 49t-63 139v320h150v-276q0 -58 21 -82t74 -24q96 0 96 106v276h134zM451 558h-262v93h262v-93z" />
    <glyph glyph-name="ubreve.sc" horiz-adv-x="625" 
d="M550 498v-317q0 -87 -62.5 -139t-175.5 -52q-111 0 -174 49t-63 139v320h150v-276q0 -58 21 -82t74 -24q96 0 96 106v276h134zM482 688q-7 -74 -50.5 -114t-113.5 -40q-148 0 -159 154l90 5q5 -75 72 -75q63 0 71 75z" />
    <glyph glyph-name="uring.sc" horiz-adv-x="625" 
d="M550 498v-317q0 -87 -62.5 -139t-175.5 -52q-111 0 -174 49t-63 139v320h150v-276q0 -58 21 -82t74 -24q96 0 96 106v276h134zM434 624q0 -47 -33.5 -74.5t-84.5 -27.5q-46 0 -77.5 26t-31.5 68q0 46 33 74.5t84 28.5q48 0 79 -26.5t31 -68.5zM353 622q0 36 -32 36
q-34 0 -34 -37q0 -17 9 -26.5t24 -9.5q33 0 33 37z" />
    <glyph glyph-name="uhungarumlaut.sc" horiz-adv-x="625" 
d="M550 498v-317q0 -87 -62.5 -139t-175.5 -52q-111 0 -174 49t-63 139v320h150v-276q0 -58 21 -82t74 -24q96 0 96 106v276h134zM518 694l-94 -155h-83l47 155h130zM357 694l-95 -155h-82l46 155h131z" />
    <glyph glyph-name="uogonek.sc" horiz-adv-x="625" 
d="M550 498v-317q0 -105 -86 -156q-77 -65 -77 -131q0 -39 35 -39q26 0 48 12l13 -65q-34 -18 -84 -18q-99 0 -99 88q0 64 74 123q-32 -5 -62 -5q-111 0 -174 49t-63 139v320h150v-276q0 -58 21 -82t74 -24q96 0 96 106v276h134z" />
    <glyph glyph-name="zacute.sc" horiz-adv-x="568" 
d="M506 0h-456l-6 118l289 261h-255l-5 119h425l9 -114l-291 -263h280zM446 694l-118 -155h-98l66 155h150z" />
    <glyph glyph-name="zdotaccent.sc" horiz-adv-x="568" 
d="M506 0h-456l-6 118l289 261h-255l-5 119h425l9 -114l-291 -263h280zM342 606q0 -26 -18.5 -45t-44.5 -19t-44 19t-18 45t18 44.5t44 18.5t44.5 -18.5t18.5 -44.5z" />
    <glyph glyph-name="zcaron.sc" horiz-adv-x="568" 
d="M506 0h-456l-6 118l289 261h-255l-5 119h425l9 -114l-291 -263h280zM105 690l101 6l73 -67l72 67l99 -6l-108 -152h-127z" />
    <glyph glyph-name="florin.sc" 
d="M469 152h-145v-56q0 -102 -57 -153t-136 -51q-29 0 -53 4l-6 117q7 -1 30 -1q80 0 80 84v56h-131v104h131v45q0 101 58 154t134 53q29 0 54 -4l6 -117q-9 1 -30 1q-80 0 -80 -84v-48h145v-104z" />
    <glyph glyph-name="scommaaccent.sc" horiz-adv-x="476" 
d="M431 143q0 -67 -57.5 -110t-149.5 -43q-112 0 -187 37l23 118q71 -46 146 -46q73 0 73 42q0 17 -23.5 32.5t-57 29.5t-67 31.5t-57 48t-23.5 70.5q0 68 56.5 111.5t150.5 43.5q95 0 159 -16l-19 -117q-51 24 -121 24q-41 0 -56.5 -8t-15.5 -30q0 -14 23.5 -27t56.5 -27
t66 -33t56.5 -52.5t23.5 -78.5zM163 -35h125q-8 -42 -21 -74t-25 -51.5t-41 -59.5l-83 18q35 85 45 167z" />
    <glyph glyph-name="uni021B.sc" horiz-adv-x="540" 
d="M515 498l-6 -120h-165v-378h-148v378h-165l-6 120h490zM216 -35h125q-8 -42 -21 -74t-25 -51.5t-41 -59.5l-83 18q35 85 45 167z" />
    <glyph glyph-name="uni0237.sc" horiz-adv-x="320" 
d="M238 89q0 -239 -242 -244l-15 134q69 2 89 31.5t20 94.5v393h148v-409z" />
    <glyph glyph-name="gravecomb.sc" horiz-adv-x="1" 
d="M-273 539h-98l-118 155h150z" />
    <glyph glyph-name="acutecomb.sc" horiz-adv-x="1" 
d="M-97 694l-118 -155h-98l66 155h150z" />
    <glyph glyph-name="uni0302.sc" horiz-adv-x="1" 
d="M-86 542l-101 -6l-73 67l-72 -67l-99 6l108 152h127z" />
    <glyph glyph-name="tildecomb.sc" horiz-adv-x="1" 
d="M-84 664q-16 -70 -38 -97t-63 -27q-25 0 -71 23t-56 23q-19 0 -27.5 -8t-19.5 -38l-72 20q19 73 41 98.5t63 25.5q27 0 70.5 -23t54.5 -23q19 0 27.5 8.5t19.5 37.5z" />
    <glyph glyph-name="uni0304.sc" horiz-adv-x="1" 
d="M-119 558h-262v93h262v-93z" />
    <glyph glyph-name="uni0306.sc" horiz-adv-x="1" 
d="M-90 688q-7 -74 -50.5 -114t-113.5 -40q-148 0 -159 154l90 5q5 -75 72 -75q63 0 71 75z" />
    <glyph glyph-name="uni0307.sc" horiz-adv-x="1" 
d="M-188 606q0 -26 -18.5 -45t-44.5 -19t-44 19t-18 45t18 44.5t44 18.5t44.5 -18.5t18.5 -44.5z" />
    <glyph glyph-name="uni0308.sc" horiz-adv-x="1" 
d="M-174 606q0 -26 -18 -45t-44 -19t-44 19t-18 45t18 44t44 18t44 -18t18 -44zM-359 606q0 -26 -18 -45t-44 -19t-44 19t-18 45t18 44t44 18t44 -18t18 -44z" />
    <glyph glyph-name="uni030A.sc" horiz-adv-x="1" 
d="M-137 624q0 -47 -33.5 -74.5t-84.5 -27.5q-46 0 -77.5 26t-31.5 68q0 46 33 74.5t84 28.5q48 0 79 -26.5t31 -68.5zM-218 622q0 36 -32 36q-34 0 -34 -37q0 -17 9 -26.5t24 -9.5q33 0 33 37z" />
    <glyph glyph-name="uni030B.sc" horiz-adv-x="1" 
d="M-54 694l-94 -155h-83l47 155h130zM-215 694l-95 -155h-82l46 155h131z" />
    <glyph glyph-name="uni030C.sc" horiz-adv-x="1" 
d="M-433 690l101 6l73 -67l72 67l99 -6l-108 -152h-127z" />
    <glyph glyph-name="dagger.sc" 
d="M473 214h-147v-272h-133v272h-147v128h147v156h133v-156h147v-128z" />
    <glyph glyph-name="daggerdbl.sc" 
d="M471 56h-145v-114h-133v114h-145v122h145v85h-145v122h145v113h133v-113h145v-122h-145v-85h145v-122z" />
    <glyph glyph-name="perthousand.sc" horiz-adv-x="1045" 
d="M328 371q0 -62 -37.5 -99.5t-103.5 -37.5q-67 0 -102.5 36t-35.5 101q0 62 38 99.5t104 37.5q65 0 101 -36.5t36 -100.5zM230 371q0 66 -42 66q-41 0 -41 -66t41 -66q42 0 42 66zM581 498l-368 -498h-69l369 498h68zM675 127q0 -62 -37.5 -99.5t-103.5 -37.5
q-67 0 -102.5 36t-35.5 101q0 62 38 99.5t104 37.5q65 0 101 -36.5t36 -100.5zM577 127q0 66 -42 66q-41 0 -41 -66t41 -66q42 0 42 66zM996 127q0 -62 -37.5 -99.5t-103.5 -37.5q-67 0 -102.5 36t-35.5 101q0 62 38 99.5t104 37.5q65 0 101 -36.5t36 -100.5zM898 127
q0 66 -42 66q-41 0 -41 -66t41 -66q42 0 42 66z" />
    <glyph glyph-name="fraction.sc" horiz-adv-x="183" 
d="M318 498l-344 -498h-110l345 498h109z" />
    <glyph glyph-name="Euro.sc" 
d="M483 20q-61 -30 -169 -30q-92 0 -152.5 44t-72.5 134h-64l15 59h44v13q0 16 2 30h-61l15 59h52q19 94 81 136.5t147 42.5q92 0 155 -16l-13 -117q-51 18 -117 18q-57 0 -85 -13.5t-35 -50.5h169l-14 -59h-159q-1 -11 -1 -30v-13h178l-14 -59h-160q6 -36 35 -49.5
t81 -13.5q63 0 123 28z" />
    <glyph glyph-name="fi.sc" horiz-adv-x="823" 
d="M459 498l-8 -119h-223v-111h206v-118h-206v-150h-146v498h377zM741 0h-148v498h148v-498z" />
    <glyph glyph-name="fl.sc" horiz-adv-x="999" 
d="M459 498l-8 -119h-223v-111h206v-118h-206v-150h-146v498h377zM973 120l-7 -120h-373v498h144v-378h236z" />
    <glyph glyph-name="i.latn_TRK.sc" horiz-adv-x="312" 
d="M230 0h-148v498h148v-498zM219 606q0 -26 -18.5 -45t-44.5 -19t-44 19t-18 45t18 44.5t44 18.5t44.5 -18.5t18.5 -44.5z" />
    <glyph glyph-name="numbersign.tf.sc" horiz-adv-x="510" 
d="M477 306h-79l-23 -106h83v-81h-101l-26 -119h-90l26 119h-82l-26 -119h-90l26 119h-62v81h80l24 106h-86v82h104l24 110h89l-24 -110h83l24 110h89l-24 -110h61v-82zM309 306h-83l-23 -106h82z" />
    <glyph glyph-name="dollar.tf.sc" horiz-adv-x="510" 
d="M464 149q0 -58 -36.5 -94.5t-98.5 -48.5v-74h-57v66q-10 -1 -25 -1q-10 0 -23 1v-66h-57v70q-71 10 -104 28l23 111q66 -41 156 -41q49 0 67 8.5t18 28.5t-27 33.5t-66 23.5t-77.5 24.5t-65.5 47.5t-27 82q0 50 30 86.5t91 51.5v72h57v-64q12 1 27 1q11 0 21 -1v64h57
v-65q46 -3 92 -15l-15 -108q-60 22 -146 22q-44 0 -60.5 -8t-16.5 -28q0 -16 19.5 -27.5t48.5 -18.5t63.5 -19.5t63.5 -27.5t48.5 -44.5t19.5 -69.5z" />
    <glyph glyph-name="zero.tf.sc" horiz-adv-x="510" 
d="M480 250q0 -122 -60.5 -191t-168.5 -69t-164.5 66.5t-56.5 193.5q0 121 61 189.5t168 68.5t164 -67.5t57 -190.5zM334 251q0 82 -17 112.5t-62 30.5q-42 0 -60.5 -33.5t-18.5 -109.5q0 -80 16 -113.5t62 -33.5q45 0 62.5 37t17.5 110z" />
    <glyph glyph-name="one.tf.sc" horiz-adv-x="510" 
d="M479 122l-11 -122h-385v122h141v258l-120 -25l-20 111l173 42h109v-386h113z" />
    <glyph glyph-name="two.tf.sc" horiz-adv-x="510" 
d="M472 122l-12 -122h-425v103q156 78 205 121t49 87q0 71 -92 71q-63 0 -112 -29l-28 121q69 34 171 34q96 0 153 -45t57 -132q0 -114 -168 -209h202z" />
    <glyph glyph-name="three.tf.sc" horiz-adv-x="510" 
d="M441 124q0 -89 -84.5 -139t-292.5 -50l-16 126q127 0 181 15t54 51q0 26 -18 35t-58 9h-90v121h60q64 0 86.5 9t22.5 39q0 47 -88 47q-73 0 -115 -22l-28 116q67 27 169 27q103 0 154 -38t51 -106q0 -79 -83 -117v-6q95 -33 95 -117z" />
    <glyph glyph-name="four.tf.sc" horiz-adv-x="510" 
d="M482 46h-61v-104h-132v104h-253l-12 129l250 332l148 -10l-259 -333h126v121h132v-121h61v-118z" />
    <glyph glyph-name="five.tf.sc" horiz-adv-x="510" 
d="M458 128q0 -90 -79.5 -141.5t-251.5 -51.5q-31 0 -47 1l-18 124q25 -1 68 -1q98 0 138 13.5t40 47.5q0 33 -27 45t-100 12q-97 0 -117 -2l41 323h342l-13 -122h-216l-15 -88q18 1 35 1q107 0 163.5 -41.5t56.5 -119.5z" />
    <glyph glyph-name="six.tf.sc" horiz-adv-x="510" 
d="M466 175q0 -82 -57 -133.5t-153 -51.5q-101 0 -156.5 56.5t-55.5 164.5q0 162 109.5 257t286.5 95l19 -118q-207 0 -266 -131h6q37 37 98 37q76 0 122.5 -44t46.5 -132zM326 176q0 73 -71 73q-72 0 -72 -75q0 -39 16.5 -58t54.5 -19q72 0 72 79z" />
    <glyph glyph-name="seven.tf.sc" horiz-adv-x="510" 
d="M463 372l-267 -438l-139 14l259 423h-268l-17 127h432v-126z" />
    <glyph glyph-name="eight.tf.sc" horiz-adv-x="510" 
d="M467 141q0 -72 -58.5 -111.5t-161.5 -39.5q-204 0 -204 131q0 87 95 128q-42 22 -60.5 49.5t-18.5 69.5q0 65 53 102.5t149 37.5t144 -31.5t48 -86.5q0 -80 -83 -120q53 -23 75 -53.5t22 -75.5zM327 362q0 52 -63 52q-64 0 -64 -48q0 -40 80 -60q47 18 47 56zM323 137
q0 49 -99 73q-20 -8 -32 -26t-12 -40q0 -30 15.5 -45t53.5 -15q74 0 74 53z" />
    <glyph glyph-name="nine.tf.sc" horiz-adv-x="510" 
d="M466 287q0 -162 -109.5 -257t-286.5 -95l-19 118q207 0 266 131h-6q-37 -37 -98 -37q-76 0 -122.5 44t-46.5 132q0 82 57 133.5t153 51.5q101 0 156.5 -56.5t55.5 -164.5zM327 324q0 39 -16.5 58t-54.5 19q-72 0 -72 -79q0 -73 71 -73q72 0 72 75z" />
    <glyph glyph-name="cent.tf.sc" horiz-adv-x="510" 
d="M449 26q-47 -18 -106 -23v-61h-92v60q-90 11 -147.5 71.5t-57.5 166.5q0 116 58 178.5t147 76.5v63h92v-64q54 -2 105 -22l-16 -117q-63 23 -131 23q-117 0 -117 -134q0 -60 33 -91.5t88 -31.5q68 0 128 30z" />
    <glyph glyph-name="sterling.tf.sc" horiz-adv-x="510" 
d="M416 207h-157q2 -10 2 -14q0 -47 -38 -81h253v-112h-414v102q72 7 72 53q0 19 -14 52h-65v89h24q-7 23 -7 40q0 74 52.5 123t152.5 49q97 0 171 -26l-16 -113q-65 28 -148 28q-79 0 -79 -54q0 -17 14 -47h197v-89z" />
    <glyph glyph-name="yen.tf.sc" horiz-adv-x="510" 
d="M508 498l-159 -266h89v-105h-111v-127h-143v127h-111v105h89l-156 257l153 14l82 -157q13 -26 16 -50h9q4 29 16 50l88 152h138z" />
    <glyph glyph-name="section.tf.sc" horiz-adv-x="510" 
d="M479 225q0 -82 -92 -125q10 -22 10 -44q0 -63 -52.5 -101t-138.5 -38q-61 0 -112 8l19 102q52 -11 104 -11q56 0 56 25q0 13 -38 23.5t-83 20t-83 39.5t-38 76q0 82 91 125q-9 18 -9 44q0 63 52.5 101t138.5 38q61 0 112 -8l-19 -102q-52 11 -104 11q-56 0 -56 -25
q0 -13 38 -23.5t83 -20t83 -39.5t38 -76zM347 202q0 16 -20.5 25.5t-63.5 19.5t-65 18q-35 -15 -35 -42q0 -17 20 -26.5t63 -19.5t65 -18q36 15 36 43z" />
    <glyph glyph-name="florin.tf.sc" horiz-adv-x="510" 
d="M464 152h-145v-56q0 -102 -57 -153t-136 -51q-29 0 -53 4l-6 117q7 -1 30 -1q80 0 80 84v56h-131v104h131v45q0 101 58 154t134 53q29 0 54 -4l6 -117q-9 1 -30 1q-80 0 -80 -84v-48h145v-104z" />
    <glyph glyph-name="Euro.tf.sc" horiz-adv-x="510" 
d="M478 20q-61 -30 -169 -30q-92 0 -152.5 44t-72.5 134h-64l15 59h44v13q0 16 2 30h-61l15 59h52q19 94 81 136.5t147 42.5q92 0 155 -16l-13 -117q-51 18 -117 18q-57 0 -85 -13.5t-35 -50.5h169l-14 -59h-159q-1 -11 -1 -30v-13h178l-14 -59h-160q6 -36 35 -49.5
t81 -13.5q63 0 123 28z" />
    <glyph glyph-name="parenleft.case" horiz-adv-x="327" 
d="M353 -66l-48 -91q-126 43 -195 176t-69 325q0 203 72 330.5t192 170.5l48 -91q-169 -95 -169 -410q0 -164 45.5 -266t123.5 -144z" />
    <glyph glyph-name="parenright.case" horiz-adv-x="327" 
d="M-26 754l48 91q126 -43 195 -176t69 -325q0 -203 -72 -330.5t-192 -170.5l-48 91q169 95 169 410q0 164 -45.5 266t-123.5 144z" />
    <glyph glyph-name="hyphen.case" horiz-adv-x="342" 
d="M300 294h-258v99h258v-99z" />
    <glyph glyph-name="bracketleft.case" horiz-adv-x="363" 
d="M329 -136h-249v959h249v-115h-101v-729h101v-115z" />
    <glyph glyph-name="bracketright.case" horiz-adv-x="363" 
d="M283 -136h-249v115h101v729h-101v115h249v-959z" />
    <glyph glyph-name="braceleft.case" horiz-adv-x="342" 
d="M315 -137q-38 -4 -68 -4q-103 0 -152 37.5t-49 114.5q0 39 43 124.5t43 107.5q0 23 -25 31.5t-77 8.5v121q52 0 77 8.5t25 32.5q0 22 -43 105.5t-43 125.5q0 152 201 152q36 0 68 -4v-106q-20 1 -45 1q-73 0 -73 -59q0 -25 42 -98t42 -113q0 -44 -28.5 -68.5
t-109.5 -32.5v-9q82 -8 110 -32.5t28 -69.5q0 -37 -42 -111.5t-42 -98.5q0 -59 73 -59q24 0 45 1v-106z" />
    <glyph glyph-name="braceright.case" horiz-adv-x="342" 
d="M27 824q38 4 68 4q103 0 152 -37.5t49 -114.5q0 -39 -43 -124.5t-43 -107.5q0 -23 25 -31.5t77 -8.5v-121q-52 0 -77 -8.5t-25 -32.5q0 -22 43 -105.5t43 -125.5q0 -152 -201 -152q-36 0 -68 4v106q20 -1 45 -1q73 0 73 59q0 25 -42 98t-42 113q0 44 28.5 68.5
t109.5 32.5v9q-82 8 -110 32.5t-28 69.5q0 37 42 111.5t42 98.5q0 59 -73 59q-24 0 -45 -1v106z" />
    <glyph glyph-name="exclamdown.case" horiz-adv-x="250" 
d="M57 0l26 500h98l25 -500h-149zM58 620q0 31 21 51.5t53 20.5t53.5 -20.5t21.5 -51.5q0 -32 -21.5 -53.5t-53.5 -21.5q-31 0 -52.5 21.5t-21.5 53.5z" />
    <glyph glyph-name="guillemotleft.case" horiz-adv-x="480" 
d="M281 155l-101 -24l-160 206v36l160 184l101 -24l-137 -175zM468 155l-101 -24l-160 206v36l160 184l101 -24l-137 -175z" />
    <glyph glyph-name="uni00AD.case" horiz-adv-x="342" 
d="M300 294h-258v99h258v-99z" />
    <glyph glyph-name="guillemotright.case" horiz-adv-x="480" 
d="M460 315l-160 -184l-101 24l137 175l-137 203l101 24l160 -206v-36zM273 315l-160 -184l-101 24l137 175l-137 203l101 24l160 -206v-36z" />
    <glyph glyph-name="questiondown.case" horiz-adv-x="377" 
d="M-3 172q0 82 51.5 139t139.5 83l-5 106h98l46 -178q-104 -16 -151.5 -47t-47.5 -84q0 -40 25.5 -61.5t66.5 -21.5q61 0 96 23l21 -119q-58 -24 -141 -24q-86 0 -142.5 48t-56.5 136zM158 620q0 31 21.5 51.5t53.5 20.5t53 -20.5t21 -51.5q0 -32 -21.5 -53.5t-52.5 -21.5
t-53 21.5t-22 53.5z" />
    <glyph glyph-name="gravecomb.case" horiz-adv-x="1" 
d="M-341 720h-101l-110 115h145z" />
    <glyph glyph-name="acutecomb.case" horiz-adv-x="1" 
d="M-257 835l-110 -115h-101l66 115h145z" />
    <glyph glyph-name="uni0302.case" horiz-adv-x="1" 
d="M-246 723l-93 -6l-68 64l-70 -64l-90 6l105 124h111z" />
    <glyph glyph-name="tildecomb.case" horiz-adv-x="1" 
d="M-235 833q-15 -67 -39.5 -93t-61.5 -26q-26 0 -71 23t-56 23q-19 0 -27.5 -8t-19.5 -38l-72 20q18 70 42 94.5t62 24.5q27 0 70.5 -23t54.5 -23q19 0 27.5 8.5t19.5 37.5z" />
    <glyph glyph-name="uni0304.case" horiz-adv-x="1" 
d="M-275 733h-262v93h262v-93z" />
    <glyph glyph-name="uni0306.case" horiz-adv-x="1" 
d="M-247 845q-25 -137 -164 -137q-138 0 -159 137l95 5q11 -58 67 -58q54 0 66 58z" />
    <glyph glyph-name="uni0307.case" horiz-adv-x="1" 
d="M-341 779q0 -26 -18 -45t-44 -19t-44 19t-18 45t18 44t44 18t44 -18t18 -44z" />
    <glyph glyph-name="uni0308.case" horiz-adv-x="1" 
d="M-250 779q0 -26 -18 -45t-44 -19t-44 19t-18 45t18 44t44 18t44 -18t18 -44zM-435 779q0 -26 -18 -45t-44 -19t-44 19t-18 45t18 44t44 18t44 -18t18 -44z" />
    <glyph glyph-name="uni030A.case" horiz-adv-x="1" 
d="M-293 789q0 -47 -33.5 -74.5t-84.5 -27.5q-46 0 -77.5 26t-31.5 68q0 46 33 74.5t84 28.5q48 0 79 -26.5t31 -68.5zM-374 787q0 36 -32 36q-34 0 -34 -37q0 -17 9 -26.5t24 -9.5q33 0 33 37z" />
    <glyph glyph-name="uni030B.case" horiz-adv-x="1" 
d="M-388 835l-100 -115h-93l56 115h137zM-228 835l-100 -115h-93l56 115h137z" />
    <glyph glyph-name="uni030C.case" horiz-adv-x="1" 
d="M-261 843l-105 -124h-111l-105 124l93 6l68 -64l70 64z" />
    <glyph glyph-name="endash.case" horiz-adv-x="500" 
d="M467 294h-434v99h434v-99z" />
    <glyph glyph-name="emdash.case" horiz-adv-x="1000" 
d="M967 294h-934v99h934v-99z" />
    <glyph glyph-name="guilsinglleft.case" horiz-adv-x="293" 
d="M281 155l-101 -24l-160 206v36l160 184l101 -24l-137 -175z" />
    <glyph glyph-name="guilsinglright.case" horiz-adv-x="293" 
d="M273 315l-160 -184l-101 24l137 175l-137 203l101 24l160 -206v-36z" />
    <glyph glyph-name="orn001" horiz-adv-x="500" 
d="M370 534q0 -1 -15.5 -18.5t-31 -48t-15.5 -62.5q0 -30 14 -59v-1q0 -5 -37 -18q-31 -12 -36 -18q-28 12 -35 28.5t-21 28.5q-53 34 -53 83q0 30 23 76l5 58q2 27 19 33l-1 -2v-4q0 -20 15 -37q-1 7 -1 20t5 16q2 -34 11 -43q-1 5 -1 13q0 16 8 25q2 -10 10 -23.5
t12 -13.5h8q40 0 78 -25q3 6 3 14q0 24 -25 38q31 -12 31 -40q0 -5 -1 -10l-1 -6q3 0 10.5 9t8.5 15q2 -6 2 -10q0 -3 -1 -8t-1 -6q0 -2 1 -2q8 0 12 -1v-1zM442 -14q0 -5 -3 -5q-7 0 -31 3q-13 1 -19.5 7t-14.5 25q-4 10 -22.5 48.5t-22.5 48.5q-35 -98 -35 -177
q0 -92 42 -129l-9 -7q-60 27 -60 127q0 83 54 202q-34 65 -47 86q-7 11 -10 15.5t-8.5 8t-13.5 3.5h-5q-3 0 -3 4q0 3 4 4q30 7 36 7q14 0 24 -22q26 -55 36 -78q48 104 85 131q2 2 5 2q7 0 13 -2v-3q-56 -45 -96 -142q42 -82 65 -122q10 -17 16 -23.5t17 -7.5q3 0 3 -4z
M231 64q0 -67 -25.5 -164t-66.5 -156q-3 -3 -6 -3q-4 0 -10 1v3q44 52 62 137.5t18 161.5q0 98 -25 146.5t-64 48.5q0 -11 1.5 -26.5t3.5 -38t3 -36.5q9 -90 9 -120q0 -21 -6 -25q-25 -17 -47 -17q-2 0 -2 2q0 7 3 7q15 2 20 9.5t5 32.5q0 29 -6 89q-7 69 -13 104
q-2 8 -3.5 11t-4.5 5.5t-9 2.5q-1 0 -3.5 -0.5t-4.5 -0.5q-3 0 -3 5q0 4 3 4q7 0 28 3t32 3q50 0 80.5 -45.5t30.5 -143.5zM340 526v1q-46 16 -92 16h-1q-2 0 -2 -3q0 -6 5 -11q-35 13 -45 36v-2q0 -6 10 -24l10 -18q-36 17 -41 59q-5 -3 -13 -45q-1 -7 -6 -18.5t-7 -15.5
v-2q3 7 14 18q20 -4 26.5 -10.5t8.5 -20.5h5q12 0 21 -3q8 18 25 18q3 0 21 -2q6 -9 6 -23l-1 -6q0 -1 31 -9q25 53 25 65zM273 456v7q0 34 -16 34q-20 0 -20 -36q0 -38 18 -38q15 0 16 24q-1 -2 -6 -2q-8 0 -8 8q0 11 8 16q3 0 3 -4t-3 -8q0 -3 4 -3q2 0 4 2zM196 483
q0 26 -18 26q-21 0 -21 -40q0 -25 16 -25q12 0 17 14q-4 -2 -6 -2q-8 0 -8 7q0 5 3.5 11t6.5 6q4 -1 4 -4q0 -5 -4 -7q0 -4 5 -4h2q3 11 3 18zM313 454l-30 -3l-3 -11q-4 -11 -8.5 -17t-12.5 -6q-26 0 -34 45q-3 15 -12 15q-5 0 -8 -3l-1 -9v-3q0 -10 -7.5 -23.5
t-11.5 -26.5q1 -9 9.5 -12.5t24.5 -4t21 -1.5q-1 -4 -15 -4q-30 0 -49 12q4 11 9 23t7.5 19t3.5 13q-9 -21 -19 -21q-9 0 -17.5 9.5t-8.5 26.5v8q-2 -10 -2 -21q0 -46 29 -72l6 -5q22 -20 29 -36q5 -10 7.5 -14t8.5 -7.5t17 -5.5q11 0 65 29q-11 29 -11 60q0 19 13 46z
M300 502q0 -2 -2 -10q-3 9 -8.5 12.5t-15 4.5t-12.5 2q16 2 20 2q18 0 18 -11zM209 511q-3 1 -12.5 5.5t-15.5 4.5q-7 0 -12 -4q3 10 11 10q9 0 29 -16zM289 383q0 -4 -1 -6q-4 9 -9 12q2 -2 2 -6q0 -12 -13 -21t-38 -9h-8q52 7 52 34v4q-4 2 -12.5 4t-9.5 2q6 1 15 1
q22 0 22 -15z" />
    </font>
</defs>
</svg>
