<?xml version="1.0" encoding="utf-8"?>
<!-- Generator: Adobe Illustrator 22.1.0, SVG Export Plug-In . SVG Version: 6.00 Build 0)  -->
<svg version="1.1" id="Ebene_1" xmlns="http://www.w3.org/2000/svg" xmlns:xlink="http://www.w3.org/1999/xlink" x="0px" y="0px"
	 viewBox="0 0 499 108.6" style="enable-background:new 0 0 499 108.6;" xml:space="preserve">
<style type="text/css">
	.st0{fill:#F0F3F4;}
	.st1{fill:#F39322;}
	.st2{enable-background:new    ;}
</style>
<title>Element 1-109</title>
<path class="st0" d="M17.1,20.2c0.1,16,0,33,0.3,44.3c0.1,6,0.4,12.2,2.6,13.7c4.1,2.7,9.1,1.7,14.7,1.1c3.5-0.4,8.8-0.9,12.3-0.5
	c11.3,1.4,17.9,7.7,22.2,17.7c0.2,0.5,1.3,3.9,1.8,4.4c1.6-4.2,2.8-8.5,3.7-12.8c1.4-6.9,2.7-17.4,1.9-25.6
	c-1.1-8.9-5.8-17.1-13-22.5c-7.2-5.2-14.4-7.2-20.2-9.4S27.3,26.9,17.1,20.2z"/>
<path class="st0" d="M33,89.6c5.2-0.9,10.4-2.1,15.5-1.9c8.8,0.2,15.6,4.8,20.4,12.2c0.3,0.4,0.1-0.6-0.2-1.3
	c-4-9.7-9-15.2-20.3-16.8c-3.9-0.6-10.3,0.6-13.7,0.8s-6.6,1.2-13,1c-4-0.1-6.4-0.7-6.6-6.4c-0.4-12.9-0.3-29-0.4-41.9l-6.6-3.6
	C7.8,48.9,7.8,65.8,7.3,82.9c-0.1,4.4,0,11.3,0,11.3"/>
<path class="st0" d="M5.6,46.9L3,46.1c-1,20.7-2,41.2-3,62.5c4.5-0.5,9-1.4,13.3-2.7c6.9-2.1,12.9-4.4,17.8-6s18.1-7.2,26.9-3.6
	c4.1,1.6,7.9,3.7,11.4,6.4c-5.5-8.9-15.8-12-26.5-10.8c-7.4,1-14.7,2.7-21.8,4.9c-5.7,1.7-16.5,3.7-16.5,3.7s0.2-6.2,0.2-11.7
	C4.9,74.8,5.3,60.9,5.6,46.9z"/>
<path class="st1" d="M79,1.7c0,0-6.8,9.7,2.4,43.7S72.6,101,72.6,101s23.8-53.5-17.3-70C55.3,30.9,57.1,9.4,79,1.7z"/>
<path class="st1" d="M80.7,4.1c0,0,6.6-2.6,11.7,0.1c0,0-10.8,3.4-14.1,9.3C78.3,13.6,78.1,10.8,80.7,4.1z"/>
<path class="st1" d="M82.3,18.9c-0.4,2.5-1.4,3.4-2.4,3.2s-1.5-1.2-1.1-3.7s2.2-5.5,2.9-5.3S82.7,16.4,82.3,18.9z"/>
<path class="st1" d="M70.2,0.7C69.1,0.5,67-0.1,66.3,0c-0.6,0.1,1.6,1.4,1,1.6c-0.9,0.4-1.3,0-2.6-0.3c-0.7-0.2-1.4-0.2-2,0
	c-0.8,0.2,2.2,1.4,1.5,2.5c-0.3,0.4-2.1,0.1-2.9,0c-1,0-2,0-3,0.2c-0.9,0.2,2.3,1.5,3.1,3s0.4,2.8,0.8,2.5c1-0.7,1.8-1.4,2.3-1.9
	c1.4-1.1,2.8-2.1,4.3-3.1c1.7-1.1,3.6-2.1,5.5-2.9L70.2,0.7z"/>
<g class="st2">
	<path class="st1" d="M124.3,51.4h-9.2v24.5h-3.1V51.4h-9.2l-0.2-2.8h21.8L124.3,51.4z"/>
	<path class="st1" d="M129.1,75.9V48.6h3.1v27.3H129.1z"/>
	<path class="st1" d="M156,75.9h-16.1V48.6h15.3l-0.2,2.8h-12v9.1h10.8v2.8h-10.8v10h13.2L156,75.9z"/>
	<path class="st1" d="M178.5,76.3l-9.7-12.2h-3.9v11.8h-3V48.6h1.6c0,0,4.6-0.2,5.8-0.2c5.3,0,8.4,2.8,8.4,7.4
		c0,4.1-2.6,6.7-5.8,7.6v0.1l9.8,12.2L178.5,76.3z M168.7,51c-1.2,0-2.8,0-3.8,0.1v10.4h3.8c3.6,0,5.9-2.1,5.9-5.5
		C174.6,52.8,172.3,51,168.7,51z"/>
	<path class="st1" d="M190.9,76.3c-3,0-6-0.8-7.8-1.9l1-2.9c1.6,1.2,4.5,2,6.9,2c3,0,5.6-1.7,5.6-4.4c0-6.2-12.8-6.4-12.8-13.8
		c0-4.6,4-7.2,8.8-7.2c2.2,0,4.7,0.4,6.3,0.8l-0.6,3c-1.6-0.6-3.8-1.1-5.8-1.1c-3.2,0-5.6,1.3-5.6,4c0,5.6,13,5.9,13,13.9
		C199.9,73.2,196.3,76.3,190.9,76.3z"/>
	<path class="st1" d="M217.7,76.3c-7.2,0-13.9-4.9-13.9-13.6c0-10.2,7.3-14.6,14-14.6c3.1,0,6.7,0.6,8.8,1.7l-0.8,2.9
		c-1.8-0.9-5-1.7-8-1.7c-5.7,0-10.7,3.5-10.7,11.8c0,7.2,5.6,10.7,11.1,10.7c2.9,0,6.1-1.1,7.9-2.1l0.7,3
		C224.7,75.5,221.3,76.3,217.7,76.3z"/>
	<path class="st1" d="M233,75.9V48.6h3.1v11.7h15.2V48.6h3.1v27.3h-3.1V63.1h-15.2v12.8H233z"/>
	<path class="st1" d="M272.4,76.3c-6.4,0-10.6-2.8-10.6-9.3V48.6h3v18.2c0,3.9,2.7,6.6,7.6,6.6c4.9,0,7.5-3,7.5-6.7V48.6h3V67
		C283,72.4,278.8,76.3,272.4,76.3z"/>
	<path class="st1" d="M309,51.4h-9.2v24.5h-3.1V51.4h-9.2l-0.2-2.8h21.8L309,51.4z"/>
	<path class="st1" d="M312,75.9l-0.3-2.5l17.7-22h-16l-0.2-2.8H333l0.4,2.3l-17.8,22.2h17.8l0.2,2.8H312z"/>
	<path class="st1" d="M337.5,66.8v-2.4h9.7v2.4H337.5z"/>
</g>
<g class="st2">
	<path class="st0" d="M379.7,75.9h-3.2L369.5,54c-0.1-0.5-0.3-1.2-0.4-1.6h-0.2c0,0.4-0.2,1.2-0.4,1.7l-7.4,21.8h-3.2l-8-27.2
		l3.1-0.3l6.3,21.7c0.2,0.5,0.3,1.2,0.4,1.6h0.2c0-0.4,0.2-1.1,0.4-1.6l7.3-21.6h3.2l7,21.5c0.1,0.4,0.3,1.1,0.4,1.6h0.2
		c0.1-0.5,0.2-1.1,0.3-1.6l6.2-21.5h3L379.7,75.9z"/>
	<path class="st0" d="M393,75.9V48.6h3.1v27.3H393z"/>
	<path class="st0" d="M409.5,76.3c-3,0-6-0.8-7.8-1.9l1-2.9c1.6,1.2,4.5,2,6.9,2c3,0,5.6-1.7,5.6-4.4c0-6.2-12.8-6.4-12.8-13.8
		c0-4.6,4-7.2,8.8-7.2c2.2,0,4.7,0.4,6.3,0.8l-0.6,3c-1.6-0.6-3.8-1.1-5.8-1.1c-3.2,0-5.6,1.3-5.6,4c0,5.6,13,5.9,13,13.9
		C418.5,73.2,414.9,76.3,409.5,76.3z"/>
	<path class="st0" d="M430,76.3c-3,0-6-0.8-7.8-1.9l1-2.9c1.6,1.2,4.5,2,6.9,2c3,0,5.6-1.7,5.6-4.4c0-6.2-12.8-6.4-12.8-13.8
		c0-4.6,4-7.2,8.8-7.2c2.2,0,4.7,0.4,6.3,0.8l-0.6,3c-1.6-0.6-3.8-1.1-5.8-1.1c-3.2,0-5.6,1.3-5.6,4c0,5.6,13,5.9,13,13.9
		C438.9,73.2,435.3,76.3,430,76.3z"/>
	<path class="st0" d="M460.9,75.9h-16.1V48.6h15.3l-0.2,2.8h-12v9.1h10.8v2.8h-10.8v10h13.2L460.9,75.9z"/>
	<path class="st0" d="M486.8,76.3l-16.1-21.9c-0.4-0.5-0.8-1.1-1-1.7h-0.2c0,0.5,0.1,1.2,0.1,1.7v21.4h-2.8V48.6h3.3l15.4,20.9
		c0.4,0.5,0.7,1.1,1,1.7h0.2c0-0.6,0-1.2,0-1.8V48.6h2.8v27.2L486.8,76.3z"/>
</g>
</svg>
